G04 #@! TF.GenerationSoftware,KiCad,Pcbnew,(5.1.6-0-10_14)*
G04 #@! TF.CreationDate,2020-07-08T21:12:18-05:00*
G04 #@! TF.ProjectId,DoMo-pcb,446f4d6f-2d70-4636-922e-6b696361645f,rev?*
G04 #@! TF.SameCoordinates,Original*
G04 #@! TF.FileFunction,Legend,Bot*
G04 #@! TF.FilePolarity,Positive*
%FSLAX46Y46*%
G04 Gerber Fmt 4.6, Leading zero omitted, Abs format (unit mm)*
G04 Created by KiCad (PCBNEW (5.1.6-0-10_14)) date 2020-07-08 21:12:18*
%MOMM*%
%LPD*%
G01*
G04 APERTURE LIST*
%ADD10C,0.300000*%
%ADD11C,0.381000*%
%ADD12C,0.150000*%
%ADD13C,0.120000*%
%ADD14C,3.100000*%
%ADD15C,4.087800*%
%ADD16C,1.850000*%
%ADD17R,1.852600X1.852600*%
%ADD18C,1.852600*%
%ADD19R,2.100000X2.100000*%
%ADD20C,2.100000*%
%ADD21R,2.100000X3.300000*%
%ADD22O,1.800000X1.800000*%
%ADD23R,1.800000X1.800000*%
%ADD24C,2.300000*%
%ADD25R,1.878000X1.878000*%
%ADD26C,1.878000*%
G04 APERTURE END LIST*
D10*
X252527678Y-114279464D02*
X254027678Y-114279464D01*
X254027678Y-113922321D01*
X253956250Y-113708035D01*
X253813392Y-113565178D01*
X253670535Y-113493750D01*
X253384821Y-113422321D01*
X253170535Y-113422321D01*
X252884821Y-113493750D01*
X252741964Y-113565178D01*
X252599107Y-113708035D01*
X252527678Y-113922321D01*
X252527678Y-114279464D01*
X252527678Y-112565178D02*
X252599107Y-112708035D01*
X252670535Y-112779464D01*
X252813392Y-112850892D01*
X253241964Y-112850892D01*
X253384821Y-112779464D01*
X253456250Y-112708035D01*
X253527678Y-112565178D01*
X253527678Y-112350892D01*
X253456250Y-112208035D01*
X253384821Y-112136607D01*
X253241964Y-112065178D01*
X252813392Y-112065178D01*
X252670535Y-112136607D01*
X252599107Y-112208035D01*
X252527678Y-112350892D01*
X252527678Y-112565178D01*
X252527678Y-111422321D02*
X254027678Y-111422321D01*
X252956250Y-110922321D01*
X254027678Y-110422321D01*
X252527678Y-110422321D01*
X252527678Y-109493750D02*
X252599107Y-109636607D01*
X252670535Y-109708035D01*
X252813392Y-109779464D01*
X253241964Y-109779464D01*
X253384821Y-109708035D01*
X253456250Y-109636607D01*
X253527678Y-109493750D01*
X253527678Y-109279464D01*
X253456250Y-109136607D01*
X253384821Y-109065178D01*
X253241964Y-108993750D01*
X252813392Y-108993750D01*
X252670535Y-109065178D01*
X252599107Y-109136607D01*
X252527678Y-109279464D01*
X252527678Y-109493750D01*
X253527678Y-107350892D02*
X252527678Y-106993750D01*
X253527678Y-106636607D01*
X252527678Y-105279464D02*
X252527678Y-106136607D01*
X252527678Y-105708035D02*
X254027678Y-105708035D01*
X253813392Y-105850892D01*
X253670535Y-105993750D01*
X253599107Y-106136607D01*
X252670535Y-104636607D02*
X252599107Y-104565178D01*
X252527678Y-104636607D01*
X252599107Y-104708035D01*
X252670535Y-104636607D01*
X252527678Y-104636607D01*
X254027678Y-103636607D02*
X254027678Y-103493750D01*
X253956250Y-103350892D01*
X253884821Y-103279464D01*
X253741964Y-103208035D01*
X253456250Y-103136607D01*
X253099107Y-103136607D01*
X252813392Y-103208035D01*
X252670535Y-103279464D01*
X252599107Y-103350892D01*
X252527678Y-103493750D01*
X252527678Y-103636607D01*
X252599107Y-103779464D01*
X252670535Y-103850892D01*
X252813392Y-103922321D01*
X253099107Y-103993750D01*
X253456250Y-103993750D01*
X253741964Y-103922321D01*
X253884821Y-103850892D01*
X253956250Y-103779464D01*
X254027678Y-103636607D01*
D11*
X236537500Y-58578750D02*
X233997500Y-58578750D01*
X251777500Y-56038750D02*
X233997500Y-56038750D01*
X233997500Y-56038750D02*
X233997500Y-89058750D01*
X233997500Y-89058750D02*
X251777500Y-89058750D01*
X251777500Y-89058750D02*
X251777500Y-56038750D01*
D12*
G36*
X248732135Y-64467780D02*
G01*
X248732135Y-64567780D01*
X249232135Y-64567780D01*
X249232135Y-64467780D01*
X248732135Y-64467780D01*
G37*
X248732135Y-64467780D02*
X248732135Y-64567780D01*
X249232135Y-64567780D01*
X249232135Y-64467780D01*
X248732135Y-64467780D01*
G36*
X248732135Y-64467780D02*
G01*
X248732135Y-64767780D01*
X248832135Y-64767780D01*
X248832135Y-64467780D01*
X248732135Y-64467780D01*
G37*
X248732135Y-64467780D02*
X248732135Y-64767780D01*
X248832135Y-64767780D01*
X248832135Y-64467780D01*
X248732135Y-64467780D01*
G36*
X248732135Y-65067780D02*
G01*
X248732135Y-65267780D01*
X248832135Y-65267780D01*
X248832135Y-65067780D01*
X248732135Y-65067780D01*
G37*
X248732135Y-65067780D02*
X248732135Y-65267780D01*
X248832135Y-65267780D01*
X248832135Y-65067780D01*
X248732135Y-65067780D01*
G36*
X249132135Y-64467780D02*
G01*
X249132135Y-65267780D01*
X249232135Y-65267780D01*
X249232135Y-64467780D01*
X249132135Y-64467780D01*
G37*
X249132135Y-64467780D02*
X249132135Y-65267780D01*
X249232135Y-65267780D01*
X249232135Y-64467780D01*
X249132135Y-64467780D01*
G36*
X248932135Y-64867780D02*
G01*
X248932135Y-64967780D01*
X249032135Y-64967780D01*
X249032135Y-64867780D01*
X248932135Y-64867780D01*
G37*
X248932135Y-64867780D02*
X248932135Y-64967780D01*
X249032135Y-64967780D01*
X249032135Y-64867780D01*
X248932135Y-64867780D01*
D11*
X236537500Y-58578750D02*
X236537500Y-61118750D01*
X236537500Y-61118750D02*
X233997500Y-61118750D01*
D13*
X242887500Y-107656250D02*
X242887500Y-106656250D01*
X243387500Y-107156250D02*
X242387500Y-107156250D01*
X239387500Y-101056250D02*
X236987500Y-101056250D01*
X244187500Y-101056250D02*
X241587500Y-101056250D01*
X248787500Y-101056250D02*
X246387500Y-101056250D01*
X246987500Y-114356250D02*
X246687500Y-114656250D01*
X246987500Y-114956250D02*
X246987500Y-114356250D01*
X246687500Y-114656250D02*
X246987500Y-114956250D01*
X248787500Y-113256250D02*
X236987500Y-113256250D01*
X248787500Y-109156250D02*
X248787500Y-113256250D01*
X236987500Y-109156250D02*
X236987500Y-113256250D01*
X236987500Y-101056250D02*
X236987500Y-105156250D01*
X248787500Y-105156250D02*
X248787500Y-101056250D01*
X245887500Y-107156250D02*
G75*
G03*
X245887500Y-107156250I-3000000J0D01*
G01*
D12*
X238016976Y-62750654D02*
X238016976Y-61950654D01*
X237826500Y-61950654D01*
X237712214Y-61988750D01*
X237636023Y-62064940D01*
X237597928Y-62141130D01*
X237559833Y-62293511D01*
X237559833Y-62407797D01*
X237597928Y-62560178D01*
X237636023Y-62636369D01*
X237712214Y-62712559D01*
X237826500Y-62750654D01*
X238016976Y-62750654D01*
X237255071Y-62026845D02*
X237216976Y-61988750D01*
X237140785Y-61950654D01*
X236950309Y-61950654D01*
X236874119Y-61988750D01*
X236836023Y-62026845D01*
X236797928Y-62103035D01*
X236797928Y-62179226D01*
X236836023Y-62293511D01*
X237293166Y-62750654D01*
X236797928Y-62750654D01*
X238016976Y-72910654D02*
X238016976Y-72110654D01*
X237826500Y-72110654D01*
X237712214Y-72148750D01*
X237636023Y-72224940D01*
X237597928Y-72301130D01*
X237559833Y-72453511D01*
X237559833Y-72567797D01*
X237597928Y-72720178D01*
X237636023Y-72796369D01*
X237712214Y-72872559D01*
X237826500Y-72910654D01*
X238016976Y-72910654D01*
X237064595Y-72110654D02*
X236988404Y-72110654D01*
X236912214Y-72148750D01*
X236874119Y-72186845D01*
X236836023Y-72263035D01*
X236797928Y-72415416D01*
X236797928Y-72605892D01*
X236836023Y-72758273D01*
X236874119Y-72834464D01*
X236912214Y-72872559D01*
X236988404Y-72910654D01*
X237064595Y-72910654D01*
X237140785Y-72872559D01*
X237178880Y-72834464D01*
X237216976Y-72758273D01*
X237255071Y-72605892D01*
X237255071Y-72415416D01*
X237216976Y-72263035D01*
X237178880Y-72186845D01*
X237140785Y-72148750D01*
X237064595Y-72110654D01*
X238016976Y-70370654D02*
X238016976Y-69570654D01*
X237826500Y-69570654D01*
X237712214Y-69608750D01*
X237636023Y-69684940D01*
X237597928Y-69761130D01*
X237559833Y-69913511D01*
X237559833Y-70027797D01*
X237597928Y-70180178D01*
X237636023Y-70256369D01*
X237712214Y-70332559D01*
X237826500Y-70370654D01*
X238016976Y-70370654D01*
X236797928Y-70370654D02*
X237255071Y-70370654D01*
X237026500Y-70370654D02*
X237026500Y-69570654D01*
X237102690Y-69684940D01*
X237178880Y-69761130D01*
X237255071Y-69799226D01*
X238036023Y-67068750D02*
X238112214Y-67030654D01*
X238226500Y-67030654D01*
X238340785Y-67068750D01*
X238416976Y-67144940D01*
X238455071Y-67221130D01*
X238493166Y-67373511D01*
X238493166Y-67487797D01*
X238455071Y-67640178D01*
X238416976Y-67716369D01*
X238340785Y-67792559D01*
X238226500Y-67830654D01*
X238150309Y-67830654D01*
X238036023Y-67792559D01*
X237997928Y-67754464D01*
X237997928Y-67487797D01*
X238150309Y-67487797D01*
X237655071Y-67830654D02*
X237655071Y-67030654D01*
X237197928Y-67830654D01*
X237197928Y-67030654D01*
X236816976Y-67830654D02*
X236816976Y-67030654D01*
X236626500Y-67030654D01*
X236512214Y-67068750D01*
X236436023Y-67144940D01*
X236397928Y-67221130D01*
X236359833Y-67373511D01*
X236359833Y-67487797D01*
X236397928Y-67640178D01*
X236436023Y-67716369D01*
X236512214Y-67792559D01*
X236626500Y-67830654D01*
X236816976Y-67830654D01*
X238036023Y-64528750D02*
X238112214Y-64490654D01*
X238226500Y-64490654D01*
X238340785Y-64528750D01*
X238416976Y-64604940D01*
X238455071Y-64681130D01*
X238493166Y-64833511D01*
X238493166Y-64947797D01*
X238455071Y-65100178D01*
X238416976Y-65176369D01*
X238340785Y-65252559D01*
X238226500Y-65290654D01*
X238150309Y-65290654D01*
X238036023Y-65252559D01*
X237997928Y-65214464D01*
X237997928Y-64947797D01*
X238150309Y-64947797D01*
X237655071Y-65290654D02*
X237655071Y-64490654D01*
X237197928Y-65290654D01*
X237197928Y-64490654D01*
X236816976Y-65290654D02*
X236816976Y-64490654D01*
X236626500Y-64490654D01*
X236512214Y-64528750D01*
X236436023Y-64604940D01*
X236397928Y-64681130D01*
X236359833Y-64833511D01*
X236359833Y-64947797D01*
X236397928Y-65100178D01*
X236436023Y-65176369D01*
X236512214Y-65252559D01*
X236626500Y-65290654D01*
X236816976Y-65290654D01*
X238016976Y-75450654D02*
X238016976Y-74650654D01*
X237826500Y-74650654D01*
X237712214Y-74688750D01*
X237636023Y-74764940D01*
X237597928Y-74841130D01*
X237559833Y-74993511D01*
X237559833Y-75107797D01*
X237597928Y-75260178D01*
X237636023Y-75336369D01*
X237712214Y-75412559D01*
X237826500Y-75450654D01*
X238016976Y-75450654D01*
X236874119Y-74917321D02*
X236874119Y-75450654D01*
X237064595Y-74612559D02*
X237255071Y-75183988D01*
X236759833Y-75183988D01*
X237559833Y-77914464D02*
X237597928Y-77952559D01*
X237712214Y-77990654D01*
X237788404Y-77990654D01*
X237902690Y-77952559D01*
X237978880Y-77876369D01*
X238016976Y-77800178D01*
X238055071Y-77647797D01*
X238055071Y-77533511D01*
X238016976Y-77381130D01*
X237978880Y-77304940D01*
X237902690Y-77228750D01*
X237788404Y-77190654D01*
X237712214Y-77190654D01*
X237597928Y-77228750D01*
X237559833Y-77266845D01*
X236874119Y-77190654D02*
X237026500Y-77190654D01*
X237102690Y-77228750D01*
X237140785Y-77266845D01*
X237216976Y-77381130D01*
X237255071Y-77533511D01*
X237255071Y-77838273D01*
X237216976Y-77914464D01*
X237178880Y-77952559D01*
X237102690Y-77990654D01*
X236950309Y-77990654D01*
X236874119Y-77952559D01*
X236836023Y-77914464D01*
X236797928Y-77838273D01*
X236797928Y-77647797D01*
X236836023Y-77571607D01*
X236874119Y-77533511D01*
X236950309Y-77495416D01*
X237102690Y-77495416D01*
X237178880Y-77533511D01*
X237216976Y-77571607D01*
X237255071Y-77647797D01*
X238016976Y-80530654D02*
X238016976Y-79730654D01*
X237826500Y-79730654D01*
X237712214Y-79768750D01*
X237636023Y-79844940D01*
X237597928Y-79921130D01*
X237559833Y-80073511D01*
X237559833Y-80187797D01*
X237597928Y-80340178D01*
X237636023Y-80416369D01*
X237712214Y-80492559D01*
X237826500Y-80530654D01*
X238016976Y-80530654D01*
X237293166Y-79730654D02*
X236759833Y-79730654D01*
X237102690Y-80530654D01*
X237978880Y-82651607D02*
X237712214Y-82651607D01*
X237597928Y-83070654D02*
X237978880Y-83070654D01*
X237978880Y-82270654D01*
X237597928Y-82270654D01*
X236912214Y-82270654D02*
X237064595Y-82270654D01*
X237140785Y-82308750D01*
X237178880Y-82346845D01*
X237255071Y-82461130D01*
X237293166Y-82613511D01*
X237293166Y-82918273D01*
X237255071Y-82994464D01*
X237216976Y-83032559D01*
X237140785Y-83070654D01*
X236988404Y-83070654D01*
X236912214Y-83032559D01*
X236874119Y-82994464D01*
X236836023Y-82918273D01*
X236836023Y-82727797D01*
X236874119Y-82651607D01*
X236912214Y-82613511D01*
X236988404Y-82575416D01*
X237140785Y-82575416D01*
X237216976Y-82613511D01*
X237255071Y-82651607D01*
X237293166Y-82727797D01*
X237750309Y-85191607D02*
X237636023Y-85229702D01*
X237597928Y-85267797D01*
X237559833Y-85343988D01*
X237559833Y-85458273D01*
X237597928Y-85534464D01*
X237636023Y-85572559D01*
X237712214Y-85610654D01*
X238016976Y-85610654D01*
X238016976Y-84810654D01*
X237750309Y-84810654D01*
X237674119Y-84848750D01*
X237636023Y-84886845D01*
X237597928Y-84963035D01*
X237597928Y-85039226D01*
X237636023Y-85115416D01*
X237674119Y-85153511D01*
X237750309Y-85191607D01*
X238016976Y-85191607D01*
X236874119Y-85077321D02*
X236874119Y-85610654D01*
X237064595Y-84772559D02*
X237255071Y-85343988D01*
X236759833Y-85343988D01*
X237750309Y-87731607D02*
X237636023Y-87769702D01*
X237597928Y-87807797D01*
X237559833Y-87883988D01*
X237559833Y-87998273D01*
X237597928Y-88074464D01*
X237636023Y-88112559D01*
X237712214Y-88150654D01*
X238016976Y-88150654D01*
X238016976Y-87350654D01*
X237750309Y-87350654D01*
X237674119Y-87388750D01*
X237636023Y-87426845D01*
X237597928Y-87503035D01*
X237597928Y-87579226D01*
X237636023Y-87655416D01*
X237674119Y-87693511D01*
X237750309Y-87731607D01*
X238016976Y-87731607D01*
X236836023Y-87350654D02*
X237216976Y-87350654D01*
X237255071Y-87731607D01*
X237216976Y-87693511D01*
X237140785Y-87655416D01*
X236950309Y-87655416D01*
X236874119Y-87693511D01*
X236836023Y-87731607D01*
X236797928Y-87807797D01*
X236797928Y-87998273D01*
X236836023Y-88074464D01*
X236874119Y-88112559D01*
X236950309Y-88150654D01*
X237140785Y-88150654D01*
X237216976Y-88112559D01*
X237255071Y-88074464D01*
X248672309Y-87731607D02*
X248558023Y-87769702D01*
X248519928Y-87807797D01*
X248481833Y-87883988D01*
X248481833Y-87998273D01*
X248519928Y-88074464D01*
X248558023Y-88112559D01*
X248634214Y-88150654D01*
X248938976Y-88150654D01*
X248938976Y-87350654D01*
X248672309Y-87350654D01*
X248596119Y-87388750D01*
X248558023Y-87426845D01*
X248519928Y-87503035D01*
X248519928Y-87579226D01*
X248558023Y-87655416D01*
X248596119Y-87693511D01*
X248672309Y-87731607D01*
X248938976Y-87731607D01*
X247796119Y-87350654D02*
X247948500Y-87350654D01*
X248024690Y-87388750D01*
X248062785Y-87426845D01*
X248138976Y-87541130D01*
X248177071Y-87693511D01*
X248177071Y-87998273D01*
X248138976Y-88074464D01*
X248100880Y-88112559D01*
X248024690Y-88150654D01*
X247872309Y-88150654D01*
X247796119Y-88112559D01*
X247758023Y-88074464D01*
X247719928Y-87998273D01*
X247719928Y-87807797D01*
X247758023Y-87731607D01*
X247796119Y-87693511D01*
X247872309Y-87655416D01*
X248024690Y-87655416D01*
X248100880Y-87693511D01*
X248138976Y-87731607D01*
X248177071Y-87807797D01*
X248672309Y-82651607D02*
X248558023Y-82689702D01*
X248519928Y-82727797D01*
X248481833Y-82803988D01*
X248481833Y-82918273D01*
X248519928Y-82994464D01*
X248558023Y-83032559D01*
X248634214Y-83070654D01*
X248938976Y-83070654D01*
X248938976Y-82270654D01*
X248672309Y-82270654D01*
X248596119Y-82308750D01*
X248558023Y-82346845D01*
X248519928Y-82423035D01*
X248519928Y-82499226D01*
X248558023Y-82575416D01*
X248596119Y-82613511D01*
X248672309Y-82651607D01*
X248938976Y-82651607D01*
X248215166Y-82270654D02*
X247719928Y-82270654D01*
X247986595Y-82575416D01*
X247872309Y-82575416D01*
X247796119Y-82613511D01*
X247758023Y-82651607D01*
X247719928Y-82727797D01*
X247719928Y-82918273D01*
X247758023Y-82994464D01*
X247796119Y-83032559D01*
X247872309Y-83070654D01*
X248100880Y-83070654D01*
X248177071Y-83032559D01*
X248215166Y-82994464D01*
X248672309Y-80111607D02*
X248558023Y-80149702D01*
X248519928Y-80187797D01*
X248481833Y-80263988D01*
X248481833Y-80378273D01*
X248519928Y-80454464D01*
X248558023Y-80492559D01*
X248634214Y-80530654D01*
X248938976Y-80530654D01*
X248938976Y-79730654D01*
X248672309Y-79730654D01*
X248596119Y-79768750D01*
X248558023Y-79806845D01*
X248519928Y-79883035D01*
X248519928Y-79959226D01*
X248558023Y-80035416D01*
X248596119Y-80073511D01*
X248672309Y-80111607D01*
X248938976Y-80111607D01*
X247719928Y-80530654D02*
X248177071Y-80530654D01*
X247948500Y-80530654D02*
X247948500Y-79730654D01*
X248024690Y-79844940D01*
X248100880Y-79921130D01*
X248177071Y-79959226D01*
X248615166Y-69951607D02*
X248881833Y-69951607D01*
X248881833Y-70370654D02*
X248881833Y-69570654D01*
X248500880Y-69570654D01*
X247853261Y-69837321D02*
X247853261Y-70370654D01*
X248043738Y-69532559D02*
X248234214Y-70103988D01*
X247738976Y-70103988D01*
X249415166Y-67030654D02*
X249148500Y-67830654D01*
X248881833Y-67030654D01*
X248158023Y-67754464D02*
X248196119Y-67792559D01*
X248310404Y-67830654D01*
X248386595Y-67830654D01*
X248500880Y-67792559D01*
X248577071Y-67716369D01*
X248615166Y-67640178D01*
X248653261Y-67487797D01*
X248653261Y-67373511D01*
X248615166Y-67221130D01*
X248577071Y-67144940D01*
X248500880Y-67068750D01*
X248386595Y-67030654D01*
X248310404Y-67030654D01*
X248196119Y-67068750D01*
X248158023Y-67106845D01*
X247358023Y-67754464D02*
X247396119Y-67792559D01*
X247510404Y-67830654D01*
X247586595Y-67830654D01*
X247700880Y-67792559D01*
X247777071Y-67716369D01*
X247815166Y-67640178D01*
X247853261Y-67487797D01*
X247853261Y-67373511D01*
X247815166Y-67221130D01*
X247777071Y-67144940D01*
X247700880Y-67068750D01*
X247586595Y-67030654D01*
X247510404Y-67030654D01*
X247396119Y-67068750D01*
X247358023Y-67106845D01*
X248958023Y-61988750D02*
X249034214Y-61950654D01*
X249148500Y-61950654D01*
X249262785Y-61988750D01*
X249338976Y-62064940D01*
X249377071Y-62141130D01*
X249415166Y-62293511D01*
X249415166Y-62407797D01*
X249377071Y-62560178D01*
X249338976Y-62636369D01*
X249262785Y-62712559D01*
X249148500Y-62750654D01*
X249072309Y-62750654D01*
X248958023Y-62712559D01*
X248919928Y-62674464D01*
X248919928Y-62407797D01*
X249072309Y-62407797D01*
X248577071Y-62750654D02*
X248577071Y-61950654D01*
X248119928Y-62750654D01*
X248119928Y-61950654D01*
X247738976Y-62750654D02*
X247738976Y-61950654D01*
X247548500Y-61950654D01*
X247434214Y-61988750D01*
X247358023Y-62064940D01*
X247319928Y-62141130D01*
X247281833Y-62293511D01*
X247281833Y-62407797D01*
X247319928Y-62560178D01*
X247358023Y-62636369D01*
X247434214Y-62712559D01*
X247548500Y-62750654D01*
X247738976Y-62750654D01*
X248900880Y-60210654D02*
X249167547Y-59829702D01*
X249358023Y-60210654D02*
X249358023Y-59410654D01*
X249053261Y-59410654D01*
X248977071Y-59448750D01*
X248938976Y-59486845D01*
X248900880Y-59563035D01*
X248900880Y-59677321D01*
X248938976Y-59753511D01*
X248977071Y-59791607D01*
X249053261Y-59829702D01*
X249358023Y-59829702D01*
X248596119Y-59982083D02*
X248215166Y-59982083D01*
X248672309Y-60210654D02*
X248405642Y-59410654D01*
X248138976Y-60210654D01*
X247948500Y-59410654D02*
X247758023Y-60210654D01*
X247605642Y-59639226D01*
X247453261Y-60210654D01*
X247262785Y-59410654D01*
X248615166Y-72491607D02*
X248881833Y-72491607D01*
X248881833Y-72910654D02*
X248881833Y-72110654D01*
X248500880Y-72110654D01*
X247815166Y-72110654D02*
X248196119Y-72110654D01*
X248234214Y-72491607D01*
X248196119Y-72453511D01*
X248119928Y-72415416D01*
X247929452Y-72415416D01*
X247853261Y-72453511D01*
X247815166Y-72491607D01*
X247777071Y-72567797D01*
X247777071Y-72758273D01*
X247815166Y-72834464D01*
X247853261Y-72872559D01*
X247929452Y-72910654D01*
X248119928Y-72910654D01*
X248196119Y-72872559D01*
X248234214Y-72834464D01*
X248615166Y-75031607D02*
X248881833Y-75031607D01*
X248881833Y-75450654D02*
X248881833Y-74650654D01*
X248500880Y-74650654D01*
X247853261Y-74650654D02*
X248005642Y-74650654D01*
X248081833Y-74688750D01*
X248119928Y-74726845D01*
X248196119Y-74841130D01*
X248234214Y-74993511D01*
X248234214Y-75298273D01*
X248196119Y-75374464D01*
X248158023Y-75412559D01*
X248081833Y-75450654D01*
X247929452Y-75450654D01*
X247853261Y-75412559D01*
X247815166Y-75374464D01*
X247777071Y-75298273D01*
X247777071Y-75107797D01*
X247815166Y-75031607D01*
X247853261Y-74993511D01*
X247929452Y-74955416D01*
X248081833Y-74955416D01*
X248158023Y-74993511D01*
X248196119Y-75031607D01*
X248234214Y-75107797D01*
X248615166Y-77571607D02*
X248881833Y-77571607D01*
X248881833Y-77990654D02*
X248881833Y-77190654D01*
X248500880Y-77190654D01*
X248272309Y-77190654D02*
X247738976Y-77190654D01*
X248081833Y-77990654D01*
X248672309Y-85191607D02*
X248558023Y-85229702D01*
X248519928Y-85267797D01*
X248481833Y-85343988D01*
X248481833Y-85458273D01*
X248519928Y-85534464D01*
X248558023Y-85572559D01*
X248634214Y-85610654D01*
X248938976Y-85610654D01*
X248938976Y-84810654D01*
X248672309Y-84810654D01*
X248596119Y-84848750D01*
X248558023Y-84886845D01*
X248519928Y-84963035D01*
X248519928Y-85039226D01*
X248558023Y-85115416D01*
X248596119Y-85153511D01*
X248672309Y-85191607D01*
X248938976Y-85191607D01*
X248177071Y-84886845D02*
X248138976Y-84848750D01*
X248062785Y-84810654D01*
X247872309Y-84810654D01*
X247796119Y-84848750D01*
X247758023Y-84886845D01*
X247719928Y-84963035D01*
X247719928Y-85039226D01*
X247758023Y-85153511D01*
X248215166Y-85610654D01*
X247719928Y-85610654D01*
X241506104Y-59410654D02*
X241048961Y-59410654D01*
X241277532Y-60210654D02*
X241277532Y-59410654D01*
X240858485Y-59410654D02*
X240325151Y-60210654D01*
X240325151Y-59410654D02*
X240858485Y-60210654D01*
X239868008Y-59410654D02*
X239791818Y-59410654D01*
X239715628Y-59448750D01*
X239677532Y-59486845D01*
X239639437Y-59563035D01*
X239601342Y-59715416D01*
X239601342Y-59905892D01*
X239639437Y-60058273D01*
X239677532Y-60134464D01*
X239715628Y-60172559D01*
X239791818Y-60210654D01*
X239868008Y-60210654D01*
X239944199Y-60172559D01*
X239982294Y-60134464D01*
X240020389Y-60058273D01*
X240058485Y-59905892D01*
X240058485Y-59715416D01*
X240020389Y-59563035D01*
X239982294Y-59486845D01*
X239944199Y-59448750D01*
X239868008Y-59410654D01*
X238687056Y-59372559D02*
X239372770Y-60401130D01*
X238420389Y-60210654D02*
X238420389Y-59410654D01*
X238229913Y-59410654D01*
X238115628Y-59448750D01*
X238039437Y-59524940D01*
X238001342Y-59601130D01*
X237963247Y-59753511D01*
X237963247Y-59867797D01*
X238001342Y-60020178D01*
X238039437Y-60096369D01*
X238115628Y-60172559D01*
X238229913Y-60210654D01*
X238420389Y-60210654D01*
X237696580Y-59410654D02*
X237201342Y-59410654D01*
X237468008Y-59715416D01*
X237353723Y-59715416D01*
X237277532Y-59753511D01*
X237239437Y-59791607D01*
X237201342Y-59867797D01*
X237201342Y-60058273D01*
X237239437Y-60134464D01*
X237277532Y-60172559D01*
X237353723Y-60210654D01*
X237582294Y-60210654D01*
X237658485Y-60172559D01*
X237696580Y-60134464D01*
X248460833Y-65232559D02*
X248346547Y-65270654D01*
X248156071Y-65270654D01*
X248079880Y-65232559D01*
X248041785Y-65194464D01*
X248003690Y-65118273D01*
X248003690Y-65042083D01*
X248041785Y-64965892D01*
X248079880Y-64927797D01*
X248156071Y-64889702D01*
X248308452Y-64851607D01*
X248384642Y-64813511D01*
X248422738Y-64775416D01*
X248460833Y-64699226D01*
X248460833Y-64623035D01*
X248422738Y-64546845D01*
X248384642Y-64508750D01*
X248308452Y-64470654D01*
X248117976Y-64470654D01*
X248003690Y-64508750D01*
X247775119Y-64470654D02*
X247317976Y-64470654D01*
X247546547Y-65270654D02*
X247546547Y-64470654D01*
X250492261Y-110522916D02*
X250539880Y-110665773D01*
X250539880Y-110903869D01*
X250492261Y-110999107D01*
X250444642Y-111046726D01*
X250349404Y-111094345D01*
X250254166Y-111094345D01*
X250158928Y-111046726D01*
X250111309Y-110999107D01*
X250063690Y-110903869D01*
X250016071Y-110713392D01*
X249968452Y-110618154D01*
X249920833Y-110570535D01*
X249825595Y-110522916D01*
X249730357Y-110522916D01*
X249635119Y-110570535D01*
X249587500Y-110618154D01*
X249539880Y-110713392D01*
X249539880Y-110951488D01*
X249587500Y-111094345D01*
X249539880Y-111427678D02*
X250539880Y-111665773D01*
X249825595Y-111856250D01*
X250539880Y-112046726D01*
X249539880Y-112284821D01*
X250539880Y-113189583D02*
X250539880Y-112618154D01*
X250539880Y-112903869D02*
X249539880Y-112903869D01*
X249682738Y-112808630D01*
X249777976Y-112713392D01*
X249825595Y-112618154D01*
%LPC*%
D14*
X202247500Y-83026250D03*
D15*
X204787500Y-88106250D03*
D14*
X208597500Y-85566250D03*
D16*
X209867500Y-88106250D03*
X199707500Y-88106250D03*
D17*
X235267500Y-59848750D03*
D18*
X235267500Y-62388750D03*
X235267500Y-64928750D03*
X235267500Y-67468750D03*
X235267500Y-70008750D03*
X235267500Y-72548750D03*
X235267500Y-75088750D03*
X235267500Y-77628750D03*
X235267500Y-80168750D03*
X235267500Y-82708750D03*
X235267500Y-85248750D03*
X250507500Y-87788750D03*
X250507500Y-85248750D03*
X250507500Y-82708750D03*
X250507500Y-80168750D03*
X250507500Y-77628750D03*
X250507500Y-75088750D03*
X250507500Y-72548750D03*
X250507500Y-70008750D03*
X250507500Y-67468750D03*
X250507500Y-64928750D03*
X250507500Y-62388750D03*
X235267500Y-87788750D03*
X250507500Y-59848750D03*
D14*
X183197500Y-102076250D03*
D15*
X185737500Y-107156250D03*
D14*
X189547500Y-104616250D03*
D16*
X190817500Y-107156250D03*
X180657500Y-107156250D03*
D14*
X202247500Y-102076250D03*
D15*
X204787500Y-107156250D03*
D14*
X208597500Y-104616250D03*
D16*
X209867500Y-107156250D03*
X199707500Y-107156250D03*
D14*
X221297500Y-102076250D03*
D15*
X223837500Y-107156250D03*
D14*
X227647500Y-104616250D03*
D16*
X228917500Y-107156250D03*
X218757500Y-107156250D03*
D14*
X183197500Y-83026250D03*
D15*
X185737500Y-88106250D03*
D14*
X189547500Y-85566250D03*
D16*
X190817500Y-88106250D03*
X180657500Y-88106250D03*
D14*
X221297500Y-83026250D03*
D15*
X223837500Y-88106250D03*
D14*
X227647500Y-85566250D03*
D16*
X228917500Y-88106250D03*
X218757500Y-88106250D03*
D14*
X183197500Y-63976250D03*
D15*
X185737500Y-69056250D03*
D14*
X189547500Y-66516250D03*
D16*
X190817500Y-69056250D03*
X180657500Y-69056250D03*
D14*
X202247500Y-63976250D03*
D15*
X204787500Y-69056250D03*
D14*
X208597500Y-66516250D03*
D16*
X209867500Y-69056250D03*
X199707500Y-69056250D03*
D14*
X221297500Y-63976250D03*
D15*
X223837500Y-69056250D03*
D14*
X227647500Y-66516250D03*
D16*
X228917500Y-69056250D03*
X218757500Y-69056250D03*
D19*
X245387500Y-114656250D03*
D20*
X242887500Y-114656250D03*
X240387500Y-114656250D03*
D21*
X248487500Y-107156250D03*
X237287500Y-107156250D03*
D20*
X245387500Y-100156250D03*
X240387500Y-100156250D03*
X250342400Y-93093400D03*
X254842400Y-93093400D03*
X250342400Y-99593400D03*
X254842400Y-99593400D03*
D22*
X239236250Y-92868750D03*
X241776250Y-92868750D03*
X244316250Y-92868750D03*
D23*
X246856250Y-92868750D03*
D24*
X254000000Y-118268750D03*
X254000000Y-57943750D03*
X173831250Y-57943750D03*
X173831250Y-118268750D03*
D25*
X189706250Y-112712500D03*
D26*
X182086250Y-112712500D03*
D25*
X208756250Y-112712500D03*
D26*
X201136250Y-112712500D03*
D25*
X227806250Y-112712500D03*
D26*
X220186250Y-112712500D03*
X239268000Y-97510600D03*
D25*
X246888000Y-97510600D03*
X189706250Y-93662500D03*
D26*
X182086250Y-93662500D03*
X201136250Y-93662500D03*
D25*
X208756250Y-93662500D03*
D26*
X220186250Y-93662500D03*
D25*
X227806250Y-93662500D03*
X189706250Y-74612500D03*
D26*
X182086250Y-74612500D03*
X201136250Y-74612500D03*
D25*
X208756250Y-74612500D03*
D26*
X220186250Y-74612500D03*
D25*
X227806250Y-74612500D03*
M02*
