M48
; DRILL file {KiCad (5.1.6-0-10_14)} date Thursday, July 09, 2020 at 08:29:19 PM
; FORMAT={-:-/ absolute / inch / decimal}
; #@! TF.CreationDate,2020-07-09T20:29:19-05:00
; #@! TF.GenerationSoftware,Kicad,Pcbnew,(5.1.6-0-10_14)
; #@! TF.FileFunction,NonPlated,1,2,NPTH
FMAT,2
INCH
T1C0.0689
T2C0.0866
T3C0.1181
T4C0.1570
%
G90
G05
T1
X8.6125Y-2.7188
X9.0125Y-2.7188
X7.1125Y-3.4688
X7.8625Y-3.4688
X8.2625Y-3.4688
X7.8625Y-2.7188
X8.2625Y-2.7188
X7.8625Y-4.2188
X8.2625Y-4.2188
X7.1125Y-2.7188
X7.5125Y-2.7188
X8.6125Y-4.2188
X9.0125Y-4.2188
X7.5125Y-3.4688
X7.1125Y-4.2188
X7.5125Y-4.2188
X8.6125Y-3.4688
X9.0125Y-3.4688
T2
X6.8438Y-2.2812
X10.0Y-4.6562
X6.8438Y-4.6562
X10.0Y-2.2812
T3
X8.7125Y-4.0187
X8.9625Y-4.1187
X7.2125Y-3.2687
X7.4625Y-3.3687
X8.7125Y-3.2687
X8.9625Y-3.3687
X7.9625Y-2.5187
X8.2125Y-2.6187
X7.9625Y-4.0187
X8.2125Y-4.1187
X7.2125Y-2.5187
X7.4625Y-2.6187
X8.7125Y-2.5187
X8.9625Y-2.6187
X7.2125Y-4.0187
X7.4625Y-4.1187
X7.9625Y-3.2687
X8.2125Y-3.3687
T4
X8.8125Y-4.2188
X7.3125Y-3.4688
X8.8125Y-3.4688
X8.0625Y-2.7188
X8.0625Y-4.2188
X7.3125Y-2.7188
X8.8125Y-2.7188
X7.3125Y-4.2188
X8.0625Y-3.4688
T0
M30
