G04 #@! TF.GenerationSoftware,KiCad,Pcbnew,(5.1.6-0-10_14)*
G04 #@! TF.CreationDate,2020-07-09T20:29:13-05:00*
G04 #@! TF.ProjectId,DoMo-pcb,446f4d6f-2d70-4636-922e-6b696361645f,rev?*
G04 #@! TF.SameCoordinates,Original*
G04 #@! TF.FileFunction,Copper,L2,Bot*
G04 #@! TF.FilePolarity,Positive*
%FSLAX46Y46*%
G04 Gerber Fmt 4.6, Leading zero omitted, Abs format (unit mm)*
G04 Created by KiCad (PCBNEW (5.1.6-0-10_14)) date 2020-07-09 20:29:13*
%MOMM*%
%LPD*%
G01*
G04 APERTURE LIST*
G04 #@! TA.AperFunction,ComponentPad*
%ADD10R,1.752600X1.752600*%
G04 #@! TD*
G04 #@! TA.AperFunction,ComponentPad*
%ADD11C,1.752600*%
G04 #@! TD*
G04 #@! TA.AperFunction,ComponentPad*
%ADD12R,2.000000X2.000000*%
G04 #@! TD*
G04 #@! TA.AperFunction,ComponentPad*
%ADD13C,2.000000*%
G04 #@! TD*
G04 #@! TA.AperFunction,ComponentPad*
%ADD14R,2.000000X3.200000*%
G04 #@! TD*
G04 #@! TA.AperFunction,ComponentPad*
%ADD15O,1.700000X1.700000*%
G04 #@! TD*
G04 #@! TA.AperFunction,ComponentPad*
%ADD16R,1.700000X1.700000*%
G04 #@! TD*
G04 #@! TA.AperFunction,ComponentPad*
%ADD17R,1.778000X1.778000*%
G04 #@! TD*
G04 #@! TA.AperFunction,ComponentPad*
%ADD18C,1.778000*%
G04 #@! TD*
G04 #@! TA.AperFunction,ViaPad*
%ADD19C,0.800000*%
G04 #@! TD*
G04 #@! TA.AperFunction,Conductor*
%ADD20C,0.254000*%
G04 #@! TD*
G04 #@! TA.AperFunction,Conductor*
%ADD21C,0.381000*%
G04 #@! TD*
G04 APERTURE END LIST*
D10*
X235267500Y-59848750D03*
D11*
X235267500Y-62388750D03*
X235267500Y-64928750D03*
X235267500Y-67468750D03*
X235267500Y-70008750D03*
X235267500Y-72548750D03*
X235267500Y-75088750D03*
X235267500Y-77628750D03*
X235267500Y-80168750D03*
X235267500Y-82708750D03*
X235267500Y-85248750D03*
X250507500Y-87788750D03*
X250507500Y-85248750D03*
X250507500Y-82708750D03*
X250507500Y-80168750D03*
X250507500Y-77628750D03*
X250507500Y-75088750D03*
X250507500Y-72548750D03*
X250507500Y-70008750D03*
X250507500Y-67468750D03*
X250507500Y-64928750D03*
X250507500Y-62388750D03*
X235267500Y-87788750D03*
X250507500Y-59848750D03*
D12*
X245387500Y-114656250D03*
D13*
X242887500Y-114656250D03*
X240387500Y-114656250D03*
D14*
X248487500Y-107156250D03*
X237287500Y-107156250D03*
D13*
X245387500Y-100156250D03*
X240387500Y-100156250D03*
X250342400Y-93093400D03*
X254842400Y-93093400D03*
X250342400Y-99593400D03*
X254842400Y-99593400D03*
D15*
X239236250Y-92868750D03*
X241776250Y-92868750D03*
X244316250Y-92868750D03*
D16*
X246856250Y-92868750D03*
D17*
X189706250Y-112712500D03*
D18*
X182086250Y-112712500D03*
D17*
X208756250Y-112712500D03*
D18*
X201136250Y-112712500D03*
D17*
X227806250Y-112712500D03*
D18*
X220186250Y-112712500D03*
X239268000Y-97510600D03*
D17*
X246888000Y-97510600D03*
X189706250Y-93662500D03*
D18*
X182086250Y-93662500D03*
X201136250Y-93662500D03*
D17*
X208756250Y-93662500D03*
D18*
X220186250Y-93662500D03*
D17*
X227806250Y-93662500D03*
X189706250Y-74612500D03*
D18*
X182086250Y-74612500D03*
X201136250Y-74612500D03*
D17*
X208756250Y-74612500D03*
D18*
X220186250Y-74612500D03*
D17*
X227806250Y-74612500D03*
D19*
X231549551Y-76425449D03*
X218849551Y-76425449D03*
X210118301Y-76425449D03*
X199799551Y-76425449D03*
X191068301Y-76425449D03*
X190817500Y-95726250D03*
X200342500Y-95726250D03*
X209867500Y-95726250D03*
X219392500Y-95726250D03*
X231298750Y-95726250D03*
X212725000Y-81756250D03*
X193662500Y-81743750D03*
X193662500Y-100793750D03*
X212831250Y-100700000D03*
X194468750Y-88900000D03*
X199231250Y-104775000D03*
X236090749Y-91628249D03*
X216031250Y-91412500D03*
X196862500Y-91293750D03*
X196862500Y-72243750D03*
X215887500Y-72243750D03*
X216031250Y-85062500D03*
X193662500Y-72243750D03*
X215925000Y-81731250D03*
X203993750Y-77787500D03*
X193662500Y-91293750D03*
X196862500Y-81743750D03*
X212831250Y-91387500D03*
X196862500Y-100793750D03*
X253206250Y-102393750D03*
X254000000Y-91281250D03*
X251618750Y-104775000D03*
X248739010Y-99717240D03*
D20*
X250507500Y-81889648D02*
X250507500Y-82708750D01*
X245043301Y-76425449D02*
X250507500Y-81889648D01*
X231549551Y-76425449D02*
X245043301Y-76425449D01*
X210118301Y-76425449D02*
X218849551Y-76425449D01*
X191068301Y-76425449D02*
X199799551Y-76425449D01*
X244472221Y-85248750D02*
X250507500Y-85248750D01*
X233994721Y-95726250D02*
X244472221Y-85248750D01*
X190817500Y-95726250D02*
X200342500Y-95726250D01*
X209867500Y-95726250D02*
X219392500Y-95726250D01*
X231298750Y-95726250D02*
X233994721Y-95726250D01*
X238059249Y-92303789D02*
X240669288Y-89693750D01*
X238059249Y-96301849D02*
X238059249Y-92303789D01*
X239268000Y-97510600D02*
X238059249Y-96301849D01*
X248602500Y-89693750D02*
X250507500Y-87788750D01*
X240669288Y-89693750D02*
X248602500Y-89693750D01*
X182086250Y-112712500D02*
X184150000Y-114776250D01*
X233838750Y-114776250D02*
X235743750Y-112871250D01*
X235743750Y-101034850D02*
X239268000Y-97510600D01*
X235743750Y-112871250D02*
X235743750Y-101034850D01*
X203200000Y-114776250D02*
X203676250Y-114776250D01*
X201136250Y-112712500D02*
X203200000Y-114776250D01*
X184150000Y-114776250D02*
X203676250Y-114776250D01*
X222250000Y-114776250D02*
X222567500Y-114776250D01*
X220186250Y-112712500D02*
X222250000Y-114776250D01*
X222567500Y-114776250D02*
X233838750Y-114776250D01*
X203676250Y-114776250D02*
X222567500Y-114776250D01*
X246856250Y-92868750D02*
X249237500Y-90487500D01*
X249237500Y-90487500D02*
X250708960Y-90487500D01*
X251085085Y-68805449D02*
X236470801Y-68805449D01*
X252412500Y-88783960D02*
X252412500Y-70132864D01*
X252412500Y-70132864D02*
X251085085Y-68805449D01*
X250708960Y-90487500D02*
X252412500Y-88783960D01*
X236470801Y-68805449D02*
X235267500Y-70008750D01*
X236470801Y-71345449D02*
X251085085Y-71345449D01*
X245493251Y-91691749D02*
X244316250Y-92868750D01*
X251085085Y-71345449D02*
X251710801Y-71971165D01*
X235267500Y-72548750D02*
X236470801Y-71345449D01*
X247391184Y-91691749D02*
X245493251Y-91691749D01*
X251710801Y-71971165D02*
X251710801Y-88366335D01*
X251710801Y-88366335D02*
X250043646Y-90033490D01*
X249049443Y-90033490D02*
X247391184Y-91691749D01*
X250043646Y-90033490D02*
X249049443Y-90033490D01*
D21*
X212725000Y-81756250D02*
X207168750Y-81756250D01*
X207168750Y-81756250D02*
X203200000Y-85725000D01*
X197643750Y-85725000D02*
X193662500Y-81743750D01*
X203200000Y-85725000D02*
X197643750Y-85725000D01*
X187325000Y-93562848D02*
X187325000Y-97631250D01*
X190487500Y-100793750D02*
X193662500Y-100793750D01*
X187325000Y-97631250D02*
X190487500Y-100793750D01*
X191987848Y-88900000D02*
X187325000Y-93562848D01*
X194468750Y-88900000D02*
X191987848Y-88900000D01*
X212725000Y-86518750D02*
X212725000Y-81756250D01*
X216693750Y-90487500D02*
X212725000Y-86518750D01*
X219868750Y-90487500D02*
X216693750Y-90487500D01*
X212831250Y-100700000D02*
X216800000Y-100700000D01*
X197643750Y-104775000D02*
X193662500Y-100793750D01*
X199231250Y-104775000D02*
X197643750Y-104775000D01*
X248640749Y-93386191D02*
X247917689Y-94109251D01*
X248640749Y-92051309D02*
X248640749Y-93386191D01*
X249410808Y-91281250D02*
X248640749Y-92051309D01*
X250647078Y-91281250D02*
X249410808Y-91281250D01*
X253206250Y-88722078D02*
X250647078Y-91281250D01*
X253206250Y-68262500D02*
X253206250Y-88722078D01*
X252412500Y-67468750D02*
X253206250Y-68262500D01*
X250507500Y-67468750D02*
X252412500Y-67468750D01*
X247917689Y-94109251D02*
X243016751Y-94109251D01*
X243016751Y-94109251D02*
X241776250Y-92868750D01*
X222250000Y-95250000D02*
X216800000Y-100700000D01*
X222250000Y-92868750D02*
X219868750Y-90487500D01*
X222250000Y-95250000D02*
X222250000Y-92868750D01*
X227359599Y-91628249D02*
X224631250Y-94356598D01*
X236090749Y-91628249D02*
X227359599Y-91628249D01*
X224631250Y-94356598D02*
X224631250Y-102393750D01*
X224631250Y-102393750D02*
X222250000Y-104775000D01*
X216906250Y-104775000D02*
X212831250Y-100700000D01*
X222250000Y-104775000D02*
X216906250Y-104775000D01*
X216031250Y-91412500D02*
X215106250Y-90487500D01*
X215106250Y-90487500D02*
X206375000Y-90487500D01*
X205568750Y-91293750D02*
X196862500Y-91293750D01*
X206375000Y-90487500D02*
X205568750Y-91293750D01*
X196862500Y-72243750D02*
X215887500Y-72243750D01*
X215887500Y-72243750D02*
X215887500Y-72243750D01*
X196071999Y-71453249D02*
X196862500Y-72243750D01*
X188118750Y-77369942D02*
X188118750Y-73025000D01*
X189690501Y-71453249D02*
X196071999Y-71453249D01*
X188118750Y-73025000D02*
X189690501Y-71453249D01*
X196862500Y-86113692D02*
X188118750Y-77369942D01*
X196862500Y-91293750D02*
X196862500Y-86113692D01*
X219640052Y-81453698D02*
X219640052Y-75996302D01*
X219640052Y-75996302D02*
X215887500Y-72243750D01*
X216031250Y-85062500D02*
X219640052Y-81453698D01*
X239236250Y-92868750D02*
X241057761Y-94690261D01*
X248745539Y-94690261D02*
X250342400Y-93093400D01*
X241057761Y-94690261D02*
X248745539Y-94690261D01*
X250342400Y-99593400D02*
X250342400Y-93093400D01*
X249240699Y-63655551D02*
X250507500Y-62388750D01*
X249240699Y-65536815D02*
X249240699Y-63655551D01*
X254000000Y-89435800D02*
X254000000Y-67468750D01*
X252726801Y-66195551D02*
X249899435Y-66195551D01*
X254000000Y-67468750D02*
X252726801Y-66195551D01*
X249899435Y-66195551D02*
X249240699Y-65536815D01*
X250342400Y-93093400D02*
X254000000Y-89435800D01*
D20*
X203993750Y-77787500D02*
X203993750Y-74612500D01*
X194389501Y-72970751D02*
X193662500Y-72243750D01*
X202352001Y-72970751D02*
X194389501Y-72970751D01*
X203993750Y-74612500D02*
X202352001Y-72970751D01*
X196862500Y-100793750D02*
X205209751Y-92446499D01*
X205209751Y-92446499D02*
X206003501Y-92446499D01*
X207062500Y-91387500D02*
X212831250Y-91387500D01*
X206003501Y-92446499D02*
X207062500Y-91387500D01*
X250507500Y-64928750D02*
X252253750Y-64928750D01*
X254842400Y-93093400D02*
X254842400Y-99593400D01*
X254842400Y-67517400D02*
X254368300Y-67043300D01*
X254368300Y-67043300D02*
X254531250Y-67206250D01*
X254842400Y-93093400D02*
X254842400Y-67517400D01*
X252253750Y-64928750D02*
X254368300Y-67043300D01*
X253206250Y-92075000D02*
X253206250Y-102393750D01*
X254000000Y-91281250D02*
X253206250Y-92075000D01*
X251618750Y-104775000D02*
X251618750Y-103187500D01*
X251618750Y-103162665D02*
X251618750Y-103187500D01*
X248739010Y-100282925D02*
X251618750Y-103162665D01*
X248739010Y-99717240D02*
X248739010Y-100282925D01*
G36*
X253493919Y-56275425D02*
G01*
X253178169Y-56406213D01*
X252894002Y-56596087D01*
X252652337Y-56837752D01*
X252462463Y-57121919D01*
X252331675Y-57437669D01*
X252265000Y-57772867D01*
X252265000Y-58114633D01*
X252331675Y-58449831D01*
X252462463Y-58765581D01*
X252652337Y-59049748D01*
X252894002Y-59291413D01*
X253178169Y-59481287D01*
X253493919Y-59612075D01*
X253829117Y-59678750D01*
X254170883Y-59678750D01*
X254506081Y-59612075D01*
X254821831Y-59481287D01*
X255105998Y-59291413D01*
X255347663Y-59049748D01*
X255537537Y-58765581D01*
X255668325Y-58449831D01*
X255671251Y-58435121D01*
X255671250Y-91680823D01*
X255616863Y-91644482D01*
X255604400Y-91639320D01*
X255604400Y-67554823D01*
X255608086Y-67517400D01*
X255604400Y-67479974D01*
X255593374Y-67368022D01*
X255549802Y-67224385D01*
X255486836Y-67106583D01*
X255479045Y-67092007D01*
X255450209Y-67056871D01*
X255383822Y-66975978D01*
X255354741Y-66952112D01*
X254933584Y-66530954D01*
X254933579Y-66530948D01*
X252819034Y-64416404D01*
X252795172Y-64387328D01*
X252679142Y-64292105D01*
X252546765Y-64221348D01*
X252403128Y-64177776D01*
X252291176Y-64166750D01*
X252291173Y-64166750D01*
X252253750Y-64163064D01*
X252216327Y-64166750D01*
X251815973Y-64166750D01*
X251681404Y-63965352D01*
X251470898Y-63754846D01*
X251307691Y-63645795D01*
X251375063Y-63435919D01*
X250507500Y-62568355D01*
X249639937Y-63435919D01*
X249707309Y-63645795D01*
X249544102Y-63754846D01*
X249333596Y-63965352D01*
X249168203Y-64212881D01*
X249054278Y-64487920D01*
X248996200Y-64779900D01*
X248996200Y-65077600D01*
X249054278Y-65369580D01*
X249168203Y-65644619D01*
X249333596Y-65892148D01*
X249544102Y-66102654D01*
X249687920Y-66198750D01*
X249544102Y-66294846D01*
X249333596Y-66505352D01*
X249168203Y-66752881D01*
X249054278Y-67027920D01*
X248996200Y-67319900D01*
X248996200Y-67617600D01*
X249054278Y-67909580D01*
X249109728Y-68043449D01*
X236667924Y-68043449D01*
X236694957Y-67986971D01*
X236768629Y-67698531D01*
X236784613Y-67401259D01*
X236742296Y-67106583D01*
X236643302Y-66825823D01*
X236566429Y-66682004D01*
X236314669Y-66601187D01*
X235447105Y-67468750D01*
X235461248Y-67482892D01*
X235281643Y-67662498D01*
X235267500Y-67648355D01*
X234399937Y-68515919D01*
X234467309Y-68725795D01*
X234304102Y-68834846D01*
X234093596Y-69045352D01*
X233928203Y-69292881D01*
X233814278Y-69567920D01*
X233756200Y-69859900D01*
X233756200Y-70157600D01*
X233814278Y-70449580D01*
X233928203Y-70724619D01*
X234093596Y-70972148D01*
X234304102Y-71182654D01*
X234447920Y-71278750D01*
X234304102Y-71374846D01*
X234093596Y-71585352D01*
X233928203Y-71832881D01*
X233814278Y-72107920D01*
X233756200Y-72399900D01*
X233756200Y-72697600D01*
X233814278Y-72989580D01*
X233928203Y-73264619D01*
X234093596Y-73512148D01*
X234304102Y-73722654D01*
X234447920Y-73818750D01*
X234304102Y-73914846D01*
X234093596Y-74125352D01*
X233928203Y-74372881D01*
X233814278Y-74647920D01*
X233756200Y-74939900D01*
X233756200Y-75237600D01*
X233814278Y-75529580D01*
X233869728Y-75663449D01*
X232251262Y-75663449D01*
X232209325Y-75621512D01*
X232039807Y-75508244D01*
X231851449Y-75430223D01*
X231651490Y-75390449D01*
X231447612Y-75390449D01*
X231247653Y-75430223D01*
X231059295Y-75508244D01*
X230889777Y-75621512D01*
X230745614Y-75765675D01*
X230632346Y-75935193D01*
X230554325Y-76123551D01*
X230514551Y-76323510D01*
X230514551Y-76527388D01*
X230554325Y-76727347D01*
X230632346Y-76915705D01*
X230745614Y-77085223D01*
X230889777Y-77229386D01*
X231059295Y-77342654D01*
X231247653Y-77420675D01*
X231447612Y-77460449D01*
X231651490Y-77460449D01*
X231851449Y-77420675D01*
X232039807Y-77342654D01*
X232209325Y-77229386D01*
X232251262Y-77187449D01*
X233814473Y-77187449D01*
X233814278Y-77187920D01*
X233756200Y-77479900D01*
X233756200Y-77777600D01*
X233814278Y-78069580D01*
X233928203Y-78344619D01*
X234093596Y-78592148D01*
X234304102Y-78802654D01*
X234447920Y-78898750D01*
X234304102Y-78994846D01*
X234093596Y-79205352D01*
X233928203Y-79452881D01*
X233814278Y-79727920D01*
X233756200Y-80019900D01*
X233756200Y-80317600D01*
X233814278Y-80609580D01*
X233928203Y-80884619D01*
X234093596Y-81132148D01*
X234304102Y-81342654D01*
X234447920Y-81438750D01*
X234304102Y-81534846D01*
X234093596Y-81745352D01*
X233928203Y-81992881D01*
X233814278Y-82267920D01*
X233756200Y-82559900D01*
X233756200Y-82857600D01*
X233814278Y-83149580D01*
X233928203Y-83424619D01*
X234093596Y-83672148D01*
X234304102Y-83882654D01*
X234447920Y-83978750D01*
X234304102Y-84074846D01*
X234093596Y-84285352D01*
X233928203Y-84532881D01*
X233814278Y-84807920D01*
X233756200Y-85099900D01*
X233756200Y-85397600D01*
X233814278Y-85689580D01*
X233928203Y-85964619D01*
X234093596Y-86212148D01*
X234304102Y-86422654D01*
X234447920Y-86518750D01*
X234304102Y-86614846D01*
X234093596Y-86825352D01*
X233928203Y-87072881D01*
X233814278Y-87347920D01*
X233756200Y-87639900D01*
X233756200Y-87937600D01*
X233814278Y-88229580D01*
X233928203Y-88504619D01*
X234093596Y-88752148D01*
X234304102Y-88962654D01*
X234551631Y-89128047D01*
X234826670Y-89241972D01*
X235118650Y-89300050D01*
X235416350Y-89300050D01*
X235708330Y-89241972D01*
X235983369Y-89128047D01*
X236230898Y-88962654D01*
X236441404Y-88752148D01*
X236606797Y-88504619D01*
X236720722Y-88229580D01*
X236778800Y-87937600D01*
X236778800Y-87639900D01*
X236720722Y-87347920D01*
X236606797Y-87072881D01*
X236441404Y-86825352D01*
X236230898Y-86614846D01*
X236087080Y-86518750D01*
X236230898Y-86422654D01*
X236441404Y-86212148D01*
X236606797Y-85964619D01*
X236720722Y-85689580D01*
X236778800Y-85397600D01*
X236778800Y-85099900D01*
X236720722Y-84807920D01*
X236606797Y-84532881D01*
X236441404Y-84285352D01*
X236230898Y-84074846D01*
X236087080Y-83978750D01*
X236230898Y-83882654D01*
X236441404Y-83672148D01*
X236606797Y-83424619D01*
X236720722Y-83149580D01*
X236778800Y-82857600D01*
X236778800Y-82559900D01*
X236720722Y-82267920D01*
X236606797Y-81992881D01*
X236441404Y-81745352D01*
X236230898Y-81534846D01*
X236087080Y-81438750D01*
X236230898Y-81342654D01*
X236441404Y-81132148D01*
X236606797Y-80884619D01*
X236720722Y-80609580D01*
X236778800Y-80317600D01*
X236778800Y-80019900D01*
X236720722Y-79727920D01*
X236606797Y-79452881D01*
X236441404Y-79205352D01*
X236230898Y-78994846D01*
X236087080Y-78898750D01*
X236230898Y-78802654D01*
X236441404Y-78592148D01*
X236606797Y-78344619D01*
X236720722Y-78069580D01*
X236778800Y-77777600D01*
X236778800Y-77479900D01*
X236720722Y-77187920D01*
X236720527Y-77187449D01*
X244727671Y-77187449D01*
X249314361Y-81774140D01*
X249168203Y-81992881D01*
X249054278Y-82267920D01*
X248996200Y-82559900D01*
X248996200Y-82857600D01*
X249054278Y-83149580D01*
X249168203Y-83424619D01*
X249333596Y-83672148D01*
X249544102Y-83882654D01*
X249687920Y-83978750D01*
X249544102Y-84074846D01*
X249333596Y-84285352D01*
X249199027Y-84486750D01*
X244509644Y-84486750D01*
X244472221Y-84483064D01*
X244434798Y-84486750D01*
X244434795Y-84486750D01*
X244322843Y-84497776D01*
X244179206Y-84541348D01*
X244117585Y-84574285D01*
X244046828Y-84612105D01*
X244004440Y-84646893D01*
X243930799Y-84707328D01*
X243906937Y-84736404D01*
X237124303Y-91519038D01*
X237085975Y-91326351D01*
X237007954Y-91137993D01*
X236894686Y-90968475D01*
X236750523Y-90824312D01*
X236581005Y-90711044D01*
X236392647Y-90633023D01*
X236192688Y-90593249D01*
X235988810Y-90593249D01*
X235788851Y-90633023D01*
X235600493Y-90711044D01*
X235463246Y-90802749D01*
X227400149Y-90802749D01*
X227359598Y-90798755D01*
X227319048Y-90802749D01*
X227319046Y-90802749D01*
X227197773Y-90814693D01*
X227062070Y-90855858D01*
X227042165Y-90861896D01*
X226898756Y-90938550D01*
X226862293Y-90968475D01*
X226773058Y-91041708D01*
X226747205Y-91073210D01*
X224076216Y-93744200D01*
X224044709Y-93770057D01*
X223975464Y-93854433D01*
X223941551Y-93895756D01*
X223873952Y-94022225D01*
X223864897Y-94039165D01*
X223817694Y-94194773D01*
X223812004Y-94252547D01*
X223801756Y-94356598D01*
X223805750Y-94397149D01*
X223805751Y-102051816D01*
X223398100Y-102459467D01*
X223432500Y-102286529D01*
X223432500Y-101865971D01*
X223350453Y-101453494D01*
X223189512Y-101064948D01*
X222955863Y-100715267D01*
X222658483Y-100417887D01*
X222308802Y-100184238D01*
X221920256Y-100023297D01*
X221507779Y-99941250D01*
X221087221Y-99941250D01*
X220674744Y-100023297D01*
X220286198Y-100184238D01*
X219936517Y-100417887D01*
X219639137Y-100715267D01*
X219405488Y-101064948D01*
X219244547Y-101453494D01*
X219162500Y-101865971D01*
X219162500Y-102286529D01*
X219244547Y-102699006D01*
X219405488Y-103087552D01*
X219639137Y-103437233D01*
X219936517Y-103734613D01*
X220258119Y-103949500D01*
X217248183Y-103949500D01*
X214824182Y-101525500D01*
X216759450Y-101525500D01*
X216800000Y-101529494D01*
X216840550Y-101525500D01*
X216840553Y-101525500D01*
X216961826Y-101513556D01*
X217117434Y-101466353D01*
X217260842Y-101389699D01*
X217386541Y-101286541D01*
X217412398Y-101255034D01*
X222805046Y-95862388D01*
X222836541Y-95836541D01*
X222862389Y-95805045D01*
X222862392Y-95805042D01*
X222939699Y-95710843D01*
X223016353Y-95567434D01*
X223025839Y-95536163D01*
X223063556Y-95411826D01*
X223075500Y-95290553D01*
X223075500Y-95290551D01*
X223079494Y-95250000D01*
X223075500Y-95209450D01*
X223075500Y-92909300D01*
X223079494Y-92868749D01*
X223072761Y-92800385D01*
X223063556Y-92706924D01*
X223016353Y-92551316D01*
X222958648Y-92443358D01*
X222939699Y-92407907D01*
X222869455Y-92322315D01*
X222836541Y-92282209D01*
X222805039Y-92256356D01*
X220481148Y-89932466D01*
X220455291Y-89900959D01*
X220329592Y-89797801D01*
X220186184Y-89721147D01*
X220030576Y-89673944D01*
X219909303Y-89662000D01*
X219909300Y-89662000D01*
X219868750Y-89658006D01*
X219828200Y-89662000D01*
X217035683Y-89662000D01*
X215331211Y-87957528D01*
X217247500Y-87957528D01*
X217247500Y-88254972D01*
X217305529Y-88546701D01*
X217419356Y-88821503D01*
X217584607Y-89068819D01*
X217794931Y-89279143D01*
X218042247Y-89444394D01*
X218317049Y-89558221D01*
X218608778Y-89616250D01*
X218906222Y-89616250D01*
X219197951Y-89558221D01*
X219472753Y-89444394D01*
X219720069Y-89279143D01*
X219930393Y-89068819D01*
X220095644Y-88821503D01*
X220209471Y-88546701D01*
X220267500Y-88254972D01*
X220267500Y-87957528D01*
X220245580Y-87847326D01*
X221208600Y-87847326D01*
X221208600Y-88365174D01*
X221309627Y-88873072D01*
X221507799Y-89351501D01*
X221795500Y-89782076D01*
X222161674Y-90148250D01*
X222592249Y-90435951D01*
X223070678Y-90634123D01*
X223578576Y-90735150D01*
X224096424Y-90735150D01*
X224604322Y-90634123D01*
X225082751Y-90435951D01*
X225513326Y-90148250D01*
X225879500Y-89782076D01*
X226167201Y-89351501D01*
X226365373Y-88873072D01*
X226466400Y-88365174D01*
X226466400Y-87847326D01*
X226365373Y-87339428D01*
X226329792Y-87253529D01*
X226636198Y-87458262D01*
X227024744Y-87619203D01*
X227437221Y-87701250D01*
X227458477Y-87701250D01*
X227407500Y-87957528D01*
X227407500Y-88254972D01*
X227465529Y-88546701D01*
X227579356Y-88821503D01*
X227744607Y-89068819D01*
X227954931Y-89279143D01*
X228202247Y-89444394D01*
X228477049Y-89558221D01*
X228768778Y-89616250D01*
X229066222Y-89616250D01*
X229357951Y-89558221D01*
X229632753Y-89444394D01*
X229880069Y-89279143D01*
X230090393Y-89068819D01*
X230255644Y-88821503D01*
X230369471Y-88546701D01*
X230427500Y-88254972D01*
X230427500Y-87957528D01*
X230369471Y-87665799D01*
X230255644Y-87390997D01*
X230090393Y-87143681D01*
X229880069Y-86933357D01*
X229632753Y-86768106D01*
X229460001Y-86696549D01*
X229539512Y-86577552D01*
X229700453Y-86189006D01*
X229782500Y-85776529D01*
X229782500Y-85355971D01*
X229700453Y-84943494D01*
X229539512Y-84554948D01*
X229305863Y-84205267D01*
X229008483Y-83907887D01*
X228658802Y-83674238D01*
X228270256Y-83513297D01*
X227857779Y-83431250D01*
X227437221Y-83431250D01*
X227024744Y-83513297D01*
X226636198Y-83674238D01*
X226286517Y-83907887D01*
X225989137Y-84205267D01*
X225755488Y-84554948D01*
X225594547Y-84943494D01*
X225512500Y-85355971D01*
X225512500Y-85776529D01*
X225583737Y-86134661D01*
X225513326Y-86064250D01*
X225082751Y-85776549D01*
X224604322Y-85578377D01*
X224096424Y-85477350D01*
X223578576Y-85477350D01*
X223070678Y-85578377D01*
X222592249Y-85776549D01*
X222161674Y-86064250D01*
X221795500Y-86430424D01*
X221507799Y-86860999D01*
X221309627Y-87339428D01*
X221208600Y-87847326D01*
X220245580Y-87847326D01*
X220209471Y-87665799D01*
X220095644Y-87390997D01*
X219930393Y-87143681D01*
X219720069Y-86933357D01*
X219472753Y-86768106D01*
X219197951Y-86654279D01*
X218906222Y-86596250D01*
X218608778Y-86596250D01*
X218317049Y-86654279D01*
X218042247Y-86768106D01*
X217794931Y-86933357D01*
X217584607Y-87143681D01*
X217419356Y-87390997D01*
X217305529Y-87665799D01*
X217247500Y-87957528D01*
X215331211Y-87957528D01*
X213550500Y-86176818D01*
X213550500Y-82815971D01*
X219162500Y-82815971D01*
X219162500Y-83236529D01*
X219244547Y-83649006D01*
X219405488Y-84037552D01*
X219639137Y-84387233D01*
X219936517Y-84684613D01*
X220286198Y-84918262D01*
X220674744Y-85079203D01*
X221087221Y-85161250D01*
X221507779Y-85161250D01*
X221920256Y-85079203D01*
X222308802Y-84918262D01*
X222658483Y-84684613D01*
X222955863Y-84387233D01*
X223189512Y-84037552D01*
X223350453Y-83649006D01*
X223432500Y-83236529D01*
X223432500Y-82815971D01*
X223350453Y-82403494D01*
X223189512Y-82014948D01*
X222955863Y-81665267D01*
X222658483Y-81367887D01*
X222308802Y-81134238D01*
X221920256Y-80973297D01*
X221507779Y-80891250D01*
X221087221Y-80891250D01*
X220674744Y-80973297D01*
X220286198Y-81134238D01*
X219936517Y-81367887D01*
X219639137Y-81665267D01*
X219405488Y-82014948D01*
X219244547Y-82403494D01*
X219162500Y-82815971D01*
X213550500Y-82815971D01*
X213550500Y-82383753D01*
X213642205Y-82246506D01*
X213720226Y-82058148D01*
X213760000Y-81858189D01*
X213760000Y-81654311D01*
X213755028Y-81629311D01*
X214890000Y-81629311D01*
X214890000Y-81833189D01*
X214929774Y-82033148D01*
X215007795Y-82221506D01*
X215121063Y-82391024D01*
X215265226Y-82535187D01*
X215434744Y-82648455D01*
X215623102Y-82726476D01*
X215823061Y-82766250D01*
X216026939Y-82766250D01*
X216226898Y-82726476D01*
X216415256Y-82648455D01*
X216584774Y-82535187D01*
X216728937Y-82391024D01*
X216842205Y-82221506D01*
X216920226Y-82033148D01*
X216960000Y-81833189D01*
X216960000Y-81629311D01*
X216920226Y-81429352D01*
X216842205Y-81240994D01*
X216728937Y-81071476D01*
X216584774Y-80927313D01*
X216415256Y-80814045D01*
X216226898Y-80736024D01*
X216026939Y-80696250D01*
X215823061Y-80696250D01*
X215623102Y-80736024D01*
X215434744Y-80814045D01*
X215265226Y-80927313D01*
X215121063Y-81071476D01*
X215007795Y-81240994D01*
X214929774Y-81429352D01*
X214890000Y-81629311D01*
X213755028Y-81629311D01*
X213720226Y-81454352D01*
X213642205Y-81265994D01*
X213528937Y-81096476D01*
X213384774Y-80952313D01*
X213215256Y-80839045D01*
X213026898Y-80761024D01*
X212826939Y-80721250D01*
X212623061Y-80721250D01*
X212423102Y-80761024D01*
X212234744Y-80839045D01*
X212097497Y-80930750D01*
X207209300Y-80930750D01*
X207168749Y-80926756D01*
X207128199Y-80930750D01*
X207128197Y-80930750D01*
X207006924Y-80942694D01*
X206851316Y-80989897D01*
X206707907Y-81066551D01*
X206686675Y-81083976D01*
X206582209Y-81169709D01*
X206556357Y-81201211D01*
X204348100Y-83409467D01*
X204382500Y-83236529D01*
X204382500Y-82815971D01*
X204300453Y-82403494D01*
X204139512Y-82014948D01*
X203905863Y-81665267D01*
X203608483Y-81367887D01*
X203258802Y-81134238D01*
X202870256Y-80973297D01*
X202457779Y-80891250D01*
X202037221Y-80891250D01*
X201624744Y-80973297D01*
X201236198Y-81134238D01*
X200886517Y-81367887D01*
X200589137Y-81665267D01*
X200355488Y-82014948D01*
X200194547Y-82403494D01*
X200112500Y-82815971D01*
X200112500Y-83236529D01*
X200194547Y-83649006D01*
X200355488Y-84037552D01*
X200589137Y-84387233D01*
X200886517Y-84684613D01*
X201208119Y-84899500D01*
X197985684Y-84899500D01*
X194727995Y-81641811D01*
X195827500Y-81641811D01*
X195827500Y-81845689D01*
X195867274Y-82045648D01*
X195945295Y-82234006D01*
X196058563Y-82403524D01*
X196202726Y-82547687D01*
X196372244Y-82660955D01*
X196560602Y-82738976D01*
X196760561Y-82778750D01*
X196964439Y-82778750D01*
X197164398Y-82738976D01*
X197352756Y-82660955D01*
X197522274Y-82547687D01*
X197666437Y-82403524D01*
X197779705Y-82234006D01*
X197857726Y-82045648D01*
X197897500Y-81845689D01*
X197897500Y-81641811D01*
X197857726Y-81441852D01*
X197779705Y-81253494D01*
X197666437Y-81083976D01*
X197522274Y-80939813D01*
X197352756Y-80826545D01*
X197164398Y-80748524D01*
X196964439Y-80708750D01*
X196760561Y-80708750D01*
X196560602Y-80748524D01*
X196372244Y-80826545D01*
X196202726Y-80939813D01*
X196058563Y-81083976D01*
X195945295Y-81253494D01*
X195867274Y-81441852D01*
X195827500Y-81641811D01*
X194727995Y-81641811D01*
X194689929Y-81603746D01*
X194657726Y-81441852D01*
X194579705Y-81253494D01*
X194466437Y-81083976D01*
X194322274Y-80939813D01*
X194152756Y-80826545D01*
X193964398Y-80748524D01*
X193764439Y-80708750D01*
X193560561Y-80708750D01*
X193360602Y-80748524D01*
X193172244Y-80826545D01*
X193002726Y-80939813D01*
X192858563Y-81083976D01*
X192745295Y-81253494D01*
X192667274Y-81441852D01*
X192627500Y-81641811D01*
X192627500Y-81845689D01*
X192667274Y-82045648D01*
X192745295Y-82234006D01*
X192858563Y-82403524D01*
X193002726Y-82547687D01*
X193172244Y-82660955D01*
X193360602Y-82738976D01*
X193522496Y-82771179D01*
X197031361Y-86280045D01*
X197057209Y-86311541D01*
X197088705Y-86337389D01*
X197088708Y-86337392D01*
X197182907Y-86414699D01*
X197247927Y-86449453D01*
X197326316Y-86491353D01*
X197481924Y-86538556D01*
X197603197Y-86550500D01*
X197603199Y-86550500D01*
X197643750Y-86554494D01*
X197684300Y-86550500D01*
X202665268Y-86550500D01*
X202457799Y-86860999D01*
X202259627Y-87339428D01*
X202158600Y-87847326D01*
X202158600Y-88365174D01*
X202259627Y-88873072D01*
X202457799Y-89351501D01*
X202745500Y-89782076D01*
X203111674Y-90148250D01*
X203542249Y-90435951D01*
X204020678Y-90634123D01*
X204528576Y-90735150D01*
X205046424Y-90735150D01*
X205554322Y-90634123D01*
X206032751Y-90435951D01*
X206463326Y-90148250D01*
X206829500Y-89782076D01*
X207117201Y-89351501D01*
X207315373Y-88873072D01*
X207416400Y-88365174D01*
X207416400Y-87847326D01*
X207315373Y-87339428D01*
X207279792Y-87253529D01*
X207586198Y-87458262D01*
X207974744Y-87619203D01*
X208387221Y-87701250D01*
X208408477Y-87701250D01*
X208357500Y-87957528D01*
X208357500Y-88254972D01*
X208415529Y-88546701D01*
X208529356Y-88821503D01*
X208694607Y-89068819D01*
X208904931Y-89279143D01*
X209152247Y-89444394D01*
X209427049Y-89558221D01*
X209718778Y-89616250D01*
X210016222Y-89616250D01*
X210307951Y-89558221D01*
X210582753Y-89444394D01*
X210830069Y-89279143D01*
X211040393Y-89068819D01*
X211205644Y-88821503D01*
X211319471Y-88546701D01*
X211377500Y-88254972D01*
X211377500Y-87957528D01*
X211319471Y-87665799D01*
X211205644Y-87390997D01*
X211040393Y-87143681D01*
X210830069Y-86933357D01*
X210582753Y-86768106D01*
X210410001Y-86696549D01*
X210489512Y-86577552D01*
X210650453Y-86189006D01*
X210732500Y-85776529D01*
X210732500Y-85355971D01*
X210650453Y-84943494D01*
X210489512Y-84554948D01*
X210255863Y-84205267D01*
X209958483Y-83907887D01*
X209608802Y-83674238D01*
X209220256Y-83513297D01*
X208807779Y-83431250D01*
X208387221Y-83431250D01*
X207974744Y-83513297D01*
X207586198Y-83674238D01*
X207236517Y-83907887D01*
X206939137Y-84205267D01*
X206705488Y-84554948D01*
X206544547Y-84943494D01*
X206462500Y-85355971D01*
X206462500Y-85776529D01*
X206533737Y-86134661D01*
X206463326Y-86064250D01*
X206032751Y-85776549D01*
X205554322Y-85578377D01*
X205046424Y-85477350D01*
X204615082Y-85477350D01*
X207510683Y-82581750D01*
X211899501Y-82581750D01*
X211899500Y-86478199D01*
X211895506Y-86518750D01*
X211899500Y-86559300D01*
X211899500Y-86559302D01*
X211911444Y-86680575D01*
X211958647Y-86836183D01*
X212035301Y-86979592D01*
X212069214Y-87020915D01*
X212138459Y-87105291D01*
X212169966Y-87131148D01*
X216081357Y-91042539D01*
X216107209Y-91074041D01*
X216162509Y-91119424D01*
X216232907Y-91177199D01*
X216347542Y-91238473D01*
X216376316Y-91253853D01*
X216531924Y-91301056D01*
X216653197Y-91313000D01*
X216653199Y-91313000D01*
X216693749Y-91316994D01*
X216734300Y-91313000D01*
X219526818Y-91313000D01*
X220356282Y-92142465D01*
X220336351Y-92138500D01*
X220036149Y-92138500D01*
X219741716Y-92197066D01*
X219464365Y-92311949D01*
X219214757Y-92478732D01*
X219002482Y-92691007D01*
X218835699Y-92940615D01*
X218720816Y-93217966D01*
X218662250Y-93512399D01*
X218662250Y-93812601D01*
X218720816Y-94107034D01*
X218835699Y-94384385D01*
X219002482Y-94633993D01*
X219098035Y-94729546D01*
X219090602Y-94731024D01*
X218902244Y-94809045D01*
X218732726Y-94922313D01*
X218690789Y-94964250D01*
X210569211Y-94964250D01*
X210527274Y-94922313D01*
X210357756Y-94809045D01*
X210244881Y-94762290D01*
X210271062Y-94675982D01*
X210283322Y-94551500D01*
X210283322Y-92773500D01*
X210271062Y-92649018D01*
X210234752Y-92529320D01*
X210175787Y-92419006D01*
X210096435Y-92322315D01*
X209999744Y-92242963D01*
X209889430Y-92183998D01*
X209775705Y-92149500D01*
X212129539Y-92149500D01*
X212171476Y-92191437D01*
X212340994Y-92304705D01*
X212529352Y-92382726D01*
X212729311Y-92422500D01*
X212933189Y-92422500D01*
X213133148Y-92382726D01*
X213321506Y-92304705D01*
X213491024Y-92191437D01*
X213635187Y-92047274D01*
X213748455Y-91877756D01*
X213826476Y-91689398D01*
X213866250Y-91489439D01*
X213866250Y-91285561D01*
X213826476Y-91085602D01*
X213748455Y-90897244D01*
X213635187Y-90727726D01*
X213491024Y-90583563D01*
X213321506Y-90470295D01*
X213133148Y-90392274D01*
X212933189Y-90352500D01*
X212729311Y-90352500D01*
X212529352Y-90392274D01*
X212340994Y-90470295D01*
X212171476Y-90583563D01*
X212129539Y-90625500D01*
X207099923Y-90625500D01*
X207062500Y-90621814D01*
X207025077Y-90625500D01*
X207025074Y-90625500D01*
X206913122Y-90636526D01*
X206769485Y-90680098D01*
X206742150Y-90694709D01*
X206637107Y-90750855D01*
X206571212Y-90804934D01*
X206521078Y-90846078D01*
X206497221Y-90875149D01*
X205687871Y-91684499D01*
X205247174Y-91684499D01*
X205209751Y-91680813D01*
X205172328Y-91684499D01*
X205172325Y-91684499D01*
X205060373Y-91695525D01*
X204916736Y-91739097D01*
X204873201Y-91762367D01*
X204784358Y-91809854D01*
X204746251Y-91841128D01*
X204668329Y-91905077D01*
X204644467Y-91934153D01*
X202633987Y-93944633D01*
X202660250Y-93812601D01*
X202660250Y-93512399D01*
X202601684Y-93217966D01*
X202486801Y-92940615D01*
X202320018Y-92691007D01*
X202107743Y-92478732D01*
X201858135Y-92311949D01*
X201580784Y-92197066D01*
X201286351Y-92138500D01*
X200986149Y-92138500D01*
X200691716Y-92197066D01*
X200414365Y-92311949D01*
X200164757Y-92478732D01*
X199952482Y-92691007D01*
X199785699Y-92940615D01*
X199670816Y-93217966D01*
X199612250Y-93512399D01*
X199612250Y-93812601D01*
X199670816Y-94107034D01*
X199785699Y-94384385D01*
X199952482Y-94633993D01*
X200048035Y-94729546D01*
X200040602Y-94731024D01*
X199852244Y-94809045D01*
X199682726Y-94922313D01*
X199640789Y-94964250D01*
X191519211Y-94964250D01*
X191477274Y-94922313D01*
X191307756Y-94809045D01*
X191194881Y-94762290D01*
X191221062Y-94675982D01*
X191233322Y-94551500D01*
X191233322Y-92773500D01*
X191221062Y-92649018D01*
X191184752Y-92529320D01*
X191125787Y-92419006D01*
X191046435Y-92322315D01*
X190949744Y-92242963D01*
X190839430Y-92183998D01*
X190719732Y-92147688D01*
X190595250Y-92135428D01*
X189919853Y-92135428D01*
X190863470Y-91191811D01*
X192627500Y-91191811D01*
X192627500Y-91395689D01*
X192667274Y-91595648D01*
X192745295Y-91784006D01*
X192858563Y-91953524D01*
X193002726Y-92097687D01*
X193172244Y-92210955D01*
X193360602Y-92288976D01*
X193560561Y-92328750D01*
X193764439Y-92328750D01*
X193964398Y-92288976D01*
X194152756Y-92210955D01*
X194322274Y-92097687D01*
X194466437Y-91953524D01*
X194579705Y-91784006D01*
X194657726Y-91595648D01*
X194697500Y-91395689D01*
X194697500Y-91191811D01*
X194657726Y-90991852D01*
X194579705Y-90803494D01*
X194466437Y-90633976D01*
X194322274Y-90489813D01*
X194152756Y-90376545D01*
X193964398Y-90298524D01*
X193764439Y-90258750D01*
X193560561Y-90258750D01*
X193360602Y-90298524D01*
X193172244Y-90376545D01*
X193002726Y-90489813D01*
X192858563Y-90633976D01*
X192745295Y-90803494D01*
X192667274Y-90991852D01*
X192627500Y-91191811D01*
X190863470Y-91191811D01*
X192329782Y-89725500D01*
X193841247Y-89725500D01*
X193978494Y-89817205D01*
X194166852Y-89895226D01*
X194366811Y-89935000D01*
X194570689Y-89935000D01*
X194770648Y-89895226D01*
X194959006Y-89817205D01*
X195128524Y-89703937D01*
X195272687Y-89559774D01*
X195385955Y-89390256D01*
X195463976Y-89201898D01*
X195503750Y-89001939D01*
X195503750Y-88798061D01*
X195463976Y-88598102D01*
X195385955Y-88409744D01*
X195272687Y-88240226D01*
X195128524Y-88096063D01*
X194959006Y-87982795D01*
X194898007Y-87957528D01*
X198197500Y-87957528D01*
X198197500Y-88254972D01*
X198255529Y-88546701D01*
X198369356Y-88821503D01*
X198534607Y-89068819D01*
X198744931Y-89279143D01*
X198992247Y-89444394D01*
X199267049Y-89558221D01*
X199558778Y-89616250D01*
X199856222Y-89616250D01*
X200147951Y-89558221D01*
X200422753Y-89444394D01*
X200670069Y-89279143D01*
X200880393Y-89068819D01*
X201045644Y-88821503D01*
X201159471Y-88546701D01*
X201217500Y-88254972D01*
X201217500Y-87957528D01*
X201159471Y-87665799D01*
X201045644Y-87390997D01*
X200880393Y-87143681D01*
X200670069Y-86933357D01*
X200422753Y-86768106D01*
X200147951Y-86654279D01*
X199856222Y-86596250D01*
X199558778Y-86596250D01*
X199267049Y-86654279D01*
X198992247Y-86768106D01*
X198744931Y-86933357D01*
X198534607Y-87143681D01*
X198369356Y-87390997D01*
X198255529Y-87665799D01*
X198197500Y-87957528D01*
X194898007Y-87957528D01*
X194770648Y-87904774D01*
X194570689Y-87865000D01*
X194366811Y-87865000D01*
X194166852Y-87904774D01*
X193978494Y-87982795D01*
X193841247Y-88074500D01*
X192327500Y-88074500D01*
X192327500Y-87957528D01*
X192269471Y-87665799D01*
X192155644Y-87390997D01*
X191990393Y-87143681D01*
X191780069Y-86933357D01*
X191532753Y-86768106D01*
X191360001Y-86696549D01*
X191439512Y-86577552D01*
X191600453Y-86189006D01*
X191682500Y-85776529D01*
X191682500Y-85355971D01*
X191600453Y-84943494D01*
X191439512Y-84554948D01*
X191205863Y-84205267D01*
X190908483Y-83907887D01*
X190558802Y-83674238D01*
X190170256Y-83513297D01*
X189757779Y-83431250D01*
X189337221Y-83431250D01*
X188924744Y-83513297D01*
X188536198Y-83674238D01*
X188186517Y-83907887D01*
X187889137Y-84205267D01*
X187655488Y-84554948D01*
X187494547Y-84943494D01*
X187412500Y-85355971D01*
X187412500Y-85776529D01*
X187483737Y-86134661D01*
X187413326Y-86064250D01*
X186982751Y-85776549D01*
X186504322Y-85578377D01*
X185996424Y-85477350D01*
X185478576Y-85477350D01*
X184970678Y-85578377D01*
X184492249Y-85776549D01*
X184061674Y-86064250D01*
X183695500Y-86430424D01*
X183407799Y-86860999D01*
X183209627Y-87339428D01*
X183108600Y-87847326D01*
X183108600Y-88365174D01*
X183209627Y-88873072D01*
X183407799Y-89351501D01*
X183695500Y-89782076D01*
X184061674Y-90148250D01*
X184492249Y-90435951D01*
X184970678Y-90634123D01*
X185478576Y-90735150D01*
X185996424Y-90735150D01*
X186504322Y-90634123D01*
X186982751Y-90435951D01*
X187413326Y-90148250D01*
X187779500Y-89782076D01*
X188067201Y-89351501D01*
X188265373Y-88873072D01*
X188366400Y-88365174D01*
X188366400Y-87847326D01*
X188265373Y-87339428D01*
X188229792Y-87253529D01*
X188536198Y-87458262D01*
X188924744Y-87619203D01*
X189337221Y-87701250D01*
X189358477Y-87701250D01*
X189307500Y-87957528D01*
X189307500Y-88254972D01*
X189365529Y-88546701D01*
X189479356Y-88821503D01*
X189644607Y-89068819D01*
X189854931Y-89279143D01*
X190102247Y-89444394D01*
X190225123Y-89495291D01*
X186769966Y-92950450D01*
X186738459Y-92976307D01*
X186673079Y-93055974D01*
X186635301Y-93102006D01*
X186560057Y-93242777D01*
X186558647Y-93245415D01*
X186511444Y-93401023D01*
X186501696Y-93500002D01*
X186495506Y-93562848D01*
X186499500Y-93603399D01*
X186499501Y-97590690D01*
X186495506Y-97631250D01*
X186511445Y-97793076D01*
X186558647Y-97948683D01*
X186635301Y-98092092D01*
X186642288Y-98100605D01*
X186738460Y-98217791D01*
X186769961Y-98243643D01*
X189875106Y-101348789D01*
X189900959Y-101380291D01*
X190026658Y-101483449D01*
X190170066Y-101560103D01*
X190325674Y-101607306D01*
X190446947Y-101619250D01*
X190446956Y-101619250D01*
X190487499Y-101623243D01*
X190528042Y-101619250D01*
X193034997Y-101619250D01*
X193172244Y-101710955D01*
X193360602Y-101788976D01*
X193522496Y-101821179D01*
X197031361Y-105330045D01*
X197057209Y-105361541D01*
X197088705Y-105387389D01*
X197088708Y-105387392D01*
X197182907Y-105464699D01*
X197297544Y-105525974D01*
X197326316Y-105541353D01*
X197481924Y-105588556D01*
X197603197Y-105600500D01*
X197603199Y-105600500D01*
X197643750Y-105604494D01*
X197684300Y-105600500D01*
X198603747Y-105600500D01*
X198740994Y-105692205D01*
X198929352Y-105770226D01*
X199049934Y-105794211D01*
X198992247Y-105818106D01*
X198744931Y-105983357D01*
X198534607Y-106193681D01*
X198369356Y-106440997D01*
X198255529Y-106715799D01*
X198197500Y-107007528D01*
X198197500Y-107304972D01*
X198255529Y-107596701D01*
X198369356Y-107871503D01*
X198534607Y-108118819D01*
X198744931Y-108329143D01*
X198992247Y-108494394D01*
X199267049Y-108608221D01*
X199558778Y-108666250D01*
X199856222Y-108666250D01*
X200147951Y-108608221D01*
X200422753Y-108494394D01*
X200670069Y-108329143D01*
X200880393Y-108118819D01*
X201045644Y-107871503D01*
X201159471Y-107596701D01*
X201217500Y-107304972D01*
X201217500Y-107007528D01*
X201195580Y-106897326D01*
X202158600Y-106897326D01*
X202158600Y-107415174D01*
X202259627Y-107923072D01*
X202457799Y-108401501D01*
X202745500Y-108832076D01*
X203111674Y-109198250D01*
X203542249Y-109485951D01*
X204020678Y-109684123D01*
X204528576Y-109785150D01*
X205046424Y-109785150D01*
X205554322Y-109684123D01*
X206032751Y-109485951D01*
X206463326Y-109198250D01*
X206829500Y-108832076D01*
X207117201Y-108401501D01*
X207315373Y-107923072D01*
X207416400Y-107415174D01*
X207416400Y-106897326D01*
X207315373Y-106389428D01*
X207279792Y-106303529D01*
X207586198Y-106508262D01*
X207974744Y-106669203D01*
X208387221Y-106751250D01*
X208408477Y-106751250D01*
X208357500Y-107007528D01*
X208357500Y-107304972D01*
X208415529Y-107596701D01*
X208529356Y-107871503D01*
X208694607Y-108118819D01*
X208904931Y-108329143D01*
X209152247Y-108494394D01*
X209427049Y-108608221D01*
X209718778Y-108666250D01*
X210016222Y-108666250D01*
X210307951Y-108608221D01*
X210582753Y-108494394D01*
X210830069Y-108329143D01*
X211040393Y-108118819D01*
X211205644Y-107871503D01*
X211319471Y-107596701D01*
X211377500Y-107304972D01*
X211377500Y-107007528D01*
X217247500Y-107007528D01*
X217247500Y-107304972D01*
X217305529Y-107596701D01*
X217419356Y-107871503D01*
X217584607Y-108118819D01*
X217794931Y-108329143D01*
X218042247Y-108494394D01*
X218317049Y-108608221D01*
X218608778Y-108666250D01*
X218906222Y-108666250D01*
X219197951Y-108608221D01*
X219472753Y-108494394D01*
X219720069Y-108329143D01*
X219930393Y-108118819D01*
X220095644Y-107871503D01*
X220209471Y-107596701D01*
X220267500Y-107304972D01*
X220267500Y-107007528D01*
X220209471Y-106715799D01*
X220095644Y-106440997D01*
X219930393Y-106193681D01*
X219720069Y-105983357D01*
X219472753Y-105818106D01*
X219197951Y-105704279D01*
X218906222Y-105646250D01*
X218608778Y-105646250D01*
X218317049Y-105704279D01*
X218042247Y-105818106D01*
X217794931Y-105983357D01*
X217584607Y-106193681D01*
X217419356Y-106440997D01*
X217305529Y-106715799D01*
X217247500Y-107007528D01*
X211377500Y-107007528D01*
X211319471Y-106715799D01*
X211205644Y-106440997D01*
X211040393Y-106193681D01*
X210830069Y-105983357D01*
X210582753Y-105818106D01*
X210410001Y-105746549D01*
X210489512Y-105627552D01*
X210650453Y-105239006D01*
X210732500Y-104826529D01*
X210732500Y-104405971D01*
X210650453Y-103993494D01*
X210489512Y-103604948D01*
X210255863Y-103255267D01*
X209958483Y-102957887D01*
X209608802Y-102724238D01*
X209220256Y-102563297D01*
X208807779Y-102481250D01*
X208387221Y-102481250D01*
X207974744Y-102563297D01*
X207586198Y-102724238D01*
X207236517Y-102957887D01*
X206939137Y-103255267D01*
X206705488Y-103604948D01*
X206544547Y-103993494D01*
X206462500Y-104405971D01*
X206462500Y-104826529D01*
X206533737Y-105184661D01*
X206463326Y-105114250D01*
X206032751Y-104826549D01*
X205554322Y-104628377D01*
X205046424Y-104527350D01*
X204528576Y-104527350D01*
X204020678Y-104628377D01*
X203542249Y-104826549D01*
X203111674Y-105114250D01*
X202745500Y-105480424D01*
X202457799Y-105910999D01*
X202259627Y-106389428D01*
X202158600Y-106897326D01*
X201195580Y-106897326D01*
X201159471Y-106715799D01*
X201045644Y-106440997D01*
X200880393Y-106193681D01*
X200670069Y-105983357D01*
X200422753Y-105818106D01*
X200147951Y-105704279D01*
X199856222Y-105646250D01*
X199790283Y-105646250D01*
X199891024Y-105578937D01*
X200035187Y-105434774D01*
X200148455Y-105265256D01*
X200226476Y-105076898D01*
X200266250Y-104876939D01*
X200266250Y-104673061D01*
X200226476Y-104473102D01*
X200148455Y-104284744D01*
X200035187Y-104115226D01*
X199891024Y-103971063D01*
X199721506Y-103857795D01*
X199533148Y-103779774D01*
X199333189Y-103740000D01*
X199129311Y-103740000D01*
X198929352Y-103779774D01*
X198740994Y-103857795D01*
X198603747Y-103949500D01*
X197985684Y-103949500D01*
X195902155Y-101865971D01*
X200112500Y-101865971D01*
X200112500Y-102286529D01*
X200194547Y-102699006D01*
X200355488Y-103087552D01*
X200589137Y-103437233D01*
X200886517Y-103734613D01*
X201236198Y-103968262D01*
X201624744Y-104129203D01*
X202037221Y-104211250D01*
X202457779Y-104211250D01*
X202870256Y-104129203D01*
X203258802Y-103968262D01*
X203608483Y-103734613D01*
X203905863Y-103437233D01*
X204139512Y-103087552D01*
X204300453Y-102699006D01*
X204382500Y-102286529D01*
X204382500Y-101865971D01*
X204300453Y-101453494D01*
X204139512Y-101064948D01*
X203905863Y-100715267D01*
X203608483Y-100417887D01*
X203258802Y-100184238D01*
X202870256Y-100023297D01*
X202457779Y-99941250D01*
X202037221Y-99941250D01*
X201624744Y-100023297D01*
X201236198Y-100184238D01*
X200886517Y-100417887D01*
X200589137Y-100715267D01*
X200355488Y-101064948D01*
X200194547Y-101453494D01*
X200112500Y-101865971D01*
X195902155Y-101865971D01*
X194689929Y-100653746D01*
X194657726Y-100491852D01*
X194579705Y-100303494D01*
X194466437Y-100133976D01*
X194322274Y-99989813D01*
X194152756Y-99876545D01*
X193964398Y-99798524D01*
X193764439Y-99758750D01*
X193560561Y-99758750D01*
X193360602Y-99798524D01*
X193172244Y-99876545D01*
X193034997Y-99968250D01*
X190829433Y-99968250D01*
X188150500Y-97289318D01*
X188150500Y-93904780D01*
X188179178Y-93876102D01*
X188179178Y-94551500D01*
X188191438Y-94675982D01*
X188227748Y-94795680D01*
X188286713Y-94905994D01*
X188366065Y-95002685D01*
X188462756Y-95082037D01*
X188573070Y-95141002D01*
X188692768Y-95177312D01*
X188817250Y-95189572D01*
X189931313Y-95189572D01*
X189900295Y-95235994D01*
X189822274Y-95424352D01*
X189782500Y-95624311D01*
X189782500Y-95828189D01*
X189822274Y-96028148D01*
X189900295Y-96216506D01*
X190013563Y-96386024D01*
X190157726Y-96530187D01*
X190327244Y-96643455D01*
X190515602Y-96721476D01*
X190715561Y-96761250D01*
X190919439Y-96761250D01*
X191119398Y-96721476D01*
X191307756Y-96643455D01*
X191477274Y-96530187D01*
X191519211Y-96488250D01*
X199640789Y-96488250D01*
X199682726Y-96530187D01*
X199852244Y-96643455D01*
X199910878Y-96667742D01*
X196819870Y-99758750D01*
X196760561Y-99758750D01*
X196560602Y-99798524D01*
X196372244Y-99876545D01*
X196202726Y-99989813D01*
X196058563Y-100133976D01*
X195945295Y-100303494D01*
X195867274Y-100491852D01*
X195827500Y-100691811D01*
X195827500Y-100895689D01*
X195867274Y-101095648D01*
X195945295Y-101284006D01*
X196058563Y-101453524D01*
X196202726Y-101597687D01*
X196372244Y-101710955D01*
X196560602Y-101788976D01*
X196760561Y-101828750D01*
X196964439Y-101828750D01*
X197164398Y-101788976D01*
X197352756Y-101710955D01*
X197522274Y-101597687D01*
X197666437Y-101453524D01*
X197779705Y-101284006D01*
X197857726Y-101095648D01*
X197897500Y-100895689D01*
X197897500Y-100836380D01*
X205525381Y-93208499D01*
X205966078Y-93208499D01*
X206003501Y-93212185D01*
X206040924Y-93208499D01*
X206040927Y-93208499D01*
X206152879Y-93197473D01*
X206296516Y-93153901D01*
X206428893Y-93083144D01*
X206544923Y-92987921D01*
X206568785Y-92958845D01*
X207378131Y-92149500D01*
X207736795Y-92149500D01*
X207623070Y-92183998D01*
X207512756Y-92242963D01*
X207416065Y-92322315D01*
X207336713Y-92419006D01*
X207277748Y-92529320D01*
X207241438Y-92649018D01*
X207229178Y-92773500D01*
X207229178Y-94551500D01*
X207241438Y-94675982D01*
X207277748Y-94795680D01*
X207336713Y-94905994D01*
X207416065Y-95002685D01*
X207512756Y-95082037D01*
X207623070Y-95141002D01*
X207742768Y-95177312D01*
X207867250Y-95189572D01*
X208981313Y-95189572D01*
X208950295Y-95235994D01*
X208872274Y-95424352D01*
X208832500Y-95624311D01*
X208832500Y-95828189D01*
X208872274Y-96028148D01*
X208950295Y-96216506D01*
X209063563Y-96386024D01*
X209207726Y-96530187D01*
X209377244Y-96643455D01*
X209565602Y-96721476D01*
X209765561Y-96761250D01*
X209969439Y-96761250D01*
X210169398Y-96721476D01*
X210357756Y-96643455D01*
X210527274Y-96530187D01*
X210569211Y-96488250D01*
X218690789Y-96488250D01*
X218732726Y-96530187D01*
X218902244Y-96643455D01*
X219090602Y-96721476D01*
X219290561Y-96761250D01*
X219494439Y-96761250D01*
X219590406Y-96742161D01*
X216458068Y-99874500D01*
X213458753Y-99874500D01*
X213321506Y-99782795D01*
X213133148Y-99704774D01*
X212933189Y-99665000D01*
X212729311Y-99665000D01*
X212529352Y-99704774D01*
X212340994Y-99782795D01*
X212171476Y-99896063D01*
X212027313Y-100040226D01*
X211914045Y-100209744D01*
X211836024Y-100398102D01*
X211796250Y-100598061D01*
X211796250Y-100801939D01*
X211836024Y-101001898D01*
X211914045Y-101190256D01*
X212027313Y-101359774D01*
X212171476Y-101503937D01*
X212340994Y-101617205D01*
X212529352Y-101695226D01*
X212691246Y-101727429D01*
X216293857Y-105330039D01*
X216319709Y-105361541D01*
X216351209Y-105387392D01*
X216445407Y-105464699D01*
X216495361Y-105491399D01*
X216588816Y-105541353D01*
X216744424Y-105588556D01*
X216865697Y-105600500D01*
X216865699Y-105600500D01*
X216906249Y-105604494D01*
X216946800Y-105600500D01*
X221715268Y-105600500D01*
X221507799Y-105910999D01*
X221309627Y-106389428D01*
X221208600Y-106897326D01*
X221208600Y-107415174D01*
X221309627Y-107923072D01*
X221507799Y-108401501D01*
X221795500Y-108832076D01*
X222161674Y-109198250D01*
X222592249Y-109485951D01*
X223070678Y-109684123D01*
X223578576Y-109785150D01*
X224096424Y-109785150D01*
X224604322Y-109684123D01*
X225082751Y-109485951D01*
X225513326Y-109198250D01*
X225879500Y-108832076D01*
X226167201Y-108401501D01*
X226365373Y-107923072D01*
X226466400Y-107415174D01*
X226466400Y-106897326D01*
X226365373Y-106389428D01*
X226329792Y-106303529D01*
X226636198Y-106508262D01*
X227024744Y-106669203D01*
X227437221Y-106751250D01*
X227458477Y-106751250D01*
X227407500Y-107007528D01*
X227407500Y-107304972D01*
X227465529Y-107596701D01*
X227579356Y-107871503D01*
X227744607Y-108118819D01*
X227954931Y-108329143D01*
X228202247Y-108494394D01*
X228477049Y-108608221D01*
X228768778Y-108666250D01*
X229066222Y-108666250D01*
X229357951Y-108608221D01*
X229632753Y-108494394D01*
X229880069Y-108329143D01*
X230090393Y-108118819D01*
X230255644Y-107871503D01*
X230369471Y-107596701D01*
X230427500Y-107304972D01*
X230427500Y-107007528D01*
X230369471Y-106715799D01*
X230255644Y-106440997D01*
X230090393Y-106193681D01*
X229880069Y-105983357D01*
X229632753Y-105818106D01*
X229460001Y-105746549D01*
X229539512Y-105627552D01*
X229700453Y-105239006D01*
X229782500Y-104826529D01*
X229782500Y-104405971D01*
X229700453Y-103993494D01*
X229539512Y-103604948D01*
X229305863Y-103255267D01*
X229008483Y-102957887D01*
X228658802Y-102724238D01*
X228270256Y-102563297D01*
X227857779Y-102481250D01*
X227437221Y-102481250D01*
X227024744Y-102563297D01*
X226636198Y-102724238D01*
X226286517Y-102957887D01*
X225989137Y-103255267D01*
X225755488Y-103604948D01*
X225594547Y-103993494D01*
X225512500Y-104405971D01*
X225512500Y-104826529D01*
X225583737Y-105184661D01*
X225513326Y-105114250D01*
X225082751Y-104826549D01*
X224604322Y-104628377D01*
X224096424Y-104527350D01*
X223665082Y-104527350D01*
X225186289Y-103006144D01*
X225217791Y-102980291D01*
X225296810Y-102884006D01*
X225320949Y-102854593D01*
X225397603Y-102711184D01*
X225416068Y-102650313D01*
X225444806Y-102555576D01*
X225456750Y-102434303D01*
X225456750Y-102434301D01*
X225460744Y-102393751D01*
X225456750Y-102353200D01*
X225456750Y-94698530D01*
X226279178Y-93876102D01*
X226279178Y-94551500D01*
X226291438Y-94675982D01*
X226327748Y-94795680D01*
X226386713Y-94905994D01*
X226466065Y-95002685D01*
X226562756Y-95082037D01*
X226673070Y-95141002D01*
X226792768Y-95177312D01*
X226917250Y-95189572D01*
X228695250Y-95189572D01*
X228819732Y-95177312D01*
X228939430Y-95141002D01*
X229049744Y-95082037D01*
X229146435Y-95002685D01*
X229225787Y-94905994D01*
X229284752Y-94795680D01*
X229321062Y-94675982D01*
X229333322Y-94551500D01*
X229333322Y-92773500D01*
X229321062Y-92649018D01*
X229284752Y-92529320D01*
X229244358Y-92453749D01*
X235463246Y-92453749D01*
X235600493Y-92545454D01*
X235788851Y-92623475D01*
X235981538Y-92661803D01*
X233679091Y-94964250D01*
X232000461Y-94964250D01*
X231958524Y-94922313D01*
X231789006Y-94809045D01*
X231600648Y-94731024D01*
X231400689Y-94691250D01*
X231196811Y-94691250D01*
X230996852Y-94731024D01*
X230808494Y-94809045D01*
X230638976Y-94922313D01*
X230494813Y-95066476D01*
X230381545Y-95235994D01*
X230303524Y-95424352D01*
X230263750Y-95624311D01*
X230263750Y-95828189D01*
X230303524Y-96028148D01*
X230381545Y-96216506D01*
X230494813Y-96386024D01*
X230638976Y-96530187D01*
X230808494Y-96643455D01*
X230996852Y-96721476D01*
X231196811Y-96761250D01*
X231400689Y-96761250D01*
X231600648Y-96721476D01*
X231789006Y-96643455D01*
X231958524Y-96530187D01*
X232000461Y-96488250D01*
X233957298Y-96488250D01*
X233994721Y-96491936D01*
X234032144Y-96488250D01*
X234032147Y-96488250D01*
X234144099Y-96477224D01*
X234287736Y-96433652D01*
X234420113Y-96362895D01*
X234536143Y-96267672D01*
X234560005Y-96238596D01*
X237297250Y-93501351D01*
X237297249Y-96264426D01*
X237293563Y-96301849D01*
X237297249Y-96339272D01*
X237297249Y-96339274D01*
X237308275Y-96451226D01*
X237351847Y-96594863D01*
X237351848Y-96594864D01*
X237422604Y-96727241D01*
X237437108Y-96744914D01*
X237517827Y-96843271D01*
X237546903Y-96867133D01*
X237793154Y-97113384D01*
X237744000Y-97360499D01*
X237744000Y-97660701D01*
X237793154Y-97907815D01*
X235231399Y-100469571D01*
X235202329Y-100493428D01*
X235178472Y-100522498D01*
X235178471Y-100522499D01*
X235107105Y-100609458D01*
X235036349Y-100741835D01*
X234992777Y-100885472D01*
X234978064Y-101034850D01*
X234981751Y-101072283D01*
X234981750Y-112555619D01*
X233523120Y-114014250D01*
X229177978Y-114014250D01*
X229225787Y-113955994D01*
X229284752Y-113845680D01*
X229321062Y-113725982D01*
X229333322Y-113601500D01*
X229333322Y-111823500D01*
X229321062Y-111699018D01*
X229284752Y-111579320D01*
X229225787Y-111469006D01*
X229146435Y-111372315D01*
X229049744Y-111292963D01*
X228939430Y-111233998D01*
X228819732Y-111197688D01*
X228695250Y-111185428D01*
X226917250Y-111185428D01*
X226792768Y-111197688D01*
X226673070Y-111233998D01*
X226562756Y-111292963D01*
X226466065Y-111372315D01*
X226386713Y-111469006D01*
X226327748Y-111579320D01*
X226291438Y-111699018D01*
X226279178Y-111823500D01*
X226279178Y-113601500D01*
X226291438Y-113725982D01*
X226327748Y-113845680D01*
X226386713Y-113955994D01*
X226434522Y-114014250D01*
X222565631Y-114014250D01*
X221661096Y-113109716D01*
X221710250Y-112862601D01*
X221710250Y-112562399D01*
X221651684Y-112267966D01*
X221536801Y-111990615D01*
X221370018Y-111741007D01*
X221157743Y-111528732D01*
X220908135Y-111361949D01*
X220630784Y-111247066D01*
X220336351Y-111188500D01*
X220036149Y-111188500D01*
X219741716Y-111247066D01*
X219464365Y-111361949D01*
X219214757Y-111528732D01*
X219002482Y-111741007D01*
X218835699Y-111990615D01*
X218720816Y-112267966D01*
X218662250Y-112562399D01*
X218662250Y-112862601D01*
X218720816Y-113157034D01*
X218835699Y-113434385D01*
X219002482Y-113683993D01*
X219214757Y-113896268D01*
X219391329Y-114014250D01*
X210127978Y-114014250D01*
X210175787Y-113955994D01*
X210234752Y-113845680D01*
X210271062Y-113725982D01*
X210283322Y-113601500D01*
X210283322Y-111823500D01*
X210271062Y-111699018D01*
X210234752Y-111579320D01*
X210175787Y-111469006D01*
X210096435Y-111372315D01*
X209999744Y-111292963D01*
X209889430Y-111233998D01*
X209769732Y-111197688D01*
X209645250Y-111185428D01*
X207867250Y-111185428D01*
X207742768Y-111197688D01*
X207623070Y-111233998D01*
X207512756Y-111292963D01*
X207416065Y-111372315D01*
X207336713Y-111469006D01*
X207277748Y-111579320D01*
X207241438Y-111699018D01*
X207229178Y-111823500D01*
X207229178Y-113601500D01*
X207241438Y-113725982D01*
X207277748Y-113845680D01*
X207336713Y-113955994D01*
X207384522Y-114014250D01*
X203515631Y-114014250D01*
X202611096Y-113109716D01*
X202660250Y-112862601D01*
X202660250Y-112562399D01*
X202601684Y-112267966D01*
X202486801Y-111990615D01*
X202320018Y-111741007D01*
X202107743Y-111528732D01*
X201858135Y-111361949D01*
X201580784Y-111247066D01*
X201286351Y-111188500D01*
X200986149Y-111188500D01*
X200691716Y-111247066D01*
X200414365Y-111361949D01*
X200164757Y-111528732D01*
X199952482Y-111741007D01*
X199785699Y-111990615D01*
X199670816Y-112267966D01*
X199612250Y-112562399D01*
X199612250Y-112862601D01*
X199670816Y-113157034D01*
X199785699Y-113434385D01*
X199952482Y-113683993D01*
X200164757Y-113896268D01*
X200341329Y-114014250D01*
X191077978Y-114014250D01*
X191125787Y-113955994D01*
X191184752Y-113845680D01*
X191221062Y-113725982D01*
X191233322Y-113601500D01*
X191233322Y-111823500D01*
X191221062Y-111699018D01*
X191184752Y-111579320D01*
X191125787Y-111469006D01*
X191046435Y-111372315D01*
X190949744Y-111292963D01*
X190839430Y-111233998D01*
X190719732Y-111197688D01*
X190595250Y-111185428D01*
X188817250Y-111185428D01*
X188692768Y-111197688D01*
X188573070Y-111233998D01*
X188462756Y-111292963D01*
X188366065Y-111372315D01*
X188286713Y-111469006D01*
X188227748Y-111579320D01*
X188191438Y-111699018D01*
X188179178Y-111823500D01*
X188179178Y-113601500D01*
X188191438Y-113725982D01*
X188227748Y-113845680D01*
X188286713Y-113955994D01*
X188334522Y-114014250D01*
X184465631Y-114014250D01*
X183561096Y-113109716D01*
X183610250Y-112862601D01*
X183610250Y-112562399D01*
X183551684Y-112267966D01*
X183436801Y-111990615D01*
X183270018Y-111741007D01*
X183057743Y-111528732D01*
X182808135Y-111361949D01*
X182530784Y-111247066D01*
X182236351Y-111188500D01*
X181936149Y-111188500D01*
X181641716Y-111247066D01*
X181364365Y-111361949D01*
X181114757Y-111528732D01*
X180902482Y-111741007D01*
X180735699Y-111990615D01*
X180620816Y-112267966D01*
X180562250Y-112562399D01*
X180562250Y-112862601D01*
X180620816Y-113157034D01*
X180735699Y-113434385D01*
X180902482Y-113683993D01*
X181114757Y-113896268D01*
X181364365Y-114063051D01*
X181641716Y-114177934D01*
X181936149Y-114236500D01*
X182236351Y-114236500D01*
X182483466Y-114187346D01*
X183584721Y-115288602D01*
X183608578Y-115317672D01*
X183724608Y-115412895D01*
X183856985Y-115483652D01*
X184000622Y-115527224D01*
X184112574Y-115538250D01*
X184112576Y-115538250D01*
X184149999Y-115541936D01*
X184187422Y-115538250D01*
X203162576Y-115538250D01*
X203199999Y-115541936D01*
X203237422Y-115538250D01*
X222212576Y-115538250D01*
X222249999Y-115541936D01*
X222287422Y-115538250D01*
X233801327Y-115538250D01*
X233838750Y-115541936D01*
X233876173Y-115538250D01*
X233876176Y-115538250D01*
X233988128Y-115527224D01*
X234131765Y-115483652D01*
X234264142Y-115412895D01*
X234380172Y-115317672D01*
X234404034Y-115288596D01*
X235197413Y-114495217D01*
X238752500Y-114495217D01*
X238752500Y-114817283D01*
X238815332Y-115133162D01*
X238938582Y-115430713D01*
X239117513Y-115698502D01*
X239345248Y-115926237D01*
X239613037Y-116105168D01*
X239910588Y-116228418D01*
X240226467Y-116291250D01*
X240548533Y-116291250D01*
X240864412Y-116228418D01*
X241161963Y-116105168D01*
X241429752Y-115926237D01*
X241657487Y-115698502D01*
X241722425Y-115601315D01*
X241752087Y-115612058D01*
X242707895Y-114656250D01*
X241752087Y-113700442D01*
X241722425Y-113711185D01*
X241657487Y-113613998D01*
X241564326Y-113520837D01*
X241931692Y-113520837D01*
X242887500Y-114476645D01*
X242901643Y-114462503D01*
X243081248Y-114642108D01*
X243067105Y-114656250D01*
X243081248Y-114670393D01*
X242901643Y-114849998D01*
X242887500Y-114835855D01*
X241931692Y-115791663D01*
X242027456Y-116056064D01*
X242317071Y-116196954D01*
X242628608Y-116278634D01*
X242950095Y-116297968D01*
X243269175Y-116254211D01*
X243573588Y-116149045D01*
X243747544Y-116056064D01*
X243801524Y-115907027D01*
X243856963Y-116010744D01*
X243936315Y-116107435D01*
X244033006Y-116186787D01*
X244143320Y-116245752D01*
X244263018Y-116282062D01*
X244387500Y-116294322D01*
X246387500Y-116294322D01*
X246511982Y-116282062D01*
X246631680Y-116245752D01*
X246741994Y-116186787D01*
X246838685Y-116107435D01*
X246918037Y-116010744D01*
X246977002Y-115900430D01*
X247013312Y-115780732D01*
X247025572Y-115656250D01*
X247025572Y-113656250D01*
X247013312Y-113531768D01*
X246977002Y-113412070D01*
X246918037Y-113301756D01*
X246838685Y-113205065D01*
X246741994Y-113125713D01*
X246631680Y-113066748D01*
X246511982Y-113030438D01*
X246387500Y-113018178D01*
X244387500Y-113018178D01*
X244263018Y-113030438D01*
X244143320Y-113066748D01*
X244033006Y-113125713D01*
X243936315Y-113205065D01*
X243856963Y-113301756D01*
X243801524Y-113405473D01*
X243747544Y-113256436D01*
X243457929Y-113115546D01*
X243146392Y-113033866D01*
X242824905Y-113014532D01*
X242505825Y-113058289D01*
X242201412Y-113163455D01*
X242027456Y-113256436D01*
X241931692Y-113520837D01*
X241564326Y-113520837D01*
X241429752Y-113386263D01*
X241161963Y-113207332D01*
X240864412Y-113084082D01*
X240548533Y-113021250D01*
X240226467Y-113021250D01*
X239910588Y-113084082D01*
X239613037Y-113207332D01*
X239345248Y-113386263D01*
X239117513Y-113613998D01*
X238938582Y-113881787D01*
X238815332Y-114179338D01*
X238752500Y-114495217D01*
X235197413Y-114495217D01*
X236256103Y-113436528D01*
X236285172Y-113412672D01*
X236312522Y-113379346D01*
X236380395Y-113296643D01*
X236451151Y-113164266D01*
X236451152Y-113164265D01*
X236494724Y-113020628D01*
X236505750Y-112908676D01*
X236505750Y-112908673D01*
X236509436Y-112871250D01*
X236505750Y-112833827D01*
X236505750Y-109394322D01*
X238287500Y-109394322D01*
X238411982Y-109382062D01*
X238531680Y-109345752D01*
X238641994Y-109286787D01*
X238738685Y-109207435D01*
X238818037Y-109110744D01*
X238877002Y-109000430D01*
X238913312Y-108880732D01*
X238925572Y-108756250D01*
X238925572Y-105556250D01*
X246849428Y-105556250D01*
X246849428Y-108756250D01*
X246861688Y-108880732D01*
X246897998Y-109000430D01*
X246956963Y-109110744D01*
X247036315Y-109207435D01*
X247133006Y-109286787D01*
X247243320Y-109345752D01*
X247363018Y-109382062D01*
X247487500Y-109394322D01*
X249487500Y-109394322D01*
X249611982Y-109382062D01*
X249731680Y-109345752D01*
X249841994Y-109286787D01*
X249938685Y-109207435D01*
X250018037Y-109110744D01*
X250077002Y-109000430D01*
X250113312Y-108880732D01*
X250125572Y-108756250D01*
X250125572Y-105556250D01*
X250113312Y-105431768D01*
X250077002Y-105312070D01*
X250018037Y-105201756D01*
X249938685Y-105105065D01*
X249841994Y-105025713D01*
X249731680Y-104966748D01*
X249611982Y-104930438D01*
X249487500Y-104918178D01*
X247487500Y-104918178D01*
X247363018Y-104930438D01*
X247243320Y-104966748D01*
X247133006Y-105025713D01*
X247036315Y-105105065D01*
X246956963Y-105201756D01*
X246897998Y-105312070D01*
X246861688Y-105431768D01*
X246849428Y-105556250D01*
X238925572Y-105556250D01*
X238913312Y-105431768D01*
X238877002Y-105312070D01*
X238818037Y-105201756D01*
X238738685Y-105105065D01*
X238641994Y-105025713D01*
X238531680Y-104966748D01*
X238411982Y-104930438D01*
X238287500Y-104918178D01*
X236505750Y-104918178D01*
X236505750Y-101350480D01*
X238870785Y-98985446D01*
X239117899Y-99034600D01*
X239196911Y-99034600D01*
X239117513Y-99113998D01*
X238938582Y-99381787D01*
X238815332Y-99679338D01*
X238752500Y-99995217D01*
X238752500Y-100317283D01*
X238815332Y-100633162D01*
X238938582Y-100930713D01*
X239117513Y-101198502D01*
X239345248Y-101426237D01*
X239613037Y-101605168D01*
X239910588Y-101728418D01*
X240226467Y-101791250D01*
X240548533Y-101791250D01*
X240864412Y-101728418D01*
X241161963Y-101605168D01*
X241429752Y-101426237D01*
X241657487Y-101198502D01*
X241836418Y-100930713D01*
X241959668Y-100633162D01*
X242022500Y-100317283D01*
X242022500Y-99995217D01*
X241959668Y-99679338D01*
X241836418Y-99381787D01*
X241657487Y-99113998D01*
X241429752Y-98886263D01*
X241161963Y-98707332D01*
X240864412Y-98584082D01*
X240548533Y-98521250D01*
X240412611Y-98521250D01*
X240451768Y-98482093D01*
X240618551Y-98232485D01*
X240733434Y-97955134D01*
X240792000Y-97660701D01*
X240792000Y-97360499D01*
X240733434Y-97066066D01*
X240618551Y-96788715D01*
X240451768Y-96539107D01*
X240239493Y-96326832D01*
X239989885Y-96160049D01*
X239712534Y-96045166D01*
X239418101Y-95986600D01*
X239117899Y-95986600D01*
X238870784Y-96035754D01*
X238821249Y-95986219D01*
X238821249Y-94292600D01*
X238879360Y-94310226D01*
X239109250Y-94188905D01*
X239109250Y-92995750D01*
X239089250Y-92995750D01*
X239089250Y-92741750D01*
X239109250Y-92741750D01*
X239109250Y-92721750D01*
X239363250Y-92721750D01*
X239363250Y-92741750D01*
X239383250Y-92741750D01*
X239383250Y-92995750D01*
X239363250Y-92995750D01*
X239363250Y-94188905D01*
X239593140Y-94310226D01*
X239740349Y-94265575D01*
X240003170Y-94140391D01*
X240236519Y-93966338D01*
X240431428Y-93750105D01*
X240501055Y-93633216D01*
X240622775Y-93815382D01*
X240829618Y-94022225D01*
X241072839Y-94184740D01*
X241343092Y-94296682D01*
X241629990Y-94353750D01*
X241922510Y-94353750D01*
X242065395Y-94325328D01*
X242404357Y-94664290D01*
X242430210Y-94695792D01*
X242555909Y-94798950D01*
X242699317Y-94875604D01*
X242854925Y-94922807D01*
X242976198Y-94934751D01*
X242976207Y-94934751D01*
X243016750Y-94938744D01*
X243057293Y-94934751D01*
X247877139Y-94934751D01*
X247917689Y-94938745D01*
X247958239Y-94934751D01*
X247958242Y-94934751D01*
X248079515Y-94922807D01*
X248235123Y-94875604D01*
X248378531Y-94798950D01*
X248504230Y-94695792D01*
X248530087Y-94664285D01*
X248965559Y-94228813D01*
X249386592Y-94228813D01*
X249482356Y-94493214D01*
X249771971Y-94634104D01*
X250083508Y-94715784D01*
X250404995Y-94735118D01*
X250724075Y-94691361D01*
X251028488Y-94586195D01*
X251202444Y-94493214D01*
X251298208Y-94228813D01*
X250342400Y-93273005D01*
X249386592Y-94228813D01*
X248965559Y-94228813D01*
X249161603Y-94032770D01*
X249206987Y-94049208D01*
X250162795Y-93093400D01*
X250522005Y-93093400D01*
X251477813Y-94049208D01*
X251742214Y-93953444D01*
X251883104Y-93663829D01*
X251964784Y-93352292D01*
X251984118Y-93030805D01*
X251940361Y-92711725D01*
X251835195Y-92407312D01*
X251742214Y-92233356D01*
X251477813Y-92137592D01*
X250522005Y-93093400D01*
X250162795Y-93093400D01*
X250148653Y-93079258D01*
X250328258Y-92899653D01*
X250342400Y-92913795D01*
X251298208Y-91957987D01*
X251255766Y-91840805D01*
X251259476Y-91836284D01*
X253761295Y-89334467D01*
X253792791Y-89308619D01*
X253818639Y-89277123D01*
X253818642Y-89277120D01*
X253895949Y-89182921D01*
X253972603Y-89039512D01*
X253983685Y-89002980D01*
X254019806Y-88883904D01*
X254031750Y-88762631D01*
X254031750Y-88762629D01*
X254035744Y-88722078D01*
X254031750Y-88681528D01*
X254031750Y-68303050D01*
X254035744Y-68262499D01*
X254031750Y-68221947D01*
X254019806Y-68100674D01*
X253972603Y-67945066D01*
X253953635Y-67909580D01*
X253895949Y-67801657D01*
X253818641Y-67707458D01*
X253792791Y-67675959D01*
X253761290Y-67650107D01*
X253024898Y-66913716D01*
X252999041Y-66882209D01*
X252873342Y-66779051D01*
X252729934Y-66702397D01*
X252574326Y-66655194D01*
X252453053Y-66643250D01*
X252453050Y-66643250D01*
X252412500Y-66639256D01*
X252371950Y-66643250D01*
X251773544Y-66643250D01*
X251681404Y-66505352D01*
X251470898Y-66294846D01*
X251327080Y-66198750D01*
X251470898Y-66102654D01*
X251681404Y-65892148D01*
X251815973Y-65690750D01*
X251938120Y-65690750D01*
X253855948Y-67608579D01*
X253855954Y-67608584D01*
X254080401Y-67833030D01*
X254080400Y-90246250D01*
X253898061Y-90246250D01*
X253698102Y-90286024D01*
X253509744Y-90364045D01*
X253340226Y-90477313D01*
X253196063Y-90621476D01*
X253082795Y-90790994D01*
X253004774Y-90979352D01*
X252965000Y-91179311D01*
X252965000Y-91238620D01*
X252693903Y-91509716D01*
X252664828Y-91533578D01*
X252618141Y-91590467D01*
X252569605Y-91649608D01*
X252546099Y-91693586D01*
X252498848Y-91781986D01*
X252455276Y-91925623D01*
X252446890Y-92010774D01*
X252440564Y-92075000D01*
X252444250Y-92112423D01*
X252444251Y-101692038D01*
X252402313Y-101733976D01*
X252289045Y-101903494D01*
X252211024Y-102091852D01*
X252171250Y-102291811D01*
X252171250Y-102495689D01*
X252207758Y-102679226D01*
X252160172Y-102621243D01*
X252131103Y-102597387D01*
X250724819Y-101191104D01*
X251028488Y-101086195D01*
X251202444Y-100993214D01*
X251298208Y-100728813D01*
X250342400Y-99773005D01*
X250328258Y-99787148D01*
X250148653Y-99607543D01*
X250162795Y-99593400D01*
X250522005Y-99593400D01*
X251477813Y-100549208D01*
X251742214Y-100453444D01*
X251883104Y-100163829D01*
X251964784Y-99852292D01*
X251984118Y-99530805D01*
X251940361Y-99211725D01*
X251835195Y-98907312D01*
X251742214Y-98733356D01*
X251477813Y-98637592D01*
X250522005Y-99593400D01*
X250162795Y-99593400D01*
X249206987Y-98637592D01*
X248997655Y-98713410D01*
X248840949Y-98682240D01*
X248637071Y-98682240D01*
X248437112Y-98722014D01*
X248280691Y-98786806D01*
X248307537Y-98754094D01*
X248366502Y-98643780D01*
X248402812Y-98524082D01*
X248409321Y-98457987D01*
X249386592Y-98457987D01*
X250342400Y-99413795D01*
X251298208Y-98457987D01*
X251202444Y-98193586D01*
X250912829Y-98052696D01*
X250601292Y-97971016D01*
X250279805Y-97951682D01*
X249960725Y-97995439D01*
X249656312Y-98100605D01*
X249482356Y-98193586D01*
X249386592Y-98457987D01*
X248409321Y-98457987D01*
X248415072Y-98399600D01*
X248415072Y-96621600D01*
X248402812Y-96497118D01*
X248366502Y-96377420D01*
X248307537Y-96267106D01*
X248228185Y-96170415D01*
X248131494Y-96091063D01*
X248021180Y-96032098D01*
X247901482Y-95995788D01*
X247777000Y-95983528D01*
X245999000Y-95983528D01*
X245874518Y-95995788D01*
X245754820Y-96032098D01*
X245644506Y-96091063D01*
X245547815Y-96170415D01*
X245468463Y-96267106D01*
X245409498Y-96377420D01*
X245373188Y-96497118D01*
X245360928Y-96621600D01*
X245360928Y-98399600D01*
X245372909Y-98521250D01*
X245226467Y-98521250D01*
X244910588Y-98584082D01*
X244613037Y-98707332D01*
X244345248Y-98886263D01*
X244117513Y-99113998D01*
X243938582Y-99381787D01*
X243815332Y-99679338D01*
X243752500Y-99995217D01*
X243752500Y-100317283D01*
X243815332Y-100633162D01*
X243938582Y-100930713D01*
X244117513Y-101198502D01*
X244345248Y-101426237D01*
X244613037Y-101605168D01*
X244910588Y-101728418D01*
X245226467Y-101791250D01*
X245548533Y-101791250D01*
X245864412Y-101728418D01*
X246161963Y-101605168D01*
X246429752Y-101426237D01*
X246657487Y-101198502D01*
X246836418Y-100930713D01*
X246959668Y-100633162D01*
X247022500Y-100317283D01*
X247022500Y-99995217D01*
X246959668Y-99679338D01*
X246836418Y-99381787D01*
X246657487Y-99113998D01*
X246581161Y-99037672D01*
X247777000Y-99037672D01*
X247901482Y-99025412D01*
X247995711Y-98996828D01*
X247935073Y-99057466D01*
X247821805Y-99226984D01*
X247743784Y-99415342D01*
X247704010Y-99615301D01*
X247704010Y-99819179D01*
X247743784Y-100019138D01*
X247821805Y-100207496D01*
X247935073Y-100377014D01*
X247987782Y-100429723D01*
X247988036Y-100432303D01*
X248031608Y-100575940D01*
X248049524Y-100609458D01*
X248102365Y-100708317D01*
X248172478Y-100793749D01*
X248197589Y-100824347D01*
X248226659Y-100848204D01*
X250856751Y-103478297D01*
X250856750Y-104073289D01*
X250814813Y-104115226D01*
X250701545Y-104284744D01*
X250623524Y-104473102D01*
X250583750Y-104673061D01*
X250583750Y-104876939D01*
X250623524Y-105076898D01*
X250701545Y-105265256D01*
X250814813Y-105434774D01*
X250958976Y-105578937D01*
X251128494Y-105692205D01*
X251316852Y-105770226D01*
X251516811Y-105810000D01*
X251720689Y-105810000D01*
X251920648Y-105770226D01*
X252109006Y-105692205D01*
X252278524Y-105578937D01*
X252422687Y-105434774D01*
X252535955Y-105265256D01*
X252613976Y-105076898D01*
X252653750Y-104876939D01*
X252653750Y-104673061D01*
X252613976Y-104473102D01*
X252535955Y-104284744D01*
X252422687Y-104115226D01*
X252380750Y-104073289D01*
X252380750Y-103200087D01*
X252384436Y-103162664D01*
X252380750Y-103125239D01*
X252369724Y-103013287D01*
X252364982Y-102997653D01*
X252402313Y-103053524D01*
X252546476Y-103197687D01*
X252715994Y-103310955D01*
X252904352Y-103388976D01*
X253104311Y-103428750D01*
X253308189Y-103428750D01*
X253508148Y-103388976D01*
X253696506Y-103310955D01*
X253866024Y-103197687D01*
X254010187Y-103053524D01*
X254123455Y-102884006D01*
X254201476Y-102695648D01*
X254241250Y-102495689D01*
X254241250Y-102291811D01*
X254201476Y-102091852D01*
X254123455Y-101903494D01*
X254010187Y-101733976D01*
X253968250Y-101692039D01*
X253968250Y-100975709D01*
X254067937Y-101042318D01*
X254365488Y-101165568D01*
X254681367Y-101228400D01*
X255003433Y-101228400D01*
X255319312Y-101165568D01*
X255616863Y-101042318D01*
X255671250Y-101005978D01*
X255671250Y-117777374D01*
X255668325Y-117762669D01*
X255537537Y-117446919D01*
X255347663Y-117162752D01*
X255105998Y-116921087D01*
X254821831Y-116731213D01*
X254506081Y-116600425D01*
X254170883Y-116533750D01*
X253829117Y-116533750D01*
X253493919Y-116600425D01*
X253178169Y-116731213D01*
X252894002Y-116921087D01*
X252652337Y-117162752D01*
X252462463Y-117446919D01*
X252331675Y-117762669D01*
X252265000Y-118097867D01*
X252265000Y-118439633D01*
X252331675Y-118774831D01*
X252462463Y-119090581D01*
X252652337Y-119374748D01*
X252894002Y-119616413D01*
X253178169Y-119806287D01*
X253493919Y-119937075D01*
X253508624Y-119940000D01*
X174322626Y-119940000D01*
X174337331Y-119937075D01*
X174653081Y-119806287D01*
X174937248Y-119616413D01*
X175178913Y-119374748D01*
X175368787Y-119090581D01*
X175499575Y-118774831D01*
X175566250Y-118439633D01*
X175566250Y-118097867D01*
X175499575Y-117762669D01*
X175368787Y-117446919D01*
X175178913Y-117162752D01*
X174937248Y-116921087D01*
X174653081Y-116731213D01*
X174337331Y-116600425D01*
X174002133Y-116533750D01*
X173660367Y-116533750D01*
X173325169Y-116600425D01*
X173009419Y-116731213D01*
X172725252Y-116921087D01*
X172483587Y-117162752D01*
X172293713Y-117446919D01*
X172162925Y-117762669D01*
X172160000Y-117777374D01*
X172160000Y-107007528D01*
X179147500Y-107007528D01*
X179147500Y-107304972D01*
X179205529Y-107596701D01*
X179319356Y-107871503D01*
X179484607Y-108118819D01*
X179694931Y-108329143D01*
X179942247Y-108494394D01*
X180217049Y-108608221D01*
X180508778Y-108666250D01*
X180806222Y-108666250D01*
X181097951Y-108608221D01*
X181372753Y-108494394D01*
X181620069Y-108329143D01*
X181830393Y-108118819D01*
X181995644Y-107871503D01*
X182109471Y-107596701D01*
X182167500Y-107304972D01*
X182167500Y-107007528D01*
X182145580Y-106897326D01*
X183108600Y-106897326D01*
X183108600Y-107415174D01*
X183209627Y-107923072D01*
X183407799Y-108401501D01*
X183695500Y-108832076D01*
X184061674Y-109198250D01*
X184492249Y-109485951D01*
X184970678Y-109684123D01*
X185478576Y-109785150D01*
X185996424Y-109785150D01*
X186504322Y-109684123D01*
X186982751Y-109485951D01*
X187413326Y-109198250D01*
X187779500Y-108832076D01*
X188067201Y-108401501D01*
X188265373Y-107923072D01*
X188366400Y-107415174D01*
X188366400Y-106897326D01*
X188265373Y-106389428D01*
X188229792Y-106303529D01*
X188536198Y-106508262D01*
X188924744Y-106669203D01*
X189337221Y-106751250D01*
X189358477Y-106751250D01*
X189307500Y-107007528D01*
X189307500Y-107304972D01*
X189365529Y-107596701D01*
X189479356Y-107871503D01*
X189644607Y-108118819D01*
X189854931Y-108329143D01*
X190102247Y-108494394D01*
X190377049Y-108608221D01*
X190668778Y-108666250D01*
X190966222Y-108666250D01*
X191257951Y-108608221D01*
X191532753Y-108494394D01*
X191780069Y-108329143D01*
X191990393Y-108118819D01*
X192155644Y-107871503D01*
X192269471Y-107596701D01*
X192327500Y-107304972D01*
X192327500Y-107007528D01*
X192269471Y-106715799D01*
X192155644Y-106440997D01*
X191990393Y-106193681D01*
X191780069Y-105983357D01*
X191532753Y-105818106D01*
X191360001Y-105746549D01*
X191439512Y-105627552D01*
X191600453Y-105239006D01*
X191682500Y-104826529D01*
X191682500Y-104405971D01*
X191600453Y-103993494D01*
X191439512Y-103604948D01*
X191205863Y-103255267D01*
X190908483Y-102957887D01*
X190558802Y-102724238D01*
X190170256Y-102563297D01*
X189757779Y-102481250D01*
X189337221Y-102481250D01*
X188924744Y-102563297D01*
X188536198Y-102724238D01*
X188186517Y-102957887D01*
X187889137Y-103255267D01*
X187655488Y-103604948D01*
X187494547Y-103993494D01*
X187412500Y-104405971D01*
X187412500Y-104826529D01*
X187483737Y-105184661D01*
X187413326Y-105114250D01*
X186982751Y-104826549D01*
X186504322Y-104628377D01*
X185996424Y-104527350D01*
X185478576Y-104527350D01*
X184970678Y-104628377D01*
X184492249Y-104826549D01*
X184061674Y-105114250D01*
X183695500Y-105480424D01*
X183407799Y-105910999D01*
X183209627Y-106389428D01*
X183108600Y-106897326D01*
X182145580Y-106897326D01*
X182109471Y-106715799D01*
X181995644Y-106440997D01*
X181830393Y-106193681D01*
X181620069Y-105983357D01*
X181372753Y-105818106D01*
X181097951Y-105704279D01*
X180806222Y-105646250D01*
X180508778Y-105646250D01*
X180217049Y-105704279D01*
X179942247Y-105818106D01*
X179694931Y-105983357D01*
X179484607Y-106193681D01*
X179319356Y-106440997D01*
X179205529Y-106715799D01*
X179147500Y-107007528D01*
X172160000Y-107007528D01*
X172160000Y-101865971D01*
X181062500Y-101865971D01*
X181062500Y-102286529D01*
X181144547Y-102699006D01*
X181305488Y-103087552D01*
X181539137Y-103437233D01*
X181836517Y-103734613D01*
X182186198Y-103968262D01*
X182574744Y-104129203D01*
X182987221Y-104211250D01*
X183407779Y-104211250D01*
X183820256Y-104129203D01*
X184208802Y-103968262D01*
X184558483Y-103734613D01*
X184855863Y-103437233D01*
X185089512Y-103087552D01*
X185250453Y-102699006D01*
X185332500Y-102286529D01*
X185332500Y-101865971D01*
X185250453Y-101453494D01*
X185089512Y-101064948D01*
X184855863Y-100715267D01*
X184558483Y-100417887D01*
X184208802Y-100184238D01*
X183820256Y-100023297D01*
X183407779Y-99941250D01*
X182987221Y-99941250D01*
X182574744Y-100023297D01*
X182186198Y-100184238D01*
X181836517Y-100417887D01*
X181539137Y-100715267D01*
X181305488Y-101064948D01*
X181144547Y-101453494D01*
X181062500Y-101865971D01*
X172160000Y-101865971D01*
X172160000Y-93512399D01*
X180562250Y-93512399D01*
X180562250Y-93812601D01*
X180620816Y-94107034D01*
X180735699Y-94384385D01*
X180902482Y-94633993D01*
X181114757Y-94846268D01*
X181364365Y-95013051D01*
X181641716Y-95127934D01*
X181936149Y-95186500D01*
X182236351Y-95186500D01*
X182530784Y-95127934D01*
X182808135Y-95013051D01*
X183057743Y-94846268D01*
X183270018Y-94633993D01*
X183436801Y-94384385D01*
X183551684Y-94107034D01*
X183610250Y-93812601D01*
X183610250Y-93512399D01*
X183551684Y-93217966D01*
X183436801Y-92940615D01*
X183270018Y-92691007D01*
X183057743Y-92478732D01*
X182808135Y-92311949D01*
X182530784Y-92197066D01*
X182236351Y-92138500D01*
X181936149Y-92138500D01*
X181641716Y-92197066D01*
X181364365Y-92311949D01*
X181114757Y-92478732D01*
X180902482Y-92691007D01*
X180735699Y-92940615D01*
X180620816Y-93217966D01*
X180562250Y-93512399D01*
X172160000Y-93512399D01*
X172160000Y-87957528D01*
X179147500Y-87957528D01*
X179147500Y-88254972D01*
X179205529Y-88546701D01*
X179319356Y-88821503D01*
X179484607Y-89068819D01*
X179694931Y-89279143D01*
X179942247Y-89444394D01*
X180217049Y-89558221D01*
X180508778Y-89616250D01*
X180806222Y-89616250D01*
X181097951Y-89558221D01*
X181372753Y-89444394D01*
X181620069Y-89279143D01*
X181830393Y-89068819D01*
X181995644Y-88821503D01*
X182109471Y-88546701D01*
X182167500Y-88254972D01*
X182167500Y-87957528D01*
X182109471Y-87665799D01*
X181995644Y-87390997D01*
X181830393Y-87143681D01*
X181620069Y-86933357D01*
X181372753Y-86768106D01*
X181097951Y-86654279D01*
X180806222Y-86596250D01*
X180508778Y-86596250D01*
X180217049Y-86654279D01*
X179942247Y-86768106D01*
X179694931Y-86933357D01*
X179484607Y-87143681D01*
X179319356Y-87390997D01*
X179205529Y-87665799D01*
X179147500Y-87957528D01*
X172160000Y-87957528D01*
X172160000Y-82815971D01*
X181062500Y-82815971D01*
X181062500Y-83236529D01*
X181144547Y-83649006D01*
X181305488Y-84037552D01*
X181539137Y-84387233D01*
X181836517Y-84684613D01*
X182186198Y-84918262D01*
X182574744Y-85079203D01*
X182987221Y-85161250D01*
X183407779Y-85161250D01*
X183820256Y-85079203D01*
X184208802Y-84918262D01*
X184558483Y-84684613D01*
X184855863Y-84387233D01*
X185089512Y-84037552D01*
X185250453Y-83649006D01*
X185332500Y-83236529D01*
X185332500Y-82815971D01*
X185250453Y-82403494D01*
X185089512Y-82014948D01*
X184855863Y-81665267D01*
X184558483Y-81367887D01*
X184208802Y-81134238D01*
X183820256Y-80973297D01*
X183407779Y-80891250D01*
X182987221Y-80891250D01*
X182574744Y-80973297D01*
X182186198Y-81134238D01*
X181836517Y-81367887D01*
X181539137Y-81665267D01*
X181305488Y-82014948D01*
X181144547Y-82403494D01*
X181062500Y-82815971D01*
X172160000Y-82815971D01*
X172160000Y-74462399D01*
X180562250Y-74462399D01*
X180562250Y-74762601D01*
X180620816Y-75057034D01*
X180735699Y-75334385D01*
X180902482Y-75583993D01*
X181114757Y-75796268D01*
X181364365Y-75963051D01*
X181641716Y-76077934D01*
X181936149Y-76136500D01*
X182236351Y-76136500D01*
X182530784Y-76077934D01*
X182808135Y-75963051D01*
X183057743Y-75796268D01*
X183270018Y-75583993D01*
X183436801Y-75334385D01*
X183551684Y-75057034D01*
X183610250Y-74762601D01*
X183610250Y-74462399D01*
X183551684Y-74167966D01*
X183436801Y-73890615D01*
X183325139Y-73723500D01*
X188179178Y-73723500D01*
X188179178Y-75501500D01*
X188191438Y-75625982D01*
X188227748Y-75745680D01*
X188286713Y-75855994D01*
X188366065Y-75952685D01*
X188462756Y-76032037D01*
X188573070Y-76091002D01*
X188692768Y-76127312D01*
X188817250Y-76139572D01*
X190069888Y-76139572D01*
X190033301Y-76323510D01*
X190033301Y-76527388D01*
X190073075Y-76727347D01*
X190151096Y-76915705D01*
X190264364Y-77085223D01*
X190408527Y-77229386D01*
X190578045Y-77342654D01*
X190766403Y-77420675D01*
X190966362Y-77460449D01*
X191170240Y-77460449D01*
X191370199Y-77420675D01*
X191558557Y-77342654D01*
X191728075Y-77229386D01*
X191770012Y-77187449D01*
X199097840Y-77187449D01*
X199139777Y-77229386D01*
X199309295Y-77342654D01*
X199497653Y-77420675D01*
X199697612Y-77460449D01*
X199901490Y-77460449D01*
X200101449Y-77420675D01*
X200289807Y-77342654D01*
X200459325Y-77229386D01*
X200603488Y-77085223D01*
X200716756Y-76915705D01*
X200794777Y-76727347D01*
X200834551Y-76527388D01*
X200834551Y-76323510D01*
X200794777Y-76123551D01*
X200783439Y-76096179D01*
X200986149Y-76136500D01*
X201286351Y-76136500D01*
X201580784Y-76077934D01*
X201858135Y-75963051D01*
X202107743Y-75796268D01*
X202320018Y-75583993D01*
X202486801Y-75334385D01*
X202601684Y-75057034D01*
X202660250Y-74762601D01*
X202660250Y-74462399D01*
X202633987Y-74330367D01*
X203231751Y-74928131D01*
X203231750Y-77085789D01*
X203189813Y-77127726D01*
X203076545Y-77297244D01*
X202998524Y-77485602D01*
X202958750Y-77685561D01*
X202958750Y-77889439D01*
X202998524Y-78089398D01*
X203076545Y-78277756D01*
X203189813Y-78447274D01*
X203333976Y-78591437D01*
X203503494Y-78704705D01*
X203691852Y-78782726D01*
X203891811Y-78822500D01*
X204095689Y-78822500D01*
X204295648Y-78782726D01*
X204484006Y-78704705D01*
X204653524Y-78591437D01*
X204797687Y-78447274D01*
X204910955Y-78277756D01*
X204988976Y-78089398D01*
X205028750Y-77889439D01*
X205028750Y-77685561D01*
X204988976Y-77485602D01*
X204910955Y-77297244D01*
X204797687Y-77127726D01*
X204755750Y-77085789D01*
X204755750Y-74649923D01*
X204759436Y-74612500D01*
X204755750Y-74575074D01*
X204744724Y-74463122D01*
X204701152Y-74319485D01*
X204668215Y-74257864D01*
X204630395Y-74187107D01*
X204579713Y-74125352D01*
X204535172Y-74071078D01*
X204506096Y-74047216D01*
X204182380Y-73723500D01*
X207229178Y-73723500D01*
X207229178Y-75501500D01*
X207241438Y-75625982D01*
X207277748Y-75745680D01*
X207336713Y-75855994D01*
X207416065Y-75952685D01*
X207512756Y-76032037D01*
X207623070Y-76091002D01*
X207742768Y-76127312D01*
X207867250Y-76139572D01*
X209119888Y-76139572D01*
X209083301Y-76323510D01*
X209083301Y-76527388D01*
X209123075Y-76727347D01*
X209201096Y-76915705D01*
X209314364Y-77085223D01*
X209458527Y-77229386D01*
X209628045Y-77342654D01*
X209816403Y-77420675D01*
X210016362Y-77460449D01*
X210220240Y-77460449D01*
X210420199Y-77420675D01*
X210608557Y-77342654D01*
X210778075Y-77229386D01*
X210820012Y-77187449D01*
X218147840Y-77187449D01*
X218189777Y-77229386D01*
X218359295Y-77342654D01*
X218547653Y-77420675D01*
X218747612Y-77460449D01*
X218951490Y-77460449D01*
X219151449Y-77420675D01*
X219339807Y-77342654D01*
X219509325Y-77229386D01*
X219653488Y-77085223D01*
X219766756Y-76915705D01*
X219844777Y-76727347D01*
X219884551Y-76527388D01*
X219884551Y-76323510D01*
X219844777Y-76123551D01*
X219833439Y-76096179D01*
X220036149Y-76136500D01*
X220336351Y-76136500D01*
X220630784Y-76077934D01*
X220908135Y-75963051D01*
X221157743Y-75796268D01*
X221370018Y-75583993D01*
X221536801Y-75334385D01*
X221651684Y-75057034D01*
X221710250Y-74762601D01*
X221710250Y-74462399D01*
X221651684Y-74167966D01*
X221536801Y-73890615D01*
X221425139Y-73723500D01*
X226279178Y-73723500D01*
X226279178Y-75501500D01*
X226291438Y-75625982D01*
X226327748Y-75745680D01*
X226386713Y-75855994D01*
X226466065Y-75952685D01*
X226562756Y-76032037D01*
X226673070Y-76091002D01*
X226792768Y-76127312D01*
X226917250Y-76139572D01*
X228695250Y-76139572D01*
X228819732Y-76127312D01*
X228939430Y-76091002D01*
X229049744Y-76032037D01*
X229146435Y-75952685D01*
X229225787Y-75855994D01*
X229284752Y-75745680D01*
X229321062Y-75625982D01*
X229333322Y-75501500D01*
X229333322Y-73723500D01*
X229321062Y-73599018D01*
X229284752Y-73479320D01*
X229225787Y-73369006D01*
X229146435Y-73272315D01*
X229049744Y-73192963D01*
X228939430Y-73133998D01*
X228819732Y-73097688D01*
X228695250Y-73085428D01*
X226917250Y-73085428D01*
X226792768Y-73097688D01*
X226673070Y-73133998D01*
X226562756Y-73192963D01*
X226466065Y-73272315D01*
X226386713Y-73369006D01*
X226327748Y-73479320D01*
X226291438Y-73599018D01*
X226279178Y-73723500D01*
X221425139Y-73723500D01*
X221370018Y-73641007D01*
X221157743Y-73428732D01*
X220908135Y-73261949D01*
X220630784Y-73147066D01*
X220336351Y-73088500D01*
X220036149Y-73088500D01*
X219741716Y-73147066D01*
X219464365Y-73261949D01*
X219214757Y-73428732D01*
X219002482Y-73641007D01*
X218835699Y-73890615D01*
X218720816Y-74167966D01*
X218662250Y-74462399D01*
X218662250Y-74762601D01*
X218720816Y-75057034D01*
X218835699Y-75334385D01*
X218873160Y-75390449D01*
X218747612Y-75390449D01*
X218547653Y-75430223D01*
X218359295Y-75508244D01*
X218189777Y-75621512D01*
X218147840Y-75663449D01*
X210820012Y-75663449D01*
X210778075Y-75621512D01*
X210608557Y-75508244D01*
X210420199Y-75430223D01*
X210283322Y-75402997D01*
X210283322Y-73723500D01*
X210271062Y-73599018D01*
X210234752Y-73479320D01*
X210175787Y-73369006D01*
X210096435Y-73272315D01*
X209999744Y-73192963D01*
X209889430Y-73133998D01*
X209769732Y-73097688D01*
X209645250Y-73085428D01*
X207867250Y-73085428D01*
X207742768Y-73097688D01*
X207623070Y-73133998D01*
X207512756Y-73192963D01*
X207416065Y-73272315D01*
X207336713Y-73369006D01*
X207277748Y-73479320D01*
X207241438Y-73599018D01*
X207229178Y-73723500D01*
X204182380Y-73723500D01*
X202917285Y-72458405D01*
X202893423Y-72429329D01*
X202777393Y-72334106D01*
X202645016Y-72263349D01*
X202501379Y-72219777D01*
X202389427Y-72208751D01*
X202389424Y-72208751D01*
X202352001Y-72205065D01*
X202314578Y-72208751D01*
X194705131Y-72208751D01*
X194697500Y-72201120D01*
X194697500Y-72141811D01*
X194657726Y-71941852D01*
X194579705Y-71753494D01*
X194466437Y-71583976D01*
X194322274Y-71439813D01*
X194152756Y-71326545D01*
X193964398Y-71248524D01*
X193764439Y-71208750D01*
X193560561Y-71208750D01*
X193360602Y-71248524D01*
X193172244Y-71326545D01*
X193002726Y-71439813D01*
X192858563Y-71583976D01*
X192745295Y-71753494D01*
X192667274Y-71941852D01*
X192627500Y-72141811D01*
X192627500Y-72345689D01*
X192667274Y-72545648D01*
X192745295Y-72734006D01*
X192858563Y-72903524D01*
X193002726Y-73047687D01*
X193172244Y-73160955D01*
X193360602Y-73238976D01*
X193560561Y-73278750D01*
X193619870Y-73278750D01*
X193824217Y-73483097D01*
X193848079Y-73512173D01*
X193921720Y-73572608D01*
X193964108Y-73607396D01*
X194016740Y-73635528D01*
X194096486Y-73678153D01*
X194240123Y-73721725D01*
X194352075Y-73732751D01*
X194352078Y-73732751D01*
X194389501Y-73736437D01*
X194426924Y-73732751D01*
X199891181Y-73732751D01*
X199785699Y-73890615D01*
X199670816Y-74167966D01*
X199612250Y-74462399D01*
X199612250Y-74762601D01*
X199670816Y-75057034D01*
X199785699Y-75334385D01*
X199823160Y-75390449D01*
X199697612Y-75390449D01*
X199497653Y-75430223D01*
X199309295Y-75508244D01*
X199139777Y-75621512D01*
X199097840Y-75663449D01*
X191770012Y-75663449D01*
X191728075Y-75621512D01*
X191558557Y-75508244D01*
X191370199Y-75430223D01*
X191233322Y-75402997D01*
X191233322Y-73723500D01*
X191221062Y-73599018D01*
X191184752Y-73479320D01*
X191125787Y-73369006D01*
X191046435Y-73272315D01*
X190949744Y-73192963D01*
X190839430Y-73133998D01*
X190719732Y-73097688D01*
X190595250Y-73085428D01*
X188817250Y-73085428D01*
X188692768Y-73097688D01*
X188573070Y-73133998D01*
X188462756Y-73192963D01*
X188366065Y-73272315D01*
X188286713Y-73369006D01*
X188227748Y-73479320D01*
X188191438Y-73599018D01*
X188179178Y-73723500D01*
X183325139Y-73723500D01*
X183270018Y-73641007D01*
X183057743Y-73428732D01*
X182808135Y-73261949D01*
X182530784Y-73147066D01*
X182236351Y-73088500D01*
X181936149Y-73088500D01*
X181641716Y-73147066D01*
X181364365Y-73261949D01*
X181114757Y-73428732D01*
X180902482Y-73641007D01*
X180735699Y-73890615D01*
X180620816Y-74167966D01*
X180562250Y-74462399D01*
X172160000Y-74462399D01*
X172160000Y-68907528D01*
X179147500Y-68907528D01*
X179147500Y-69204972D01*
X179205529Y-69496701D01*
X179319356Y-69771503D01*
X179484607Y-70018819D01*
X179694931Y-70229143D01*
X179942247Y-70394394D01*
X180217049Y-70508221D01*
X180508778Y-70566250D01*
X180806222Y-70566250D01*
X181097951Y-70508221D01*
X181372753Y-70394394D01*
X181620069Y-70229143D01*
X181830393Y-70018819D01*
X181995644Y-69771503D01*
X182109471Y-69496701D01*
X182167500Y-69204972D01*
X182167500Y-68907528D01*
X182145580Y-68797326D01*
X183108600Y-68797326D01*
X183108600Y-69315174D01*
X183209627Y-69823072D01*
X183407799Y-70301501D01*
X183695500Y-70732076D01*
X184061674Y-71098250D01*
X184492249Y-71385951D01*
X184970678Y-71584123D01*
X185478576Y-71685150D01*
X185996424Y-71685150D01*
X186504322Y-71584123D01*
X186982751Y-71385951D01*
X187413326Y-71098250D01*
X187779500Y-70732076D01*
X188067201Y-70301501D01*
X188265373Y-69823072D01*
X188366400Y-69315174D01*
X188366400Y-68797326D01*
X188265373Y-68289428D01*
X188229792Y-68203529D01*
X188536198Y-68408262D01*
X188924744Y-68569203D01*
X189337221Y-68651250D01*
X189358477Y-68651250D01*
X189307500Y-68907528D01*
X189307500Y-69204972D01*
X189365529Y-69496701D01*
X189479356Y-69771503D01*
X189644607Y-70018819D01*
X189854931Y-70229143D01*
X190102247Y-70394394D01*
X190377049Y-70508221D01*
X190668778Y-70566250D01*
X190966222Y-70566250D01*
X191257951Y-70508221D01*
X191532753Y-70394394D01*
X191780069Y-70229143D01*
X191990393Y-70018819D01*
X192155644Y-69771503D01*
X192269471Y-69496701D01*
X192327500Y-69204972D01*
X192327500Y-68907528D01*
X198197500Y-68907528D01*
X198197500Y-69204972D01*
X198255529Y-69496701D01*
X198369356Y-69771503D01*
X198534607Y-70018819D01*
X198744931Y-70229143D01*
X198992247Y-70394394D01*
X199267049Y-70508221D01*
X199558778Y-70566250D01*
X199856222Y-70566250D01*
X200147951Y-70508221D01*
X200422753Y-70394394D01*
X200670069Y-70229143D01*
X200880393Y-70018819D01*
X201045644Y-69771503D01*
X201159471Y-69496701D01*
X201217500Y-69204972D01*
X201217500Y-68907528D01*
X201195580Y-68797326D01*
X202158600Y-68797326D01*
X202158600Y-69315174D01*
X202259627Y-69823072D01*
X202457799Y-70301501D01*
X202745500Y-70732076D01*
X203111674Y-71098250D01*
X203542249Y-71385951D01*
X204020678Y-71584123D01*
X204528576Y-71685150D01*
X205046424Y-71685150D01*
X205554322Y-71584123D01*
X206032751Y-71385951D01*
X206463326Y-71098250D01*
X206829500Y-70732076D01*
X207117201Y-70301501D01*
X207315373Y-69823072D01*
X207416400Y-69315174D01*
X207416400Y-68797326D01*
X207315373Y-68289428D01*
X207279792Y-68203529D01*
X207586198Y-68408262D01*
X207974744Y-68569203D01*
X208387221Y-68651250D01*
X208408477Y-68651250D01*
X208357500Y-68907528D01*
X208357500Y-69204972D01*
X208415529Y-69496701D01*
X208529356Y-69771503D01*
X208694607Y-70018819D01*
X208904931Y-70229143D01*
X209152247Y-70394394D01*
X209427049Y-70508221D01*
X209718778Y-70566250D01*
X210016222Y-70566250D01*
X210307951Y-70508221D01*
X210582753Y-70394394D01*
X210830069Y-70229143D01*
X211040393Y-70018819D01*
X211205644Y-69771503D01*
X211319471Y-69496701D01*
X211377500Y-69204972D01*
X211377500Y-68907528D01*
X217247500Y-68907528D01*
X217247500Y-69204972D01*
X217305529Y-69496701D01*
X217419356Y-69771503D01*
X217584607Y-70018819D01*
X217794931Y-70229143D01*
X218042247Y-70394394D01*
X218317049Y-70508221D01*
X218608778Y-70566250D01*
X218906222Y-70566250D01*
X219197951Y-70508221D01*
X219472753Y-70394394D01*
X219720069Y-70229143D01*
X219930393Y-70018819D01*
X220095644Y-69771503D01*
X220209471Y-69496701D01*
X220267500Y-69204972D01*
X220267500Y-68907528D01*
X220245580Y-68797326D01*
X221208600Y-68797326D01*
X221208600Y-69315174D01*
X221309627Y-69823072D01*
X221507799Y-70301501D01*
X221795500Y-70732076D01*
X222161674Y-71098250D01*
X222592249Y-71385951D01*
X223070678Y-71584123D01*
X223578576Y-71685150D01*
X224096424Y-71685150D01*
X224604322Y-71584123D01*
X225082751Y-71385951D01*
X225513326Y-71098250D01*
X225879500Y-70732076D01*
X226167201Y-70301501D01*
X226365373Y-69823072D01*
X226466400Y-69315174D01*
X226466400Y-68797326D01*
X226365373Y-68289428D01*
X226329792Y-68203529D01*
X226636198Y-68408262D01*
X227024744Y-68569203D01*
X227437221Y-68651250D01*
X227458477Y-68651250D01*
X227407500Y-68907528D01*
X227407500Y-69204972D01*
X227465529Y-69496701D01*
X227579356Y-69771503D01*
X227744607Y-70018819D01*
X227954931Y-70229143D01*
X228202247Y-70394394D01*
X228477049Y-70508221D01*
X228768778Y-70566250D01*
X229066222Y-70566250D01*
X229357951Y-70508221D01*
X229632753Y-70394394D01*
X229880069Y-70229143D01*
X230090393Y-70018819D01*
X230255644Y-69771503D01*
X230369471Y-69496701D01*
X230427500Y-69204972D01*
X230427500Y-68907528D01*
X230369471Y-68615799D01*
X230255644Y-68340997D01*
X230090393Y-68093681D01*
X229880069Y-67883357D01*
X229632753Y-67718106D01*
X229460001Y-67646549D01*
X229533706Y-67536241D01*
X233750387Y-67536241D01*
X233792704Y-67830917D01*
X233891698Y-68111677D01*
X233968571Y-68255496D01*
X234220331Y-68336313D01*
X235087895Y-67468750D01*
X234220331Y-66601187D01*
X233968571Y-66682004D01*
X233840043Y-66950529D01*
X233766371Y-67238969D01*
X233750387Y-67536241D01*
X229533706Y-67536241D01*
X229539512Y-67527552D01*
X229700453Y-67139006D01*
X229782500Y-66726529D01*
X229782500Y-66305971D01*
X229716849Y-65975919D01*
X234399937Y-65975919D01*
X234471468Y-66198750D01*
X234399937Y-66421581D01*
X235267500Y-67289145D01*
X236135063Y-66421581D01*
X236063532Y-66198750D01*
X236135063Y-65975919D01*
X235267500Y-65108355D01*
X234399937Y-65975919D01*
X229716849Y-65975919D01*
X229700453Y-65893494D01*
X229539512Y-65504948D01*
X229305863Y-65155267D01*
X229146837Y-64996241D01*
X233750387Y-64996241D01*
X233792704Y-65290917D01*
X233891698Y-65571677D01*
X233968571Y-65715496D01*
X234220331Y-65796313D01*
X235087895Y-64928750D01*
X235447105Y-64928750D01*
X236314669Y-65796313D01*
X236566429Y-65715496D01*
X236694957Y-65446971D01*
X236768629Y-65158531D01*
X236784613Y-64861259D01*
X236742296Y-64566583D01*
X236643302Y-64285823D01*
X236566429Y-64142004D01*
X236314669Y-64061187D01*
X235447105Y-64928750D01*
X235087895Y-64928750D01*
X234220331Y-64061187D01*
X233968571Y-64142004D01*
X233840043Y-64410529D01*
X233766371Y-64698969D01*
X233750387Y-64996241D01*
X229146837Y-64996241D01*
X229008483Y-64857887D01*
X228658802Y-64624238D01*
X228270256Y-64463297D01*
X227857779Y-64381250D01*
X227437221Y-64381250D01*
X227024744Y-64463297D01*
X226636198Y-64624238D01*
X226286517Y-64857887D01*
X225989137Y-65155267D01*
X225755488Y-65504948D01*
X225594547Y-65893494D01*
X225512500Y-66305971D01*
X225512500Y-66726529D01*
X225583737Y-67084661D01*
X225513326Y-67014250D01*
X225082751Y-66726549D01*
X224604322Y-66528377D01*
X224096424Y-66427350D01*
X223578576Y-66427350D01*
X223070678Y-66528377D01*
X222592249Y-66726549D01*
X222161674Y-67014250D01*
X221795500Y-67380424D01*
X221507799Y-67810999D01*
X221309627Y-68289428D01*
X221208600Y-68797326D01*
X220245580Y-68797326D01*
X220209471Y-68615799D01*
X220095644Y-68340997D01*
X219930393Y-68093681D01*
X219720069Y-67883357D01*
X219472753Y-67718106D01*
X219197951Y-67604279D01*
X218906222Y-67546250D01*
X218608778Y-67546250D01*
X218317049Y-67604279D01*
X218042247Y-67718106D01*
X217794931Y-67883357D01*
X217584607Y-68093681D01*
X217419356Y-68340997D01*
X217305529Y-68615799D01*
X217247500Y-68907528D01*
X211377500Y-68907528D01*
X211319471Y-68615799D01*
X211205644Y-68340997D01*
X211040393Y-68093681D01*
X210830069Y-67883357D01*
X210582753Y-67718106D01*
X210410001Y-67646549D01*
X210489512Y-67527552D01*
X210650453Y-67139006D01*
X210732500Y-66726529D01*
X210732500Y-66305971D01*
X210650453Y-65893494D01*
X210489512Y-65504948D01*
X210255863Y-65155267D01*
X209958483Y-64857887D01*
X209608802Y-64624238D01*
X209220256Y-64463297D01*
X208807779Y-64381250D01*
X208387221Y-64381250D01*
X207974744Y-64463297D01*
X207586198Y-64624238D01*
X207236517Y-64857887D01*
X206939137Y-65155267D01*
X206705488Y-65504948D01*
X206544547Y-65893494D01*
X206462500Y-66305971D01*
X206462500Y-66726529D01*
X206533737Y-67084661D01*
X206463326Y-67014250D01*
X206032751Y-66726549D01*
X205554322Y-66528377D01*
X205046424Y-66427350D01*
X204528576Y-66427350D01*
X204020678Y-66528377D01*
X203542249Y-66726549D01*
X203111674Y-67014250D01*
X202745500Y-67380424D01*
X202457799Y-67810999D01*
X202259627Y-68289428D01*
X202158600Y-68797326D01*
X201195580Y-68797326D01*
X201159471Y-68615799D01*
X201045644Y-68340997D01*
X200880393Y-68093681D01*
X200670069Y-67883357D01*
X200422753Y-67718106D01*
X200147951Y-67604279D01*
X199856222Y-67546250D01*
X199558778Y-67546250D01*
X199267049Y-67604279D01*
X198992247Y-67718106D01*
X198744931Y-67883357D01*
X198534607Y-68093681D01*
X198369356Y-68340997D01*
X198255529Y-68615799D01*
X198197500Y-68907528D01*
X192327500Y-68907528D01*
X192269471Y-68615799D01*
X192155644Y-68340997D01*
X191990393Y-68093681D01*
X191780069Y-67883357D01*
X191532753Y-67718106D01*
X191360001Y-67646549D01*
X191439512Y-67527552D01*
X191600453Y-67139006D01*
X191682500Y-66726529D01*
X191682500Y-66305971D01*
X191600453Y-65893494D01*
X191439512Y-65504948D01*
X191205863Y-65155267D01*
X190908483Y-64857887D01*
X190558802Y-64624238D01*
X190170256Y-64463297D01*
X189757779Y-64381250D01*
X189337221Y-64381250D01*
X188924744Y-64463297D01*
X188536198Y-64624238D01*
X188186517Y-64857887D01*
X187889137Y-65155267D01*
X187655488Y-65504948D01*
X187494547Y-65893494D01*
X187412500Y-66305971D01*
X187412500Y-66726529D01*
X187483737Y-67084661D01*
X187413326Y-67014250D01*
X186982751Y-66726549D01*
X186504322Y-66528377D01*
X185996424Y-66427350D01*
X185478576Y-66427350D01*
X184970678Y-66528377D01*
X184492249Y-66726549D01*
X184061674Y-67014250D01*
X183695500Y-67380424D01*
X183407799Y-67810999D01*
X183209627Y-68289428D01*
X183108600Y-68797326D01*
X182145580Y-68797326D01*
X182109471Y-68615799D01*
X181995644Y-68340997D01*
X181830393Y-68093681D01*
X181620069Y-67883357D01*
X181372753Y-67718106D01*
X181097951Y-67604279D01*
X180806222Y-67546250D01*
X180508778Y-67546250D01*
X180217049Y-67604279D01*
X179942247Y-67718106D01*
X179694931Y-67883357D01*
X179484607Y-68093681D01*
X179319356Y-68340997D01*
X179205529Y-68615799D01*
X179147500Y-68907528D01*
X172160000Y-68907528D01*
X172160000Y-63765971D01*
X181062500Y-63765971D01*
X181062500Y-64186529D01*
X181144547Y-64599006D01*
X181305488Y-64987552D01*
X181539137Y-65337233D01*
X181836517Y-65634613D01*
X182186198Y-65868262D01*
X182574744Y-66029203D01*
X182987221Y-66111250D01*
X183407779Y-66111250D01*
X183820256Y-66029203D01*
X184208802Y-65868262D01*
X184558483Y-65634613D01*
X184855863Y-65337233D01*
X185089512Y-64987552D01*
X185250453Y-64599006D01*
X185332500Y-64186529D01*
X185332500Y-63765971D01*
X200112500Y-63765971D01*
X200112500Y-64186529D01*
X200194547Y-64599006D01*
X200355488Y-64987552D01*
X200589137Y-65337233D01*
X200886517Y-65634613D01*
X201236198Y-65868262D01*
X201624744Y-66029203D01*
X202037221Y-66111250D01*
X202457779Y-66111250D01*
X202870256Y-66029203D01*
X203258802Y-65868262D01*
X203608483Y-65634613D01*
X203905863Y-65337233D01*
X204139512Y-64987552D01*
X204300453Y-64599006D01*
X204382500Y-64186529D01*
X204382500Y-63765971D01*
X219162500Y-63765971D01*
X219162500Y-64186529D01*
X219244547Y-64599006D01*
X219405488Y-64987552D01*
X219639137Y-65337233D01*
X219936517Y-65634613D01*
X220286198Y-65868262D01*
X220674744Y-66029203D01*
X221087221Y-66111250D01*
X221507779Y-66111250D01*
X221920256Y-66029203D01*
X222308802Y-65868262D01*
X222658483Y-65634613D01*
X222955863Y-65337233D01*
X223189512Y-64987552D01*
X223350453Y-64599006D01*
X223432500Y-64186529D01*
X223432500Y-63765971D01*
X223350453Y-63353494D01*
X223189512Y-62964948D01*
X222955863Y-62615267D01*
X222658483Y-62317887D01*
X222308802Y-62084238D01*
X221920256Y-61923297D01*
X221507779Y-61841250D01*
X221087221Y-61841250D01*
X220674744Y-61923297D01*
X220286198Y-62084238D01*
X219936517Y-62317887D01*
X219639137Y-62615267D01*
X219405488Y-62964948D01*
X219244547Y-63353494D01*
X219162500Y-63765971D01*
X204382500Y-63765971D01*
X204300453Y-63353494D01*
X204139512Y-62964948D01*
X203905863Y-62615267D01*
X203608483Y-62317887D01*
X203258802Y-62084238D01*
X202870256Y-61923297D01*
X202457779Y-61841250D01*
X202037221Y-61841250D01*
X201624744Y-61923297D01*
X201236198Y-62084238D01*
X200886517Y-62317887D01*
X200589137Y-62615267D01*
X200355488Y-62964948D01*
X200194547Y-63353494D01*
X200112500Y-63765971D01*
X185332500Y-63765971D01*
X185250453Y-63353494D01*
X185089512Y-62964948D01*
X184855863Y-62615267D01*
X184558483Y-62317887D01*
X184208802Y-62084238D01*
X183820256Y-61923297D01*
X183407779Y-61841250D01*
X182987221Y-61841250D01*
X182574744Y-61923297D01*
X182186198Y-62084238D01*
X181836517Y-62317887D01*
X181539137Y-62615267D01*
X181305488Y-62964948D01*
X181144547Y-63353494D01*
X181062500Y-63765971D01*
X172160000Y-63765971D01*
X172160000Y-58435126D01*
X172162925Y-58449831D01*
X172293713Y-58765581D01*
X172483587Y-59049748D01*
X172725252Y-59291413D01*
X173009419Y-59481287D01*
X173325169Y-59612075D01*
X173660367Y-59678750D01*
X174002133Y-59678750D01*
X174337331Y-59612075D01*
X174653081Y-59481287D01*
X174937248Y-59291413D01*
X175178913Y-59049748D01*
X175230561Y-58972450D01*
X233753128Y-58972450D01*
X233753128Y-60725050D01*
X233765388Y-60849532D01*
X233801698Y-60969230D01*
X233860663Y-61079544D01*
X233940015Y-61176235D01*
X234036706Y-61255587D01*
X234147020Y-61314552D01*
X234191042Y-61327906D01*
X234093596Y-61425352D01*
X233928203Y-61672881D01*
X233814278Y-61947920D01*
X233756200Y-62239900D01*
X233756200Y-62537600D01*
X233814278Y-62829580D01*
X233928203Y-63104619D01*
X234093596Y-63352148D01*
X234304102Y-63562654D01*
X234467309Y-63671705D01*
X234399937Y-63881581D01*
X235267500Y-64749145D01*
X236135063Y-63881581D01*
X236067691Y-63671705D01*
X236230898Y-63562654D01*
X236441404Y-63352148D01*
X236606797Y-63104619D01*
X236720722Y-62829580D01*
X236778800Y-62537600D01*
X236778800Y-62456241D01*
X248990387Y-62456241D01*
X249032704Y-62750917D01*
X249131698Y-63031677D01*
X249208571Y-63175496D01*
X249460331Y-63256313D01*
X250327895Y-62388750D01*
X250687105Y-62388750D01*
X251554669Y-63256313D01*
X251806429Y-63175496D01*
X251934957Y-62906971D01*
X252008629Y-62618531D01*
X252024613Y-62321259D01*
X251982296Y-62026583D01*
X251883302Y-61745823D01*
X251806429Y-61602004D01*
X251554669Y-61521187D01*
X250687105Y-62388750D01*
X250327895Y-62388750D01*
X249460331Y-61521187D01*
X249208571Y-61602004D01*
X249080043Y-61870529D01*
X249006371Y-62158969D01*
X248990387Y-62456241D01*
X236778800Y-62456241D01*
X236778800Y-62239900D01*
X236720722Y-61947920D01*
X236606797Y-61672881D01*
X236441404Y-61425352D01*
X236343958Y-61327906D01*
X236387980Y-61314552D01*
X236498294Y-61255587D01*
X236594985Y-61176235D01*
X236674337Y-61079544D01*
X236733302Y-60969230D01*
X236769612Y-60849532D01*
X236781872Y-60725050D01*
X236781872Y-59699900D01*
X248996200Y-59699900D01*
X248996200Y-59997600D01*
X249054278Y-60289580D01*
X249168203Y-60564619D01*
X249333596Y-60812148D01*
X249544102Y-61022654D01*
X249707309Y-61131705D01*
X249639937Y-61341581D01*
X250507500Y-62209145D01*
X251375063Y-61341581D01*
X251307691Y-61131705D01*
X251470898Y-61022654D01*
X251681404Y-60812148D01*
X251846797Y-60564619D01*
X251960722Y-60289580D01*
X252018800Y-59997600D01*
X252018800Y-59699900D01*
X251960722Y-59407920D01*
X251846797Y-59132881D01*
X251681404Y-58885352D01*
X251470898Y-58674846D01*
X251223369Y-58509453D01*
X250948330Y-58395528D01*
X250656350Y-58337450D01*
X250358650Y-58337450D01*
X250066670Y-58395528D01*
X249791631Y-58509453D01*
X249544102Y-58674846D01*
X249333596Y-58885352D01*
X249168203Y-59132881D01*
X249054278Y-59407920D01*
X248996200Y-59699900D01*
X236781872Y-59699900D01*
X236781872Y-58972450D01*
X236769612Y-58847968D01*
X236733302Y-58728270D01*
X236674337Y-58617956D01*
X236594985Y-58521265D01*
X236498294Y-58441913D01*
X236387980Y-58382948D01*
X236268282Y-58346638D01*
X236143800Y-58334378D01*
X234391200Y-58334378D01*
X234266718Y-58346638D01*
X234147020Y-58382948D01*
X234036706Y-58441913D01*
X233940015Y-58521265D01*
X233860663Y-58617956D01*
X233801698Y-58728270D01*
X233765388Y-58847968D01*
X233753128Y-58972450D01*
X175230561Y-58972450D01*
X175368787Y-58765581D01*
X175499575Y-58449831D01*
X175566250Y-58114633D01*
X175566250Y-57772867D01*
X175499575Y-57437669D01*
X175368787Y-57121919D01*
X175178913Y-56837752D01*
X174937248Y-56596087D01*
X174653081Y-56406213D01*
X174337331Y-56275425D01*
X174322626Y-56272500D01*
X253508624Y-56272500D01*
X253493919Y-56275425D01*
G37*
X253493919Y-56275425D02*
X253178169Y-56406213D01*
X252894002Y-56596087D01*
X252652337Y-56837752D01*
X252462463Y-57121919D01*
X252331675Y-57437669D01*
X252265000Y-57772867D01*
X252265000Y-58114633D01*
X252331675Y-58449831D01*
X252462463Y-58765581D01*
X252652337Y-59049748D01*
X252894002Y-59291413D01*
X253178169Y-59481287D01*
X253493919Y-59612075D01*
X253829117Y-59678750D01*
X254170883Y-59678750D01*
X254506081Y-59612075D01*
X254821831Y-59481287D01*
X255105998Y-59291413D01*
X255347663Y-59049748D01*
X255537537Y-58765581D01*
X255668325Y-58449831D01*
X255671251Y-58435121D01*
X255671250Y-91680823D01*
X255616863Y-91644482D01*
X255604400Y-91639320D01*
X255604400Y-67554823D01*
X255608086Y-67517400D01*
X255604400Y-67479974D01*
X255593374Y-67368022D01*
X255549802Y-67224385D01*
X255486836Y-67106583D01*
X255479045Y-67092007D01*
X255450209Y-67056871D01*
X255383822Y-66975978D01*
X255354741Y-66952112D01*
X254933584Y-66530954D01*
X254933579Y-66530948D01*
X252819034Y-64416404D01*
X252795172Y-64387328D01*
X252679142Y-64292105D01*
X252546765Y-64221348D01*
X252403128Y-64177776D01*
X252291176Y-64166750D01*
X252291173Y-64166750D01*
X252253750Y-64163064D01*
X252216327Y-64166750D01*
X251815973Y-64166750D01*
X251681404Y-63965352D01*
X251470898Y-63754846D01*
X251307691Y-63645795D01*
X251375063Y-63435919D01*
X250507500Y-62568355D01*
X249639937Y-63435919D01*
X249707309Y-63645795D01*
X249544102Y-63754846D01*
X249333596Y-63965352D01*
X249168203Y-64212881D01*
X249054278Y-64487920D01*
X248996200Y-64779900D01*
X248996200Y-65077600D01*
X249054278Y-65369580D01*
X249168203Y-65644619D01*
X249333596Y-65892148D01*
X249544102Y-66102654D01*
X249687920Y-66198750D01*
X249544102Y-66294846D01*
X249333596Y-66505352D01*
X249168203Y-66752881D01*
X249054278Y-67027920D01*
X248996200Y-67319900D01*
X248996200Y-67617600D01*
X249054278Y-67909580D01*
X249109728Y-68043449D01*
X236667924Y-68043449D01*
X236694957Y-67986971D01*
X236768629Y-67698531D01*
X236784613Y-67401259D01*
X236742296Y-67106583D01*
X236643302Y-66825823D01*
X236566429Y-66682004D01*
X236314669Y-66601187D01*
X235447105Y-67468750D01*
X235461248Y-67482892D01*
X235281643Y-67662498D01*
X235267500Y-67648355D01*
X234399937Y-68515919D01*
X234467309Y-68725795D01*
X234304102Y-68834846D01*
X234093596Y-69045352D01*
X233928203Y-69292881D01*
X233814278Y-69567920D01*
X233756200Y-69859900D01*
X233756200Y-70157600D01*
X233814278Y-70449580D01*
X233928203Y-70724619D01*
X234093596Y-70972148D01*
X234304102Y-71182654D01*
X234447920Y-71278750D01*
X234304102Y-71374846D01*
X234093596Y-71585352D01*
X233928203Y-71832881D01*
X233814278Y-72107920D01*
X233756200Y-72399900D01*
X233756200Y-72697600D01*
X233814278Y-72989580D01*
X233928203Y-73264619D01*
X234093596Y-73512148D01*
X234304102Y-73722654D01*
X234447920Y-73818750D01*
X234304102Y-73914846D01*
X234093596Y-74125352D01*
X233928203Y-74372881D01*
X233814278Y-74647920D01*
X233756200Y-74939900D01*
X233756200Y-75237600D01*
X233814278Y-75529580D01*
X233869728Y-75663449D01*
X232251262Y-75663449D01*
X232209325Y-75621512D01*
X232039807Y-75508244D01*
X231851449Y-75430223D01*
X231651490Y-75390449D01*
X231447612Y-75390449D01*
X231247653Y-75430223D01*
X231059295Y-75508244D01*
X230889777Y-75621512D01*
X230745614Y-75765675D01*
X230632346Y-75935193D01*
X230554325Y-76123551D01*
X230514551Y-76323510D01*
X230514551Y-76527388D01*
X230554325Y-76727347D01*
X230632346Y-76915705D01*
X230745614Y-77085223D01*
X230889777Y-77229386D01*
X231059295Y-77342654D01*
X231247653Y-77420675D01*
X231447612Y-77460449D01*
X231651490Y-77460449D01*
X231851449Y-77420675D01*
X232039807Y-77342654D01*
X232209325Y-77229386D01*
X232251262Y-77187449D01*
X233814473Y-77187449D01*
X233814278Y-77187920D01*
X233756200Y-77479900D01*
X233756200Y-77777600D01*
X233814278Y-78069580D01*
X233928203Y-78344619D01*
X234093596Y-78592148D01*
X234304102Y-78802654D01*
X234447920Y-78898750D01*
X234304102Y-78994846D01*
X234093596Y-79205352D01*
X233928203Y-79452881D01*
X233814278Y-79727920D01*
X233756200Y-80019900D01*
X233756200Y-80317600D01*
X233814278Y-80609580D01*
X233928203Y-80884619D01*
X234093596Y-81132148D01*
X234304102Y-81342654D01*
X234447920Y-81438750D01*
X234304102Y-81534846D01*
X234093596Y-81745352D01*
X233928203Y-81992881D01*
X233814278Y-82267920D01*
X233756200Y-82559900D01*
X233756200Y-82857600D01*
X233814278Y-83149580D01*
X233928203Y-83424619D01*
X234093596Y-83672148D01*
X234304102Y-83882654D01*
X234447920Y-83978750D01*
X234304102Y-84074846D01*
X234093596Y-84285352D01*
X233928203Y-84532881D01*
X233814278Y-84807920D01*
X233756200Y-85099900D01*
X233756200Y-85397600D01*
X233814278Y-85689580D01*
X233928203Y-85964619D01*
X234093596Y-86212148D01*
X234304102Y-86422654D01*
X234447920Y-86518750D01*
X234304102Y-86614846D01*
X234093596Y-86825352D01*
X233928203Y-87072881D01*
X233814278Y-87347920D01*
X233756200Y-87639900D01*
X233756200Y-87937600D01*
X233814278Y-88229580D01*
X233928203Y-88504619D01*
X234093596Y-88752148D01*
X234304102Y-88962654D01*
X234551631Y-89128047D01*
X234826670Y-89241972D01*
X235118650Y-89300050D01*
X235416350Y-89300050D01*
X235708330Y-89241972D01*
X235983369Y-89128047D01*
X236230898Y-88962654D01*
X236441404Y-88752148D01*
X236606797Y-88504619D01*
X236720722Y-88229580D01*
X236778800Y-87937600D01*
X236778800Y-87639900D01*
X236720722Y-87347920D01*
X236606797Y-87072881D01*
X236441404Y-86825352D01*
X236230898Y-86614846D01*
X236087080Y-86518750D01*
X236230898Y-86422654D01*
X236441404Y-86212148D01*
X236606797Y-85964619D01*
X236720722Y-85689580D01*
X236778800Y-85397600D01*
X236778800Y-85099900D01*
X236720722Y-84807920D01*
X236606797Y-84532881D01*
X236441404Y-84285352D01*
X236230898Y-84074846D01*
X236087080Y-83978750D01*
X236230898Y-83882654D01*
X236441404Y-83672148D01*
X236606797Y-83424619D01*
X236720722Y-83149580D01*
X236778800Y-82857600D01*
X236778800Y-82559900D01*
X236720722Y-82267920D01*
X236606797Y-81992881D01*
X236441404Y-81745352D01*
X236230898Y-81534846D01*
X236087080Y-81438750D01*
X236230898Y-81342654D01*
X236441404Y-81132148D01*
X236606797Y-80884619D01*
X236720722Y-80609580D01*
X236778800Y-80317600D01*
X236778800Y-80019900D01*
X236720722Y-79727920D01*
X236606797Y-79452881D01*
X236441404Y-79205352D01*
X236230898Y-78994846D01*
X236087080Y-78898750D01*
X236230898Y-78802654D01*
X236441404Y-78592148D01*
X236606797Y-78344619D01*
X236720722Y-78069580D01*
X236778800Y-77777600D01*
X236778800Y-77479900D01*
X236720722Y-77187920D01*
X236720527Y-77187449D01*
X244727671Y-77187449D01*
X249314361Y-81774140D01*
X249168203Y-81992881D01*
X249054278Y-82267920D01*
X248996200Y-82559900D01*
X248996200Y-82857600D01*
X249054278Y-83149580D01*
X249168203Y-83424619D01*
X249333596Y-83672148D01*
X249544102Y-83882654D01*
X249687920Y-83978750D01*
X249544102Y-84074846D01*
X249333596Y-84285352D01*
X249199027Y-84486750D01*
X244509644Y-84486750D01*
X244472221Y-84483064D01*
X244434798Y-84486750D01*
X244434795Y-84486750D01*
X244322843Y-84497776D01*
X244179206Y-84541348D01*
X244117585Y-84574285D01*
X244046828Y-84612105D01*
X244004440Y-84646893D01*
X243930799Y-84707328D01*
X243906937Y-84736404D01*
X237124303Y-91519038D01*
X237085975Y-91326351D01*
X237007954Y-91137993D01*
X236894686Y-90968475D01*
X236750523Y-90824312D01*
X236581005Y-90711044D01*
X236392647Y-90633023D01*
X236192688Y-90593249D01*
X235988810Y-90593249D01*
X235788851Y-90633023D01*
X235600493Y-90711044D01*
X235463246Y-90802749D01*
X227400149Y-90802749D01*
X227359598Y-90798755D01*
X227319048Y-90802749D01*
X227319046Y-90802749D01*
X227197773Y-90814693D01*
X227062070Y-90855858D01*
X227042165Y-90861896D01*
X226898756Y-90938550D01*
X226862293Y-90968475D01*
X226773058Y-91041708D01*
X226747205Y-91073210D01*
X224076216Y-93744200D01*
X224044709Y-93770057D01*
X223975464Y-93854433D01*
X223941551Y-93895756D01*
X223873952Y-94022225D01*
X223864897Y-94039165D01*
X223817694Y-94194773D01*
X223812004Y-94252547D01*
X223801756Y-94356598D01*
X223805750Y-94397149D01*
X223805751Y-102051816D01*
X223398100Y-102459467D01*
X223432500Y-102286529D01*
X223432500Y-101865971D01*
X223350453Y-101453494D01*
X223189512Y-101064948D01*
X222955863Y-100715267D01*
X222658483Y-100417887D01*
X222308802Y-100184238D01*
X221920256Y-100023297D01*
X221507779Y-99941250D01*
X221087221Y-99941250D01*
X220674744Y-100023297D01*
X220286198Y-100184238D01*
X219936517Y-100417887D01*
X219639137Y-100715267D01*
X219405488Y-101064948D01*
X219244547Y-101453494D01*
X219162500Y-101865971D01*
X219162500Y-102286529D01*
X219244547Y-102699006D01*
X219405488Y-103087552D01*
X219639137Y-103437233D01*
X219936517Y-103734613D01*
X220258119Y-103949500D01*
X217248183Y-103949500D01*
X214824182Y-101525500D01*
X216759450Y-101525500D01*
X216800000Y-101529494D01*
X216840550Y-101525500D01*
X216840553Y-101525500D01*
X216961826Y-101513556D01*
X217117434Y-101466353D01*
X217260842Y-101389699D01*
X217386541Y-101286541D01*
X217412398Y-101255034D01*
X222805046Y-95862388D01*
X222836541Y-95836541D01*
X222862389Y-95805045D01*
X222862392Y-95805042D01*
X222939699Y-95710843D01*
X223016353Y-95567434D01*
X223025839Y-95536163D01*
X223063556Y-95411826D01*
X223075500Y-95290553D01*
X223075500Y-95290551D01*
X223079494Y-95250000D01*
X223075500Y-95209450D01*
X223075500Y-92909300D01*
X223079494Y-92868749D01*
X223072761Y-92800385D01*
X223063556Y-92706924D01*
X223016353Y-92551316D01*
X222958648Y-92443358D01*
X222939699Y-92407907D01*
X222869455Y-92322315D01*
X222836541Y-92282209D01*
X222805039Y-92256356D01*
X220481148Y-89932466D01*
X220455291Y-89900959D01*
X220329592Y-89797801D01*
X220186184Y-89721147D01*
X220030576Y-89673944D01*
X219909303Y-89662000D01*
X219909300Y-89662000D01*
X219868750Y-89658006D01*
X219828200Y-89662000D01*
X217035683Y-89662000D01*
X215331211Y-87957528D01*
X217247500Y-87957528D01*
X217247500Y-88254972D01*
X217305529Y-88546701D01*
X217419356Y-88821503D01*
X217584607Y-89068819D01*
X217794931Y-89279143D01*
X218042247Y-89444394D01*
X218317049Y-89558221D01*
X218608778Y-89616250D01*
X218906222Y-89616250D01*
X219197951Y-89558221D01*
X219472753Y-89444394D01*
X219720069Y-89279143D01*
X219930393Y-89068819D01*
X220095644Y-88821503D01*
X220209471Y-88546701D01*
X220267500Y-88254972D01*
X220267500Y-87957528D01*
X220245580Y-87847326D01*
X221208600Y-87847326D01*
X221208600Y-88365174D01*
X221309627Y-88873072D01*
X221507799Y-89351501D01*
X221795500Y-89782076D01*
X222161674Y-90148250D01*
X222592249Y-90435951D01*
X223070678Y-90634123D01*
X223578576Y-90735150D01*
X224096424Y-90735150D01*
X224604322Y-90634123D01*
X225082751Y-90435951D01*
X225513326Y-90148250D01*
X225879500Y-89782076D01*
X226167201Y-89351501D01*
X226365373Y-88873072D01*
X226466400Y-88365174D01*
X226466400Y-87847326D01*
X226365373Y-87339428D01*
X226329792Y-87253529D01*
X226636198Y-87458262D01*
X227024744Y-87619203D01*
X227437221Y-87701250D01*
X227458477Y-87701250D01*
X227407500Y-87957528D01*
X227407500Y-88254972D01*
X227465529Y-88546701D01*
X227579356Y-88821503D01*
X227744607Y-89068819D01*
X227954931Y-89279143D01*
X228202247Y-89444394D01*
X228477049Y-89558221D01*
X228768778Y-89616250D01*
X229066222Y-89616250D01*
X229357951Y-89558221D01*
X229632753Y-89444394D01*
X229880069Y-89279143D01*
X230090393Y-89068819D01*
X230255644Y-88821503D01*
X230369471Y-88546701D01*
X230427500Y-88254972D01*
X230427500Y-87957528D01*
X230369471Y-87665799D01*
X230255644Y-87390997D01*
X230090393Y-87143681D01*
X229880069Y-86933357D01*
X229632753Y-86768106D01*
X229460001Y-86696549D01*
X229539512Y-86577552D01*
X229700453Y-86189006D01*
X229782500Y-85776529D01*
X229782500Y-85355971D01*
X229700453Y-84943494D01*
X229539512Y-84554948D01*
X229305863Y-84205267D01*
X229008483Y-83907887D01*
X228658802Y-83674238D01*
X228270256Y-83513297D01*
X227857779Y-83431250D01*
X227437221Y-83431250D01*
X227024744Y-83513297D01*
X226636198Y-83674238D01*
X226286517Y-83907887D01*
X225989137Y-84205267D01*
X225755488Y-84554948D01*
X225594547Y-84943494D01*
X225512500Y-85355971D01*
X225512500Y-85776529D01*
X225583737Y-86134661D01*
X225513326Y-86064250D01*
X225082751Y-85776549D01*
X224604322Y-85578377D01*
X224096424Y-85477350D01*
X223578576Y-85477350D01*
X223070678Y-85578377D01*
X222592249Y-85776549D01*
X222161674Y-86064250D01*
X221795500Y-86430424D01*
X221507799Y-86860999D01*
X221309627Y-87339428D01*
X221208600Y-87847326D01*
X220245580Y-87847326D01*
X220209471Y-87665799D01*
X220095644Y-87390997D01*
X219930393Y-87143681D01*
X219720069Y-86933357D01*
X219472753Y-86768106D01*
X219197951Y-86654279D01*
X218906222Y-86596250D01*
X218608778Y-86596250D01*
X218317049Y-86654279D01*
X218042247Y-86768106D01*
X217794931Y-86933357D01*
X217584607Y-87143681D01*
X217419356Y-87390997D01*
X217305529Y-87665799D01*
X217247500Y-87957528D01*
X215331211Y-87957528D01*
X213550500Y-86176818D01*
X213550500Y-82815971D01*
X219162500Y-82815971D01*
X219162500Y-83236529D01*
X219244547Y-83649006D01*
X219405488Y-84037552D01*
X219639137Y-84387233D01*
X219936517Y-84684613D01*
X220286198Y-84918262D01*
X220674744Y-85079203D01*
X221087221Y-85161250D01*
X221507779Y-85161250D01*
X221920256Y-85079203D01*
X222308802Y-84918262D01*
X222658483Y-84684613D01*
X222955863Y-84387233D01*
X223189512Y-84037552D01*
X223350453Y-83649006D01*
X223432500Y-83236529D01*
X223432500Y-82815971D01*
X223350453Y-82403494D01*
X223189512Y-82014948D01*
X222955863Y-81665267D01*
X222658483Y-81367887D01*
X222308802Y-81134238D01*
X221920256Y-80973297D01*
X221507779Y-80891250D01*
X221087221Y-80891250D01*
X220674744Y-80973297D01*
X220286198Y-81134238D01*
X219936517Y-81367887D01*
X219639137Y-81665267D01*
X219405488Y-82014948D01*
X219244547Y-82403494D01*
X219162500Y-82815971D01*
X213550500Y-82815971D01*
X213550500Y-82383753D01*
X213642205Y-82246506D01*
X213720226Y-82058148D01*
X213760000Y-81858189D01*
X213760000Y-81654311D01*
X213755028Y-81629311D01*
X214890000Y-81629311D01*
X214890000Y-81833189D01*
X214929774Y-82033148D01*
X215007795Y-82221506D01*
X215121063Y-82391024D01*
X215265226Y-82535187D01*
X215434744Y-82648455D01*
X215623102Y-82726476D01*
X215823061Y-82766250D01*
X216026939Y-82766250D01*
X216226898Y-82726476D01*
X216415256Y-82648455D01*
X216584774Y-82535187D01*
X216728937Y-82391024D01*
X216842205Y-82221506D01*
X216920226Y-82033148D01*
X216960000Y-81833189D01*
X216960000Y-81629311D01*
X216920226Y-81429352D01*
X216842205Y-81240994D01*
X216728937Y-81071476D01*
X216584774Y-80927313D01*
X216415256Y-80814045D01*
X216226898Y-80736024D01*
X216026939Y-80696250D01*
X215823061Y-80696250D01*
X215623102Y-80736024D01*
X215434744Y-80814045D01*
X215265226Y-80927313D01*
X215121063Y-81071476D01*
X215007795Y-81240994D01*
X214929774Y-81429352D01*
X214890000Y-81629311D01*
X213755028Y-81629311D01*
X213720226Y-81454352D01*
X213642205Y-81265994D01*
X213528937Y-81096476D01*
X213384774Y-80952313D01*
X213215256Y-80839045D01*
X213026898Y-80761024D01*
X212826939Y-80721250D01*
X212623061Y-80721250D01*
X212423102Y-80761024D01*
X212234744Y-80839045D01*
X212097497Y-80930750D01*
X207209300Y-80930750D01*
X207168749Y-80926756D01*
X207128199Y-80930750D01*
X207128197Y-80930750D01*
X207006924Y-80942694D01*
X206851316Y-80989897D01*
X206707907Y-81066551D01*
X206686675Y-81083976D01*
X206582209Y-81169709D01*
X206556357Y-81201211D01*
X204348100Y-83409467D01*
X204382500Y-83236529D01*
X204382500Y-82815971D01*
X204300453Y-82403494D01*
X204139512Y-82014948D01*
X203905863Y-81665267D01*
X203608483Y-81367887D01*
X203258802Y-81134238D01*
X202870256Y-80973297D01*
X202457779Y-80891250D01*
X202037221Y-80891250D01*
X201624744Y-80973297D01*
X201236198Y-81134238D01*
X200886517Y-81367887D01*
X200589137Y-81665267D01*
X200355488Y-82014948D01*
X200194547Y-82403494D01*
X200112500Y-82815971D01*
X200112500Y-83236529D01*
X200194547Y-83649006D01*
X200355488Y-84037552D01*
X200589137Y-84387233D01*
X200886517Y-84684613D01*
X201208119Y-84899500D01*
X197985684Y-84899500D01*
X194727995Y-81641811D01*
X195827500Y-81641811D01*
X195827500Y-81845689D01*
X195867274Y-82045648D01*
X195945295Y-82234006D01*
X196058563Y-82403524D01*
X196202726Y-82547687D01*
X196372244Y-82660955D01*
X196560602Y-82738976D01*
X196760561Y-82778750D01*
X196964439Y-82778750D01*
X197164398Y-82738976D01*
X197352756Y-82660955D01*
X197522274Y-82547687D01*
X197666437Y-82403524D01*
X197779705Y-82234006D01*
X197857726Y-82045648D01*
X197897500Y-81845689D01*
X197897500Y-81641811D01*
X197857726Y-81441852D01*
X197779705Y-81253494D01*
X197666437Y-81083976D01*
X197522274Y-80939813D01*
X197352756Y-80826545D01*
X197164398Y-80748524D01*
X196964439Y-80708750D01*
X196760561Y-80708750D01*
X196560602Y-80748524D01*
X196372244Y-80826545D01*
X196202726Y-80939813D01*
X196058563Y-81083976D01*
X195945295Y-81253494D01*
X195867274Y-81441852D01*
X195827500Y-81641811D01*
X194727995Y-81641811D01*
X194689929Y-81603746D01*
X194657726Y-81441852D01*
X194579705Y-81253494D01*
X194466437Y-81083976D01*
X194322274Y-80939813D01*
X194152756Y-80826545D01*
X193964398Y-80748524D01*
X193764439Y-80708750D01*
X193560561Y-80708750D01*
X193360602Y-80748524D01*
X193172244Y-80826545D01*
X193002726Y-80939813D01*
X192858563Y-81083976D01*
X192745295Y-81253494D01*
X192667274Y-81441852D01*
X192627500Y-81641811D01*
X192627500Y-81845689D01*
X192667274Y-82045648D01*
X192745295Y-82234006D01*
X192858563Y-82403524D01*
X193002726Y-82547687D01*
X193172244Y-82660955D01*
X193360602Y-82738976D01*
X193522496Y-82771179D01*
X197031361Y-86280045D01*
X197057209Y-86311541D01*
X197088705Y-86337389D01*
X197088708Y-86337392D01*
X197182907Y-86414699D01*
X197247927Y-86449453D01*
X197326316Y-86491353D01*
X197481924Y-86538556D01*
X197603197Y-86550500D01*
X197603199Y-86550500D01*
X197643750Y-86554494D01*
X197684300Y-86550500D01*
X202665268Y-86550500D01*
X202457799Y-86860999D01*
X202259627Y-87339428D01*
X202158600Y-87847326D01*
X202158600Y-88365174D01*
X202259627Y-88873072D01*
X202457799Y-89351501D01*
X202745500Y-89782076D01*
X203111674Y-90148250D01*
X203542249Y-90435951D01*
X204020678Y-90634123D01*
X204528576Y-90735150D01*
X205046424Y-90735150D01*
X205554322Y-90634123D01*
X206032751Y-90435951D01*
X206463326Y-90148250D01*
X206829500Y-89782076D01*
X207117201Y-89351501D01*
X207315373Y-88873072D01*
X207416400Y-88365174D01*
X207416400Y-87847326D01*
X207315373Y-87339428D01*
X207279792Y-87253529D01*
X207586198Y-87458262D01*
X207974744Y-87619203D01*
X208387221Y-87701250D01*
X208408477Y-87701250D01*
X208357500Y-87957528D01*
X208357500Y-88254972D01*
X208415529Y-88546701D01*
X208529356Y-88821503D01*
X208694607Y-89068819D01*
X208904931Y-89279143D01*
X209152247Y-89444394D01*
X209427049Y-89558221D01*
X209718778Y-89616250D01*
X210016222Y-89616250D01*
X210307951Y-89558221D01*
X210582753Y-89444394D01*
X210830069Y-89279143D01*
X211040393Y-89068819D01*
X211205644Y-88821503D01*
X211319471Y-88546701D01*
X211377500Y-88254972D01*
X211377500Y-87957528D01*
X211319471Y-87665799D01*
X211205644Y-87390997D01*
X211040393Y-87143681D01*
X210830069Y-86933357D01*
X210582753Y-86768106D01*
X210410001Y-86696549D01*
X210489512Y-86577552D01*
X210650453Y-86189006D01*
X210732500Y-85776529D01*
X210732500Y-85355971D01*
X210650453Y-84943494D01*
X210489512Y-84554948D01*
X210255863Y-84205267D01*
X209958483Y-83907887D01*
X209608802Y-83674238D01*
X209220256Y-83513297D01*
X208807779Y-83431250D01*
X208387221Y-83431250D01*
X207974744Y-83513297D01*
X207586198Y-83674238D01*
X207236517Y-83907887D01*
X206939137Y-84205267D01*
X206705488Y-84554948D01*
X206544547Y-84943494D01*
X206462500Y-85355971D01*
X206462500Y-85776529D01*
X206533737Y-86134661D01*
X206463326Y-86064250D01*
X206032751Y-85776549D01*
X205554322Y-85578377D01*
X205046424Y-85477350D01*
X204615082Y-85477350D01*
X207510683Y-82581750D01*
X211899501Y-82581750D01*
X211899500Y-86478199D01*
X211895506Y-86518750D01*
X211899500Y-86559300D01*
X211899500Y-86559302D01*
X211911444Y-86680575D01*
X211958647Y-86836183D01*
X212035301Y-86979592D01*
X212069214Y-87020915D01*
X212138459Y-87105291D01*
X212169966Y-87131148D01*
X216081357Y-91042539D01*
X216107209Y-91074041D01*
X216162509Y-91119424D01*
X216232907Y-91177199D01*
X216347542Y-91238473D01*
X216376316Y-91253853D01*
X216531924Y-91301056D01*
X216653197Y-91313000D01*
X216653199Y-91313000D01*
X216693749Y-91316994D01*
X216734300Y-91313000D01*
X219526818Y-91313000D01*
X220356282Y-92142465D01*
X220336351Y-92138500D01*
X220036149Y-92138500D01*
X219741716Y-92197066D01*
X219464365Y-92311949D01*
X219214757Y-92478732D01*
X219002482Y-92691007D01*
X218835699Y-92940615D01*
X218720816Y-93217966D01*
X218662250Y-93512399D01*
X218662250Y-93812601D01*
X218720816Y-94107034D01*
X218835699Y-94384385D01*
X219002482Y-94633993D01*
X219098035Y-94729546D01*
X219090602Y-94731024D01*
X218902244Y-94809045D01*
X218732726Y-94922313D01*
X218690789Y-94964250D01*
X210569211Y-94964250D01*
X210527274Y-94922313D01*
X210357756Y-94809045D01*
X210244881Y-94762290D01*
X210271062Y-94675982D01*
X210283322Y-94551500D01*
X210283322Y-92773500D01*
X210271062Y-92649018D01*
X210234752Y-92529320D01*
X210175787Y-92419006D01*
X210096435Y-92322315D01*
X209999744Y-92242963D01*
X209889430Y-92183998D01*
X209775705Y-92149500D01*
X212129539Y-92149500D01*
X212171476Y-92191437D01*
X212340994Y-92304705D01*
X212529352Y-92382726D01*
X212729311Y-92422500D01*
X212933189Y-92422500D01*
X213133148Y-92382726D01*
X213321506Y-92304705D01*
X213491024Y-92191437D01*
X213635187Y-92047274D01*
X213748455Y-91877756D01*
X213826476Y-91689398D01*
X213866250Y-91489439D01*
X213866250Y-91285561D01*
X213826476Y-91085602D01*
X213748455Y-90897244D01*
X213635187Y-90727726D01*
X213491024Y-90583563D01*
X213321506Y-90470295D01*
X213133148Y-90392274D01*
X212933189Y-90352500D01*
X212729311Y-90352500D01*
X212529352Y-90392274D01*
X212340994Y-90470295D01*
X212171476Y-90583563D01*
X212129539Y-90625500D01*
X207099923Y-90625500D01*
X207062500Y-90621814D01*
X207025077Y-90625500D01*
X207025074Y-90625500D01*
X206913122Y-90636526D01*
X206769485Y-90680098D01*
X206742150Y-90694709D01*
X206637107Y-90750855D01*
X206571212Y-90804934D01*
X206521078Y-90846078D01*
X206497221Y-90875149D01*
X205687871Y-91684499D01*
X205247174Y-91684499D01*
X205209751Y-91680813D01*
X205172328Y-91684499D01*
X205172325Y-91684499D01*
X205060373Y-91695525D01*
X204916736Y-91739097D01*
X204873201Y-91762367D01*
X204784358Y-91809854D01*
X204746251Y-91841128D01*
X204668329Y-91905077D01*
X204644467Y-91934153D01*
X202633987Y-93944633D01*
X202660250Y-93812601D01*
X202660250Y-93512399D01*
X202601684Y-93217966D01*
X202486801Y-92940615D01*
X202320018Y-92691007D01*
X202107743Y-92478732D01*
X201858135Y-92311949D01*
X201580784Y-92197066D01*
X201286351Y-92138500D01*
X200986149Y-92138500D01*
X200691716Y-92197066D01*
X200414365Y-92311949D01*
X200164757Y-92478732D01*
X199952482Y-92691007D01*
X199785699Y-92940615D01*
X199670816Y-93217966D01*
X199612250Y-93512399D01*
X199612250Y-93812601D01*
X199670816Y-94107034D01*
X199785699Y-94384385D01*
X199952482Y-94633993D01*
X200048035Y-94729546D01*
X200040602Y-94731024D01*
X199852244Y-94809045D01*
X199682726Y-94922313D01*
X199640789Y-94964250D01*
X191519211Y-94964250D01*
X191477274Y-94922313D01*
X191307756Y-94809045D01*
X191194881Y-94762290D01*
X191221062Y-94675982D01*
X191233322Y-94551500D01*
X191233322Y-92773500D01*
X191221062Y-92649018D01*
X191184752Y-92529320D01*
X191125787Y-92419006D01*
X191046435Y-92322315D01*
X190949744Y-92242963D01*
X190839430Y-92183998D01*
X190719732Y-92147688D01*
X190595250Y-92135428D01*
X189919853Y-92135428D01*
X190863470Y-91191811D01*
X192627500Y-91191811D01*
X192627500Y-91395689D01*
X192667274Y-91595648D01*
X192745295Y-91784006D01*
X192858563Y-91953524D01*
X193002726Y-92097687D01*
X193172244Y-92210955D01*
X193360602Y-92288976D01*
X193560561Y-92328750D01*
X193764439Y-92328750D01*
X193964398Y-92288976D01*
X194152756Y-92210955D01*
X194322274Y-92097687D01*
X194466437Y-91953524D01*
X194579705Y-91784006D01*
X194657726Y-91595648D01*
X194697500Y-91395689D01*
X194697500Y-91191811D01*
X194657726Y-90991852D01*
X194579705Y-90803494D01*
X194466437Y-90633976D01*
X194322274Y-90489813D01*
X194152756Y-90376545D01*
X193964398Y-90298524D01*
X193764439Y-90258750D01*
X193560561Y-90258750D01*
X193360602Y-90298524D01*
X193172244Y-90376545D01*
X193002726Y-90489813D01*
X192858563Y-90633976D01*
X192745295Y-90803494D01*
X192667274Y-90991852D01*
X192627500Y-91191811D01*
X190863470Y-91191811D01*
X192329782Y-89725500D01*
X193841247Y-89725500D01*
X193978494Y-89817205D01*
X194166852Y-89895226D01*
X194366811Y-89935000D01*
X194570689Y-89935000D01*
X194770648Y-89895226D01*
X194959006Y-89817205D01*
X195128524Y-89703937D01*
X195272687Y-89559774D01*
X195385955Y-89390256D01*
X195463976Y-89201898D01*
X195503750Y-89001939D01*
X195503750Y-88798061D01*
X195463976Y-88598102D01*
X195385955Y-88409744D01*
X195272687Y-88240226D01*
X195128524Y-88096063D01*
X194959006Y-87982795D01*
X194898007Y-87957528D01*
X198197500Y-87957528D01*
X198197500Y-88254972D01*
X198255529Y-88546701D01*
X198369356Y-88821503D01*
X198534607Y-89068819D01*
X198744931Y-89279143D01*
X198992247Y-89444394D01*
X199267049Y-89558221D01*
X199558778Y-89616250D01*
X199856222Y-89616250D01*
X200147951Y-89558221D01*
X200422753Y-89444394D01*
X200670069Y-89279143D01*
X200880393Y-89068819D01*
X201045644Y-88821503D01*
X201159471Y-88546701D01*
X201217500Y-88254972D01*
X201217500Y-87957528D01*
X201159471Y-87665799D01*
X201045644Y-87390997D01*
X200880393Y-87143681D01*
X200670069Y-86933357D01*
X200422753Y-86768106D01*
X200147951Y-86654279D01*
X199856222Y-86596250D01*
X199558778Y-86596250D01*
X199267049Y-86654279D01*
X198992247Y-86768106D01*
X198744931Y-86933357D01*
X198534607Y-87143681D01*
X198369356Y-87390997D01*
X198255529Y-87665799D01*
X198197500Y-87957528D01*
X194898007Y-87957528D01*
X194770648Y-87904774D01*
X194570689Y-87865000D01*
X194366811Y-87865000D01*
X194166852Y-87904774D01*
X193978494Y-87982795D01*
X193841247Y-88074500D01*
X192327500Y-88074500D01*
X192327500Y-87957528D01*
X192269471Y-87665799D01*
X192155644Y-87390997D01*
X191990393Y-87143681D01*
X191780069Y-86933357D01*
X191532753Y-86768106D01*
X191360001Y-86696549D01*
X191439512Y-86577552D01*
X191600453Y-86189006D01*
X191682500Y-85776529D01*
X191682500Y-85355971D01*
X191600453Y-84943494D01*
X191439512Y-84554948D01*
X191205863Y-84205267D01*
X190908483Y-83907887D01*
X190558802Y-83674238D01*
X190170256Y-83513297D01*
X189757779Y-83431250D01*
X189337221Y-83431250D01*
X188924744Y-83513297D01*
X188536198Y-83674238D01*
X188186517Y-83907887D01*
X187889137Y-84205267D01*
X187655488Y-84554948D01*
X187494547Y-84943494D01*
X187412500Y-85355971D01*
X187412500Y-85776529D01*
X187483737Y-86134661D01*
X187413326Y-86064250D01*
X186982751Y-85776549D01*
X186504322Y-85578377D01*
X185996424Y-85477350D01*
X185478576Y-85477350D01*
X184970678Y-85578377D01*
X184492249Y-85776549D01*
X184061674Y-86064250D01*
X183695500Y-86430424D01*
X183407799Y-86860999D01*
X183209627Y-87339428D01*
X183108600Y-87847326D01*
X183108600Y-88365174D01*
X183209627Y-88873072D01*
X183407799Y-89351501D01*
X183695500Y-89782076D01*
X184061674Y-90148250D01*
X184492249Y-90435951D01*
X184970678Y-90634123D01*
X185478576Y-90735150D01*
X185996424Y-90735150D01*
X186504322Y-90634123D01*
X186982751Y-90435951D01*
X187413326Y-90148250D01*
X187779500Y-89782076D01*
X188067201Y-89351501D01*
X188265373Y-88873072D01*
X188366400Y-88365174D01*
X188366400Y-87847326D01*
X188265373Y-87339428D01*
X188229792Y-87253529D01*
X188536198Y-87458262D01*
X188924744Y-87619203D01*
X189337221Y-87701250D01*
X189358477Y-87701250D01*
X189307500Y-87957528D01*
X189307500Y-88254972D01*
X189365529Y-88546701D01*
X189479356Y-88821503D01*
X189644607Y-89068819D01*
X189854931Y-89279143D01*
X190102247Y-89444394D01*
X190225123Y-89495291D01*
X186769966Y-92950450D01*
X186738459Y-92976307D01*
X186673079Y-93055974D01*
X186635301Y-93102006D01*
X186560057Y-93242777D01*
X186558647Y-93245415D01*
X186511444Y-93401023D01*
X186501696Y-93500002D01*
X186495506Y-93562848D01*
X186499500Y-93603399D01*
X186499501Y-97590690D01*
X186495506Y-97631250D01*
X186511445Y-97793076D01*
X186558647Y-97948683D01*
X186635301Y-98092092D01*
X186642288Y-98100605D01*
X186738460Y-98217791D01*
X186769961Y-98243643D01*
X189875106Y-101348789D01*
X189900959Y-101380291D01*
X190026658Y-101483449D01*
X190170066Y-101560103D01*
X190325674Y-101607306D01*
X190446947Y-101619250D01*
X190446956Y-101619250D01*
X190487499Y-101623243D01*
X190528042Y-101619250D01*
X193034997Y-101619250D01*
X193172244Y-101710955D01*
X193360602Y-101788976D01*
X193522496Y-101821179D01*
X197031361Y-105330045D01*
X197057209Y-105361541D01*
X197088705Y-105387389D01*
X197088708Y-105387392D01*
X197182907Y-105464699D01*
X197297544Y-105525974D01*
X197326316Y-105541353D01*
X197481924Y-105588556D01*
X197603197Y-105600500D01*
X197603199Y-105600500D01*
X197643750Y-105604494D01*
X197684300Y-105600500D01*
X198603747Y-105600500D01*
X198740994Y-105692205D01*
X198929352Y-105770226D01*
X199049934Y-105794211D01*
X198992247Y-105818106D01*
X198744931Y-105983357D01*
X198534607Y-106193681D01*
X198369356Y-106440997D01*
X198255529Y-106715799D01*
X198197500Y-107007528D01*
X198197500Y-107304972D01*
X198255529Y-107596701D01*
X198369356Y-107871503D01*
X198534607Y-108118819D01*
X198744931Y-108329143D01*
X198992247Y-108494394D01*
X199267049Y-108608221D01*
X199558778Y-108666250D01*
X199856222Y-108666250D01*
X200147951Y-108608221D01*
X200422753Y-108494394D01*
X200670069Y-108329143D01*
X200880393Y-108118819D01*
X201045644Y-107871503D01*
X201159471Y-107596701D01*
X201217500Y-107304972D01*
X201217500Y-107007528D01*
X201195580Y-106897326D01*
X202158600Y-106897326D01*
X202158600Y-107415174D01*
X202259627Y-107923072D01*
X202457799Y-108401501D01*
X202745500Y-108832076D01*
X203111674Y-109198250D01*
X203542249Y-109485951D01*
X204020678Y-109684123D01*
X204528576Y-109785150D01*
X205046424Y-109785150D01*
X205554322Y-109684123D01*
X206032751Y-109485951D01*
X206463326Y-109198250D01*
X206829500Y-108832076D01*
X207117201Y-108401501D01*
X207315373Y-107923072D01*
X207416400Y-107415174D01*
X207416400Y-106897326D01*
X207315373Y-106389428D01*
X207279792Y-106303529D01*
X207586198Y-106508262D01*
X207974744Y-106669203D01*
X208387221Y-106751250D01*
X208408477Y-106751250D01*
X208357500Y-107007528D01*
X208357500Y-107304972D01*
X208415529Y-107596701D01*
X208529356Y-107871503D01*
X208694607Y-108118819D01*
X208904931Y-108329143D01*
X209152247Y-108494394D01*
X209427049Y-108608221D01*
X209718778Y-108666250D01*
X210016222Y-108666250D01*
X210307951Y-108608221D01*
X210582753Y-108494394D01*
X210830069Y-108329143D01*
X211040393Y-108118819D01*
X211205644Y-107871503D01*
X211319471Y-107596701D01*
X211377500Y-107304972D01*
X211377500Y-107007528D01*
X217247500Y-107007528D01*
X217247500Y-107304972D01*
X217305529Y-107596701D01*
X217419356Y-107871503D01*
X217584607Y-108118819D01*
X217794931Y-108329143D01*
X218042247Y-108494394D01*
X218317049Y-108608221D01*
X218608778Y-108666250D01*
X218906222Y-108666250D01*
X219197951Y-108608221D01*
X219472753Y-108494394D01*
X219720069Y-108329143D01*
X219930393Y-108118819D01*
X220095644Y-107871503D01*
X220209471Y-107596701D01*
X220267500Y-107304972D01*
X220267500Y-107007528D01*
X220209471Y-106715799D01*
X220095644Y-106440997D01*
X219930393Y-106193681D01*
X219720069Y-105983357D01*
X219472753Y-105818106D01*
X219197951Y-105704279D01*
X218906222Y-105646250D01*
X218608778Y-105646250D01*
X218317049Y-105704279D01*
X218042247Y-105818106D01*
X217794931Y-105983357D01*
X217584607Y-106193681D01*
X217419356Y-106440997D01*
X217305529Y-106715799D01*
X217247500Y-107007528D01*
X211377500Y-107007528D01*
X211319471Y-106715799D01*
X211205644Y-106440997D01*
X211040393Y-106193681D01*
X210830069Y-105983357D01*
X210582753Y-105818106D01*
X210410001Y-105746549D01*
X210489512Y-105627552D01*
X210650453Y-105239006D01*
X210732500Y-104826529D01*
X210732500Y-104405971D01*
X210650453Y-103993494D01*
X210489512Y-103604948D01*
X210255863Y-103255267D01*
X209958483Y-102957887D01*
X209608802Y-102724238D01*
X209220256Y-102563297D01*
X208807779Y-102481250D01*
X208387221Y-102481250D01*
X207974744Y-102563297D01*
X207586198Y-102724238D01*
X207236517Y-102957887D01*
X206939137Y-103255267D01*
X206705488Y-103604948D01*
X206544547Y-103993494D01*
X206462500Y-104405971D01*
X206462500Y-104826529D01*
X206533737Y-105184661D01*
X206463326Y-105114250D01*
X206032751Y-104826549D01*
X205554322Y-104628377D01*
X205046424Y-104527350D01*
X204528576Y-104527350D01*
X204020678Y-104628377D01*
X203542249Y-104826549D01*
X203111674Y-105114250D01*
X202745500Y-105480424D01*
X202457799Y-105910999D01*
X202259627Y-106389428D01*
X202158600Y-106897326D01*
X201195580Y-106897326D01*
X201159471Y-106715799D01*
X201045644Y-106440997D01*
X200880393Y-106193681D01*
X200670069Y-105983357D01*
X200422753Y-105818106D01*
X200147951Y-105704279D01*
X199856222Y-105646250D01*
X199790283Y-105646250D01*
X199891024Y-105578937D01*
X200035187Y-105434774D01*
X200148455Y-105265256D01*
X200226476Y-105076898D01*
X200266250Y-104876939D01*
X200266250Y-104673061D01*
X200226476Y-104473102D01*
X200148455Y-104284744D01*
X200035187Y-104115226D01*
X199891024Y-103971063D01*
X199721506Y-103857795D01*
X199533148Y-103779774D01*
X199333189Y-103740000D01*
X199129311Y-103740000D01*
X198929352Y-103779774D01*
X198740994Y-103857795D01*
X198603747Y-103949500D01*
X197985684Y-103949500D01*
X195902155Y-101865971D01*
X200112500Y-101865971D01*
X200112500Y-102286529D01*
X200194547Y-102699006D01*
X200355488Y-103087552D01*
X200589137Y-103437233D01*
X200886517Y-103734613D01*
X201236198Y-103968262D01*
X201624744Y-104129203D01*
X202037221Y-104211250D01*
X202457779Y-104211250D01*
X202870256Y-104129203D01*
X203258802Y-103968262D01*
X203608483Y-103734613D01*
X203905863Y-103437233D01*
X204139512Y-103087552D01*
X204300453Y-102699006D01*
X204382500Y-102286529D01*
X204382500Y-101865971D01*
X204300453Y-101453494D01*
X204139512Y-101064948D01*
X203905863Y-100715267D01*
X203608483Y-100417887D01*
X203258802Y-100184238D01*
X202870256Y-100023297D01*
X202457779Y-99941250D01*
X202037221Y-99941250D01*
X201624744Y-100023297D01*
X201236198Y-100184238D01*
X200886517Y-100417887D01*
X200589137Y-100715267D01*
X200355488Y-101064948D01*
X200194547Y-101453494D01*
X200112500Y-101865971D01*
X195902155Y-101865971D01*
X194689929Y-100653746D01*
X194657726Y-100491852D01*
X194579705Y-100303494D01*
X194466437Y-100133976D01*
X194322274Y-99989813D01*
X194152756Y-99876545D01*
X193964398Y-99798524D01*
X193764439Y-99758750D01*
X193560561Y-99758750D01*
X193360602Y-99798524D01*
X193172244Y-99876545D01*
X193034997Y-99968250D01*
X190829433Y-99968250D01*
X188150500Y-97289318D01*
X188150500Y-93904780D01*
X188179178Y-93876102D01*
X188179178Y-94551500D01*
X188191438Y-94675982D01*
X188227748Y-94795680D01*
X188286713Y-94905994D01*
X188366065Y-95002685D01*
X188462756Y-95082037D01*
X188573070Y-95141002D01*
X188692768Y-95177312D01*
X188817250Y-95189572D01*
X189931313Y-95189572D01*
X189900295Y-95235994D01*
X189822274Y-95424352D01*
X189782500Y-95624311D01*
X189782500Y-95828189D01*
X189822274Y-96028148D01*
X189900295Y-96216506D01*
X190013563Y-96386024D01*
X190157726Y-96530187D01*
X190327244Y-96643455D01*
X190515602Y-96721476D01*
X190715561Y-96761250D01*
X190919439Y-96761250D01*
X191119398Y-96721476D01*
X191307756Y-96643455D01*
X191477274Y-96530187D01*
X191519211Y-96488250D01*
X199640789Y-96488250D01*
X199682726Y-96530187D01*
X199852244Y-96643455D01*
X199910878Y-96667742D01*
X196819870Y-99758750D01*
X196760561Y-99758750D01*
X196560602Y-99798524D01*
X196372244Y-99876545D01*
X196202726Y-99989813D01*
X196058563Y-100133976D01*
X195945295Y-100303494D01*
X195867274Y-100491852D01*
X195827500Y-100691811D01*
X195827500Y-100895689D01*
X195867274Y-101095648D01*
X195945295Y-101284006D01*
X196058563Y-101453524D01*
X196202726Y-101597687D01*
X196372244Y-101710955D01*
X196560602Y-101788976D01*
X196760561Y-101828750D01*
X196964439Y-101828750D01*
X197164398Y-101788976D01*
X197352756Y-101710955D01*
X197522274Y-101597687D01*
X197666437Y-101453524D01*
X197779705Y-101284006D01*
X197857726Y-101095648D01*
X197897500Y-100895689D01*
X197897500Y-100836380D01*
X205525381Y-93208499D01*
X205966078Y-93208499D01*
X206003501Y-93212185D01*
X206040924Y-93208499D01*
X206040927Y-93208499D01*
X206152879Y-93197473D01*
X206296516Y-93153901D01*
X206428893Y-93083144D01*
X206544923Y-92987921D01*
X206568785Y-92958845D01*
X207378131Y-92149500D01*
X207736795Y-92149500D01*
X207623070Y-92183998D01*
X207512756Y-92242963D01*
X207416065Y-92322315D01*
X207336713Y-92419006D01*
X207277748Y-92529320D01*
X207241438Y-92649018D01*
X207229178Y-92773500D01*
X207229178Y-94551500D01*
X207241438Y-94675982D01*
X207277748Y-94795680D01*
X207336713Y-94905994D01*
X207416065Y-95002685D01*
X207512756Y-95082037D01*
X207623070Y-95141002D01*
X207742768Y-95177312D01*
X207867250Y-95189572D01*
X208981313Y-95189572D01*
X208950295Y-95235994D01*
X208872274Y-95424352D01*
X208832500Y-95624311D01*
X208832500Y-95828189D01*
X208872274Y-96028148D01*
X208950295Y-96216506D01*
X209063563Y-96386024D01*
X209207726Y-96530187D01*
X209377244Y-96643455D01*
X209565602Y-96721476D01*
X209765561Y-96761250D01*
X209969439Y-96761250D01*
X210169398Y-96721476D01*
X210357756Y-96643455D01*
X210527274Y-96530187D01*
X210569211Y-96488250D01*
X218690789Y-96488250D01*
X218732726Y-96530187D01*
X218902244Y-96643455D01*
X219090602Y-96721476D01*
X219290561Y-96761250D01*
X219494439Y-96761250D01*
X219590406Y-96742161D01*
X216458068Y-99874500D01*
X213458753Y-99874500D01*
X213321506Y-99782795D01*
X213133148Y-99704774D01*
X212933189Y-99665000D01*
X212729311Y-99665000D01*
X212529352Y-99704774D01*
X212340994Y-99782795D01*
X212171476Y-99896063D01*
X212027313Y-100040226D01*
X211914045Y-100209744D01*
X211836024Y-100398102D01*
X211796250Y-100598061D01*
X211796250Y-100801939D01*
X211836024Y-101001898D01*
X211914045Y-101190256D01*
X212027313Y-101359774D01*
X212171476Y-101503937D01*
X212340994Y-101617205D01*
X212529352Y-101695226D01*
X212691246Y-101727429D01*
X216293857Y-105330039D01*
X216319709Y-105361541D01*
X216351209Y-105387392D01*
X216445407Y-105464699D01*
X216495361Y-105491399D01*
X216588816Y-105541353D01*
X216744424Y-105588556D01*
X216865697Y-105600500D01*
X216865699Y-105600500D01*
X216906249Y-105604494D01*
X216946800Y-105600500D01*
X221715268Y-105600500D01*
X221507799Y-105910999D01*
X221309627Y-106389428D01*
X221208600Y-106897326D01*
X221208600Y-107415174D01*
X221309627Y-107923072D01*
X221507799Y-108401501D01*
X221795500Y-108832076D01*
X222161674Y-109198250D01*
X222592249Y-109485951D01*
X223070678Y-109684123D01*
X223578576Y-109785150D01*
X224096424Y-109785150D01*
X224604322Y-109684123D01*
X225082751Y-109485951D01*
X225513326Y-109198250D01*
X225879500Y-108832076D01*
X226167201Y-108401501D01*
X226365373Y-107923072D01*
X226466400Y-107415174D01*
X226466400Y-106897326D01*
X226365373Y-106389428D01*
X226329792Y-106303529D01*
X226636198Y-106508262D01*
X227024744Y-106669203D01*
X227437221Y-106751250D01*
X227458477Y-106751250D01*
X227407500Y-107007528D01*
X227407500Y-107304972D01*
X227465529Y-107596701D01*
X227579356Y-107871503D01*
X227744607Y-108118819D01*
X227954931Y-108329143D01*
X228202247Y-108494394D01*
X228477049Y-108608221D01*
X228768778Y-108666250D01*
X229066222Y-108666250D01*
X229357951Y-108608221D01*
X229632753Y-108494394D01*
X229880069Y-108329143D01*
X230090393Y-108118819D01*
X230255644Y-107871503D01*
X230369471Y-107596701D01*
X230427500Y-107304972D01*
X230427500Y-107007528D01*
X230369471Y-106715799D01*
X230255644Y-106440997D01*
X230090393Y-106193681D01*
X229880069Y-105983357D01*
X229632753Y-105818106D01*
X229460001Y-105746549D01*
X229539512Y-105627552D01*
X229700453Y-105239006D01*
X229782500Y-104826529D01*
X229782500Y-104405971D01*
X229700453Y-103993494D01*
X229539512Y-103604948D01*
X229305863Y-103255267D01*
X229008483Y-102957887D01*
X228658802Y-102724238D01*
X228270256Y-102563297D01*
X227857779Y-102481250D01*
X227437221Y-102481250D01*
X227024744Y-102563297D01*
X226636198Y-102724238D01*
X226286517Y-102957887D01*
X225989137Y-103255267D01*
X225755488Y-103604948D01*
X225594547Y-103993494D01*
X225512500Y-104405971D01*
X225512500Y-104826529D01*
X225583737Y-105184661D01*
X225513326Y-105114250D01*
X225082751Y-104826549D01*
X224604322Y-104628377D01*
X224096424Y-104527350D01*
X223665082Y-104527350D01*
X225186289Y-103006144D01*
X225217791Y-102980291D01*
X225296810Y-102884006D01*
X225320949Y-102854593D01*
X225397603Y-102711184D01*
X225416068Y-102650313D01*
X225444806Y-102555576D01*
X225456750Y-102434303D01*
X225456750Y-102434301D01*
X225460744Y-102393751D01*
X225456750Y-102353200D01*
X225456750Y-94698530D01*
X226279178Y-93876102D01*
X226279178Y-94551500D01*
X226291438Y-94675982D01*
X226327748Y-94795680D01*
X226386713Y-94905994D01*
X226466065Y-95002685D01*
X226562756Y-95082037D01*
X226673070Y-95141002D01*
X226792768Y-95177312D01*
X226917250Y-95189572D01*
X228695250Y-95189572D01*
X228819732Y-95177312D01*
X228939430Y-95141002D01*
X229049744Y-95082037D01*
X229146435Y-95002685D01*
X229225787Y-94905994D01*
X229284752Y-94795680D01*
X229321062Y-94675982D01*
X229333322Y-94551500D01*
X229333322Y-92773500D01*
X229321062Y-92649018D01*
X229284752Y-92529320D01*
X229244358Y-92453749D01*
X235463246Y-92453749D01*
X235600493Y-92545454D01*
X235788851Y-92623475D01*
X235981538Y-92661803D01*
X233679091Y-94964250D01*
X232000461Y-94964250D01*
X231958524Y-94922313D01*
X231789006Y-94809045D01*
X231600648Y-94731024D01*
X231400689Y-94691250D01*
X231196811Y-94691250D01*
X230996852Y-94731024D01*
X230808494Y-94809045D01*
X230638976Y-94922313D01*
X230494813Y-95066476D01*
X230381545Y-95235994D01*
X230303524Y-95424352D01*
X230263750Y-95624311D01*
X230263750Y-95828189D01*
X230303524Y-96028148D01*
X230381545Y-96216506D01*
X230494813Y-96386024D01*
X230638976Y-96530187D01*
X230808494Y-96643455D01*
X230996852Y-96721476D01*
X231196811Y-96761250D01*
X231400689Y-96761250D01*
X231600648Y-96721476D01*
X231789006Y-96643455D01*
X231958524Y-96530187D01*
X232000461Y-96488250D01*
X233957298Y-96488250D01*
X233994721Y-96491936D01*
X234032144Y-96488250D01*
X234032147Y-96488250D01*
X234144099Y-96477224D01*
X234287736Y-96433652D01*
X234420113Y-96362895D01*
X234536143Y-96267672D01*
X234560005Y-96238596D01*
X237297250Y-93501351D01*
X237297249Y-96264426D01*
X237293563Y-96301849D01*
X237297249Y-96339272D01*
X237297249Y-96339274D01*
X237308275Y-96451226D01*
X237351847Y-96594863D01*
X237351848Y-96594864D01*
X237422604Y-96727241D01*
X237437108Y-96744914D01*
X237517827Y-96843271D01*
X237546903Y-96867133D01*
X237793154Y-97113384D01*
X237744000Y-97360499D01*
X237744000Y-97660701D01*
X237793154Y-97907815D01*
X235231399Y-100469571D01*
X235202329Y-100493428D01*
X235178472Y-100522498D01*
X235178471Y-100522499D01*
X235107105Y-100609458D01*
X235036349Y-100741835D01*
X234992777Y-100885472D01*
X234978064Y-101034850D01*
X234981751Y-101072283D01*
X234981750Y-112555619D01*
X233523120Y-114014250D01*
X229177978Y-114014250D01*
X229225787Y-113955994D01*
X229284752Y-113845680D01*
X229321062Y-113725982D01*
X229333322Y-113601500D01*
X229333322Y-111823500D01*
X229321062Y-111699018D01*
X229284752Y-111579320D01*
X229225787Y-111469006D01*
X229146435Y-111372315D01*
X229049744Y-111292963D01*
X228939430Y-111233998D01*
X228819732Y-111197688D01*
X228695250Y-111185428D01*
X226917250Y-111185428D01*
X226792768Y-111197688D01*
X226673070Y-111233998D01*
X226562756Y-111292963D01*
X226466065Y-111372315D01*
X226386713Y-111469006D01*
X226327748Y-111579320D01*
X226291438Y-111699018D01*
X226279178Y-111823500D01*
X226279178Y-113601500D01*
X226291438Y-113725982D01*
X226327748Y-113845680D01*
X226386713Y-113955994D01*
X226434522Y-114014250D01*
X222565631Y-114014250D01*
X221661096Y-113109716D01*
X221710250Y-112862601D01*
X221710250Y-112562399D01*
X221651684Y-112267966D01*
X221536801Y-111990615D01*
X221370018Y-111741007D01*
X221157743Y-111528732D01*
X220908135Y-111361949D01*
X220630784Y-111247066D01*
X220336351Y-111188500D01*
X220036149Y-111188500D01*
X219741716Y-111247066D01*
X219464365Y-111361949D01*
X219214757Y-111528732D01*
X219002482Y-111741007D01*
X218835699Y-111990615D01*
X218720816Y-112267966D01*
X218662250Y-112562399D01*
X218662250Y-112862601D01*
X218720816Y-113157034D01*
X218835699Y-113434385D01*
X219002482Y-113683993D01*
X219214757Y-113896268D01*
X219391329Y-114014250D01*
X210127978Y-114014250D01*
X210175787Y-113955994D01*
X210234752Y-113845680D01*
X210271062Y-113725982D01*
X210283322Y-113601500D01*
X210283322Y-111823500D01*
X210271062Y-111699018D01*
X210234752Y-111579320D01*
X210175787Y-111469006D01*
X210096435Y-111372315D01*
X209999744Y-111292963D01*
X209889430Y-111233998D01*
X209769732Y-111197688D01*
X209645250Y-111185428D01*
X207867250Y-111185428D01*
X207742768Y-111197688D01*
X207623070Y-111233998D01*
X207512756Y-111292963D01*
X207416065Y-111372315D01*
X207336713Y-111469006D01*
X207277748Y-111579320D01*
X207241438Y-111699018D01*
X207229178Y-111823500D01*
X207229178Y-113601500D01*
X207241438Y-113725982D01*
X207277748Y-113845680D01*
X207336713Y-113955994D01*
X207384522Y-114014250D01*
X203515631Y-114014250D01*
X202611096Y-113109716D01*
X202660250Y-112862601D01*
X202660250Y-112562399D01*
X202601684Y-112267966D01*
X202486801Y-111990615D01*
X202320018Y-111741007D01*
X202107743Y-111528732D01*
X201858135Y-111361949D01*
X201580784Y-111247066D01*
X201286351Y-111188500D01*
X200986149Y-111188500D01*
X200691716Y-111247066D01*
X200414365Y-111361949D01*
X200164757Y-111528732D01*
X199952482Y-111741007D01*
X199785699Y-111990615D01*
X199670816Y-112267966D01*
X199612250Y-112562399D01*
X199612250Y-112862601D01*
X199670816Y-113157034D01*
X199785699Y-113434385D01*
X199952482Y-113683993D01*
X200164757Y-113896268D01*
X200341329Y-114014250D01*
X191077978Y-114014250D01*
X191125787Y-113955994D01*
X191184752Y-113845680D01*
X191221062Y-113725982D01*
X191233322Y-113601500D01*
X191233322Y-111823500D01*
X191221062Y-111699018D01*
X191184752Y-111579320D01*
X191125787Y-111469006D01*
X191046435Y-111372315D01*
X190949744Y-111292963D01*
X190839430Y-111233998D01*
X190719732Y-111197688D01*
X190595250Y-111185428D01*
X188817250Y-111185428D01*
X188692768Y-111197688D01*
X188573070Y-111233998D01*
X188462756Y-111292963D01*
X188366065Y-111372315D01*
X188286713Y-111469006D01*
X188227748Y-111579320D01*
X188191438Y-111699018D01*
X188179178Y-111823500D01*
X188179178Y-113601500D01*
X188191438Y-113725982D01*
X188227748Y-113845680D01*
X188286713Y-113955994D01*
X188334522Y-114014250D01*
X184465631Y-114014250D01*
X183561096Y-113109716D01*
X183610250Y-112862601D01*
X183610250Y-112562399D01*
X183551684Y-112267966D01*
X183436801Y-111990615D01*
X183270018Y-111741007D01*
X183057743Y-111528732D01*
X182808135Y-111361949D01*
X182530784Y-111247066D01*
X182236351Y-111188500D01*
X181936149Y-111188500D01*
X181641716Y-111247066D01*
X181364365Y-111361949D01*
X181114757Y-111528732D01*
X180902482Y-111741007D01*
X180735699Y-111990615D01*
X180620816Y-112267966D01*
X180562250Y-112562399D01*
X180562250Y-112862601D01*
X180620816Y-113157034D01*
X180735699Y-113434385D01*
X180902482Y-113683993D01*
X181114757Y-113896268D01*
X181364365Y-114063051D01*
X181641716Y-114177934D01*
X181936149Y-114236500D01*
X182236351Y-114236500D01*
X182483466Y-114187346D01*
X183584721Y-115288602D01*
X183608578Y-115317672D01*
X183724608Y-115412895D01*
X183856985Y-115483652D01*
X184000622Y-115527224D01*
X184112574Y-115538250D01*
X184112576Y-115538250D01*
X184149999Y-115541936D01*
X184187422Y-115538250D01*
X203162576Y-115538250D01*
X203199999Y-115541936D01*
X203237422Y-115538250D01*
X222212576Y-115538250D01*
X222249999Y-115541936D01*
X222287422Y-115538250D01*
X233801327Y-115538250D01*
X233838750Y-115541936D01*
X233876173Y-115538250D01*
X233876176Y-115538250D01*
X233988128Y-115527224D01*
X234131765Y-115483652D01*
X234264142Y-115412895D01*
X234380172Y-115317672D01*
X234404034Y-115288596D01*
X235197413Y-114495217D01*
X238752500Y-114495217D01*
X238752500Y-114817283D01*
X238815332Y-115133162D01*
X238938582Y-115430713D01*
X239117513Y-115698502D01*
X239345248Y-115926237D01*
X239613037Y-116105168D01*
X239910588Y-116228418D01*
X240226467Y-116291250D01*
X240548533Y-116291250D01*
X240864412Y-116228418D01*
X241161963Y-116105168D01*
X241429752Y-115926237D01*
X241657487Y-115698502D01*
X241722425Y-115601315D01*
X241752087Y-115612058D01*
X242707895Y-114656250D01*
X241752087Y-113700442D01*
X241722425Y-113711185D01*
X241657487Y-113613998D01*
X241564326Y-113520837D01*
X241931692Y-113520837D01*
X242887500Y-114476645D01*
X242901643Y-114462503D01*
X243081248Y-114642108D01*
X243067105Y-114656250D01*
X243081248Y-114670393D01*
X242901643Y-114849998D01*
X242887500Y-114835855D01*
X241931692Y-115791663D01*
X242027456Y-116056064D01*
X242317071Y-116196954D01*
X242628608Y-116278634D01*
X242950095Y-116297968D01*
X243269175Y-116254211D01*
X243573588Y-116149045D01*
X243747544Y-116056064D01*
X243801524Y-115907027D01*
X243856963Y-116010744D01*
X243936315Y-116107435D01*
X244033006Y-116186787D01*
X244143320Y-116245752D01*
X244263018Y-116282062D01*
X244387500Y-116294322D01*
X246387500Y-116294322D01*
X246511982Y-116282062D01*
X246631680Y-116245752D01*
X246741994Y-116186787D01*
X246838685Y-116107435D01*
X246918037Y-116010744D01*
X246977002Y-115900430D01*
X247013312Y-115780732D01*
X247025572Y-115656250D01*
X247025572Y-113656250D01*
X247013312Y-113531768D01*
X246977002Y-113412070D01*
X246918037Y-113301756D01*
X246838685Y-113205065D01*
X246741994Y-113125713D01*
X246631680Y-113066748D01*
X246511982Y-113030438D01*
X246387500Y-113018178D01*
X244387500Y-113018178D01*
X244263018Y-113030438D01*
X244143320Y-113066748D01*
X244033006Y-113125713D01*
X243936315Y-113205065D01*
X243856963Y-113301756D01*
X243801524Y-113405473D01*
X243747544Y-113256436D01*
X243457929Y-113115546D01*
X243146392Y-113033866D01*
X242824905Y-113014532D01*
X242505825Y-113058289D01*
X242201412Y-113163455D01*
X242027456Y-113256436D01*
X241931692Y-113520837D01*
X241564326Y-113520837D01*
X241429752Y-113386263D01*
X241161963Y-113207332D01*
X240864412Y-113084082D01*
X240548533Y-113021250D01*
X240226467Y-113021250D01*
X239910588Y-113084082D01*
X239613037Y-113207332D01*
X239345248Y-113386263D01*
X239117513Y-113613998D01*
X238938582Y-113881787D01*
X238815332Y-114179338D01*
X238752500Y-114495217D01*
X235197413Y-114495217D01*
X236256103Y-113436528D01*
X236285172Y-113412672D01*
X236312522Y-113379346D01*
X236380395Y-113296643D01*
X236451151Y-113164266D01*
X236451152Y-113164265D01*
X236494724Y-113020628D01*
X236505750Y-112908676D01*
X236505750Y-112908673D01*
X236509436Y-112871250D01*
X236505750Y-112833827D01*
X236505750Y-109394322D01*
X238287500Y-109394322D01*
X238411982Y-109382062D01*
X238531680Y-109345752D01*
X238641994Y-109286787D01*
X238738685Y-109207435D01*
X238818037Y-109110744D01*
X238877002Y-109000430D01*
X238913312Y-108880732D01*
X238925572Y-108756250D01*
X238925572Y-105556250D01*
X246849428Y-105556250D01*
X246849428Y-108756250D01*
X246861688Y-108880732D01*
X246897998Y-109000430D01*
X246956963Y-109110744D01*
X247036315Y-109207435D01*
X247133006Y-109286787D01*
X247243320Y-109345752D01*
X247363018Y-109382062D01*
X247487500Y-109394322D01*
X249487500Y-109394322D01*
X249611982Y-109382062D01*
X249731680Y-109345752D01*
X249841994Y-109286787D01*
X249938685Y-109207435D01*
X250018037Y-109110744D01*
X250077002Y-109000430D01*
X250113312Y-108880732D01*
X250125572Y-108756250D01*
X250125572Y-105556250D01*
X250113312Y-105431768D01*
X250077002Y-105312070D01*
X250018037Y-105201756D01*
X249938685Y-105105065D01*
X249841994Y-105025713D01*
X249731680Y-104966748D01*
X249611982Y-104930438D01*
X249487500Y-104918178D01*
X247487500Y-104918178D01*
X247363018Y-104930438D01*
X247243320Y-104966748D01*
X247133006Y-105025713D01*
X247036315Y-105105065D01*
X246956963Y-105201756D01*
X246897998Y-105312070D01*
X246861688Y-105431768D01*
X246849428Y-105556250D01*
X238925572Y-105556250D01*
X238913312Y-105431768D01*
X238877002Y-105312070D01*
X238818037Y-105201756D01*
X238738685Y-105105065D01*
X238641994Y-105025713D01*
X238531680Y-104966748D01*
X238411982Y-104930438D01*
X238287500Y-104918178D01*
X236505750Y-104918178D01*
X236505750Y-101350480D01*
X238870785Y-98985446D01*
X239117899Y-99034600D01*
X239196911Y-99034600D01*
X239117513Y-99113998D01*
X238938582Y-99381787D01*
X238815332Y-99679338D01*
X238752500Y-99995217D01*
X238752500Y-100317283D01*
X238815332Y-100633162D01*
X238938582Y-100930713D01*
X239117513Y-101198502D01*
X239345248Y-101426237D01*
X239613037Y-101605168D01*
X239910588Y-101728418D01*
X240226467Y-101791250D01*
X240548533Y-101791250D01*
X240864412Y-101728418D01*
X241161963Y-101605168D01*
X241429752Y-101426237D01*
X241657487Y-101198502D01*
X241836418Y-100930713D01*
X241959668Y-100633162D01*
X242022500Y-100317283D01*
X242022500Y-99995217D01*
X241959668Y-99679338D01*
X241836418Y-99381787D01*
X241657487Y-99113998D01*
X241429752Y-98886263D01*
X241161963Y-98707332D01*
X240864412Y-98584082D01*
X240548533Y-98521250D01*
X240412611Y-98521250D01*
X240451768Y-98482093D01*
X240618551Y-98232485D01*
X240733434Y-97955134D01*
X240792000Y-97660701D01*
X240792000Y-97360499D01*
X240733434Y-97066066D01*
X240618551Y-96788715D01*
X240451768Y-96539107D01*
X240239493Y-96326832D01*
X239989885Y-96160049D01*
X239712534Y-96045166D01*
X239418101Y-95986600D01*
X239117899Y-95986600D01*
X238870784Y-96035754D01*
X238821249Y-95986219D01*
X238821249Y-94292600D01*
X238879360Y-94310226D01*
X239109250Y-94188905D01*
X239109250Y-92995750D01*
X239089250Y-92995750D01*
X239089250Y-92741750D01*
X239109250Y-92741750D01*
X239109250Y-92721750D01*
X239363250Y-92721750D01*
X239363250Y-92741750D01*
X239383250Y-92741750D01*
X239383250Y-92995750D01*
X239363250Y-92995750D01*
X239363250Y-94188905D01*
X239593140Y-94310226D01*
X239740349Y-94265575D01*
X240003170Y-94140391D01*
X240236519Y-93966338D01*
X240431428Y-93750105D01*
X240501055Y-93633216D01*
X240622775Y-93815382D01*
X240829618Y-94022225D01*
X241072839Y-94184740D01*
X241343092Y-94296682D01*
X241629990Y-94353750D01*
X241922510Y-94353750D01*
X242065395Y-94325328D01*
X242404357Y-94664290D01*
X242430210Y-94695792D01*
X242555909Y-94798950D01*
X242699317Y-94875604D01*
X242854925Y-94922807D01*
X242976198Y-94934751D01*
X242976207Y-94934751D01*
X243016750Y-94938744D01*
X243057293Y-94934751D01*
X247877139Y-94934751D01*
X247917689Y-94938745D01*
X247958239Y-94934751D01*
X247958242Y-94934751D01*
X248079515Y-94922807D01*
X248235123Y-94875604D01*
X248378531Y-94798950D01*
X248504230Y-94695792D01*
X248530087Y-94664285D01*
X248965559Y-94228813D01*
X249386592Y-94228813D01*
X249482356Y-94493214D01*
X249771971Y-94634104D01*
X250083508Y-94715784D01*
X250404995Y-94735118D01*
X250724075Y-94691361D01*
X251028488Y-94586195D01*
X251202444Y-94493214D01*
X251298208Y-94228813D01*
X250342400Y-93273005D01*
X249386592Y-94228813D01*
X248965559Y-94228813D01*
X249161603Y-94032770D01*
X249206987Y-94049208D01*
X250162795Y-93093400D01*
X250522005Y-93093400D01*
X251477813Y-94049208D01*
X251742214Y-93953444D01*
X251883104Y-93663829D01*
X251964784Y-93352292D01*
X251984118Y-93030805D01*
X251940361Y-92711725D01*
X251835195Y-92407312D01*
X251742214Y-92233356D01*
X251477813Y-92137592D01*
X250522005Y-93093400D01*
X250162795Y-93093400D01*
X250148653Y-93079258D01*
X250328258Y-92899653D01*
X250342400Y-92913795D01*
X251298208Y-91957987D01*
X251255766Y-91840805D01*
X251259476Y-91836284D01*
X253761295Y-89334467D01*
X253792791Y-89308619D01*
X253818639Y-89277123D01*
X253818642Y-89277120D01*
X253895949Y-89182921D01*
X253972603Y-89039512D01*
X253983685Y-89002980D01*
X254019806Y-88883904D01*
X254031750Y-88762631D01*
X254031750Y-88762629D01*
X254035744Y-88722078D01*
X254031750Y-88681528D01*
X254031750Y-68303050D01*
X254035744Y-68262499D01*
X254031750Y-68221947D01*
X254019806Y-68100674D01*
X253972603Y-67945066D01*
X253953635Y-67909580D01*
X253895949Y-67801657D01*
X253818641Y-67707458D01*
X253792791Y-67675959D01*
X253761290Y-67650107D01*
X253024898Y-66913716D01*
X252999041Y-66882209D01*
X252873342Y-66779051D01*
X252729934Y-66702397D01*
X252574326Y-66655194D01*
X252453053Y-66643250D01*
X252453050Y-66643250D01*
X252412500Y-66639256D01*
X252371950Y-66643250D01*
X251773544Y-66643250D01*
X251681404Y-66505352D01*
X251470898Y-66294846D01*
X251327080Y-66198750D01*
X251470898Y-66102654D01*
X251681404Y-65892148D01*
X251815973Y-65690750D01*
X251938120Y-65690750D01*
X253855948Y-67608579D01*
X253855954Y-67608584D01*
X254080401Y-67833030D01*
X254080400Y-90246250D01*
X253898061Y-90246250D01*
X253698102Y-90286024D01*
X253509744Y-90364045D01*
X253340226Y-90477313D01*
X253196063Y-90621476D01*
X253082795Y-90790994D01*
X253004774Y-90979352D01*
X252965000Y-91179311D01*
X252965000Y-91238620D01*
X252693903Y-91509716D01*
X252664828Y-91533578D01*
X252618141Y-91590467D01*
X252569605Y-91649608D01*
X252546099Y-91693586D01*
X252498848Y-91781986D01*
X252455276Y-91925623D01*
X252446890Y-92010774D01*
X252440564Y-92075000D01*
X252444250Y-92112423D01*
X252444251Y-101692038D01*
X252402313Y-101733976D01*
X252289045Y-101903494D01*
X252211024Y-102091852D01*
X252171250Y-102291811D01*
X252171250Y-102495689D01*
X252207758Y-102679226D01*
X252160172Y-102621243D01*
X252131103Y-102597387D01*
X250724819Y-101191104D01*
X251028488Y-101086195D01*
X251202444Y-100993214D01*
X251298208Y-100728813D01*
X250342400Y-99773005D01*
X250328258Y-99787148D01*
X250148653Y-99607543D01*
X250162795Y-99593400D01*
X250522005Y-99593400D01*
X251477813Y-100549208D01*
X251742214Y-100453444D01*
X251883104Y-100163829D01*
X251964784Y-99852292D01*
X251984118Y-99530805D01*
X251940361Y-99211725D01*
X251835195Y-98907312D01*
X251742214Y-98733356D01*
X251477813Y-98637592D01*
X250522005Y-99593400D01*
X250162795Y-99593400D01*
X249206987Y-98637592D01*
X248997655Y-98713410D01*
X248840949Y-98682240D01*
X248637071Y-98682240D01*
X248437112Y-98722014D01*
X248280691Y-98786806D01*
X248307537Y-98754094D01*
X248366502Y-98643780D01*
X248402812Y-98524082D01*
X248409321Y-98457987D01*
X249386592Y-98457987D01*
X250342400Y-99413795D01*
X251298208Y-98457987D01*
X251202444Y-98193586D01*
X250912829Y-98052696D01*
X250601292Y-97971016D01*
X250279805Y-97951682D01*
X249960725Y-97995439D01*
X249656312Y-98100605D01*
X249482356Y-98193586D01*
X249386592Y-98457987D01*
X248409321Y-98457987D01*
X248415072Y-98399600D01*
X248415072Y-96621600D01*
X248402812Y-96497118D01*
X248366502Y-96377420D01*
X248307537Y-96267106D01*
X248228185Y-96170415D01*
X248131494Y-96091063D01*
X248021180Y-96032098D01*
X247901482Y-95995788D01*
X247777000Y-95983528D01*
X245999000Y-95983528D01*
X245874518Y-95995788D01*
X245754820Y-96032098D01*
X245644506Y-96091063D01*
X245547815Y-96170415D01*
X245468463Y-96267106D01*
X245409498Y-96377420D01*
X245373188Y-96497118D01*
X245360928Y-96621600D01*
X245360928Y-98399600D01*
X245372909Y-98521250D01*
X245226467Y-98521250D01*
X244910588Y-98584082D01*
X244613037Y-98707332D01*
X244345248Y-98886263D01*
X244117513Y-99113998D01*
X243938582Y-99381787D01*
X243815332Y-99679338D01*
X243752500Y-99995217D01*
X243752500Y-100317283D01*
X243815332Y-100633162D01*
X243938582Y-100930713D01*
X244117513Y-101198502D01*
X244345248Y-101426237D01*
X244613037Y-101605168D01*
X244910588Y-101728418D01*
X245226467Y-101791250D01*
X245548533Y-101791250D01*
X245864412Y-101728418D01*
X246161963Y-101605168D01*
X246429752Y-101426237D01*
X246657487Y-101198502D01*
X246836418Y-100930713D01*
X246959668Y-100633162D01*
X247022500Y-100317283D01*
X247022500Y-99995217D01*
X246959668Y-99679338D01*
X246836418Y-99381787D01*
X246657487Y-99113998D01*
X246581161Y-99037672D01*
X247777000Y-99037672D01*
X247901482Y-99025412D01*
X247995711Y-98996828D01*
X247935073Y-99057466D01*
X247821805Y-99226984D01*
X247743784Y-99415342D01*
X247704010Y-99615301D01*
X247704010Y-99819179D01*
X247743784Y-100019138D01*
X247821805Y-100207496D01*
X247935073Y-100377014D01*
X247987782Y-100429723D01*
X247988036Y-100432303D01*
X248031608Y-100575940D01*
X248049524Y-100609458D01*
X248102365Y-100708317D01*
X248172478Y-100793749D01*
X248197589Y-100824347D01*
X248226659Y-100848204D01*
X250856751Y-103478297D01*
X250856750Y-104073289D01*
X250814813Y-104115226D01*
X250701545Y-104284744D01*
X250623524Y-104473102D01*
X250583750Y-104673061D01*
X250583750Y-104876939D01*
X250623524Y-105076898D01*
X250701545Y-105265256D01*
X250814813Y-105434774D01*
X250958976Y-105578937D01*
X251128494Y-105692205D01*
X251316852Y-105770226D01*
X251516811Y-105810000D01*
X251720689Y-105810000D01*
X251920648Y-105770226D01*
X252109006Y-105692205D01*
X252278524Y-105578937D01*
X252422687Y-105434774D01*
X252535955Y-105265256D01*
X252613976Y-105076898D01*
X252653750Y-104876939D01*
X252653750Y-104673061D01*
X252613976Y-104473102D01*
X252535955Y-104284744D01*
X252422687Y-104115226D01*
X252380750Y-104073289D01*
X252380750Y-103200087D01*
X252384436Y-103162664D01*
X252380750Y-103125239D01*
X252369724Y-103013287D01*
X252364982Y-102997653D01*
X252402313Y-103053524D01*
X252546476Y-103197687D01*
X252715994Y-103310955D01*
X252904352Y-103388976D01*
X253104311Y-103428750D01*
X253308189Y-103428750D01*
X253508148Y-103388976D01*
X253696506Y-103310955D01*
X253866024Y-103197687D01*
X254010187Y-103053524D01*
X254123455Y-102884006D01*
X254201476Y-102695648D01*
X254241250Y-102495689D01*
X254241250Y-102291811D01*
X254201476Y-102091852D01*
X254123455Y-101903494D01*
X254010187Y-101733976D01*
X253968250Y-101692039D01*
X253968250Y-100975709D01*
X254067937Y-101042318D01*
X254365488Y-101165568D01*
X254681367Y-101228400D01*
X255003433Y-101228400D01*
X255319312Y-101165568D01*
X255616863Y-101042318D01*
X255671250Y-101005978D01*
X255671250Y-117777374D01*
X255668325Y-117762669D01*
X255537537Y-117446919D01*
X255347663Y-117162752D01*
X255105998Y-116921087D01*
X254821831Y-116731213D01*
X254506081Y-116600425D01*
X254170883Y-116533750D01*
X253829117Y-116533750D01*
X253493919Y-116600425D01*
X253178169Y-116731213D01*
X252894002Y-116921087D01*
X252652337Y-117162752D01*
X252462463Y-117446919D01*
X252331675Y-117762669D01*
X252265000Y-118097867D01*
X252265000Y-118439633D01*
X252331675Y-118774831D01*
X252462463Y-119090581D01*
X252652337Y-119374748D01*
X252894002Y-119616413D01*
X253178169Y-119806287D01*
X253493919Y-119937075D01*
X253508624Y-119940000D01*
X174322626Y-119940000D01*
X174337331Y-119937075D01*
X174653081Y-119806287D01*
X174937248Y-119616413D01*
X175178913Y-119374748D01*
X175368787Y-119090581D01*
X175499575Y-118774831D01*
X175566250Y-118439633D01*
X175566250Y-118097867D01*
X175499575Y-117762669D01*
X175368787Y-117446919D01*
X175178913Y-117162752D01*
X174937248Y-116921087D01*
X174653081Y-116731213D01*
X174337331Y-116600425D01*
X174002133Y-116533750D01*
X173660367Y-116533750D01*
X173325169Y-116600425D01*
X173009419Y-116731213D01*
X172725252Y-116921087D01*
X172483587Y-117162752D01*
X172293713Y-117446919D01*
X172162925Y-117762669D01*
X172160000Y-117777374D01*
X172160000Y-107007528D01*
X179147500Y-107007528D01*
X179147500Y-107304972D01*
X179205529Y-107596701D01*
X179319356Y-107871503D01*
X179484607Y-108118819D01*
X179694931Y-108329143D01*
X179942247Y-108494394D01*
X180217049Y-108608221D01*
X180508778Y-108666250D01*
X180806222Y-108666250D01*
X181097951Y-108608221D01*
X181372753Y-108494394D01*
X181620069Y-108329143D01*
X181830393Y-108118819D01*
X181995644Y-107871503D01*
X182109471Y-107596701D01*
X182167500Y-107304972D01*
X182167500Y-107007528D01*
X182145580Y-106897326D01*
X183108600Y-106897326D01*
X183108600Y-107415174D01*
X183209627Y-107923072D01*
X183407799Y-108401501D01*
X183695500Y-108832076D01*
X184061674Y-109198250D01*
X184492249Y-109485951D01*
X184970678Y-109684123D01*
X185478576Y-109785150D01*
X185996424Y-109785150D01*
X186504322Y-109684123D01*
X186982751Y-109485951D01*
X187413326Y-109198250D01*
X187779500Y-108832076D01*
X188067201Y-108401501D01*
X188265373Y-107923072D01*
X188366400Y-107415174D01*
X188366400Y-106897326D01*
X188265373Y-106389428D01*
X188229792Y-106303529D01*
X188536198Y-106508262D01*
X188924744Y-106669203D01*
X189337221Y-106751250D01*
X189358477Y-106751250D01*
X189307500Y-107007528D01*
X189307500Y-107304972D01*
X189365529Y-107596701D01*
X189479356Y-107871503D01*
X189644607Y-108118819D01*
X189854931Y-108329143D01*
X190102247Y-108494394D01*
X190377049Y-108608221D01*
X190668778Y-108666250D01*
X190966222Y-108666250D01*
X191257951Y-108608221D01*
X191532753Y-108494394D01*
X191780069Y-108329143D01*
X191990393Y-108118819D01*
X192155644Y-107871503D01*
X192269471Y-107596701D01*
X192327500Y-107304972D01*
X192327500Y-107007528D01*
X192269471Y-106715799D01*
X192155644Y-106440997D01*
X191990393Y-106193681D01*
X191780069Y-105983357D01*
X191532753Y-105818106D01*
X191360001Y-105746549D01*
X191439512Y-105627552D01*
X191600453Y-105239006D01*
X191682500Y-104826529D01*
X191682500Y-104405971D01*
X191600453Y-103993494D01*
X191439512Y-103604948D01*
X191205863Y-103255267D01*
X190908483Y-102957887D01*
X190558802Y-102724238D01*
X190170256Y-102563297D01*
X189757779Y-102481250D01*
X189337221Y-102481250D01*
X188924744Y-102563297D01*
X188536198Y-102724238D01*
X188186517Y-102957887D01*
X187889137Y-103255267D01*
X187655488Y-103604948D01*
X187494547Y-103993494D01*
X187412500Y-104405971D01*
X187412500Y-104826529D01*
X187483737Y-105184661D01*
X187413326Y-105114250D01*
X186982751Y-104826549D01*
X186504322Y-104628377D01*
X185996424Y-104527350D01*
X185478576Y-104527350D01*
X184970678Y-104628377D01*
X184492249Y-104826549D01*
X184061674Y-105114250D01*
X183695500Y-105480424D01*
X183407799Y-105910999D01*
X183209627Y-106389428D01*
X183108600Y-106897326D01*
X182145580Y-106897326D01*
X182109471Y-106715799D01*
X181995644Y-106440997D01*
X181830393Y-106193681D01*
X181620069Y-105983357D01*
X181372753Y-105818106D01*
X181097951Y-105704279D01*
X180806222Y-105646250D01*
X180508778Y-105646250D01*
X180217049Y-105704279D01*
X179942247Y-105818106D01*
X179694931Y-105983357D01*
X179484607Y-106193681D01*
X179319356Y-106440997D01*
X179205529Y-106715799D01*
X179147500Y-107007528D01*
X172160000Y-107007528D01*
X172160000Y-101865971D01*
X181062500Y-101865971D01*
X181062500Y-102286529D01*
X181144547Y-102699006D01*
X181305488Y-103087552D01*
X181539137Y-103437233D01*
X181836517Y-103734613D01*
X182186198Y-103968262D01*
X182574744Y-104129203D01*
X182987221Y-104211250D01*
X183407779Y-104211250D01*
X183820256Y-104129203D01*
X184208802Y-103968262D01*
X184558483Y-103734613D01*
X184855863Y-103437233D01*
X185089512Y-103087552D01*
X185250453Y-102699006D01*
X185332500Y-102286529D01*
X185332500Y-101865971D01*
X185250453Y-101453494D01*
X185089512Y-101064948D01*
X184855863Y-100715267D01*
X184558483Y-100417887D01*
X184208802Y-100184238D01*
X183820256Y-100023297D01*
X183407779Y-99941250D01*
X182987221Y-99941250D01*
X182574744Y-100023297D01*
X182186198Y-100184238D01*
X181836517Y-100417887D01*
X181539137Y-100715267D01*
X181305488Y-101064948D01*
X181144547Y-101453494D01*
X181062500Y-101865971D01*
X172160000Y-101865971D01*
X172160000Y-93512399D01*
X180562250Y-93512399D01*
X180562250Y-93812601D01*
X180620816Y-94107034D01*
X180735699Y-94384385D01*
X180902482Y-94633993D01*
X181114757Y-94846268D01*
X181364365Y-95013051D01*
X181641716Y-95127934D01*
X181936149Y-95186500D01*
X182236351Y-95186500D01*
X182530784Y-95127934D01*
X182808135Y-95013051D01*
X183057743Y-94846268D01*
X183270018Y-94633993D01*
X183436801Y-94384385D01*
X183551684Y-94107034D01*
X183610250Y-93812601D01*
X183610250Y-93512399D01*
X183551684Y-93217966D01*
X183436801Y-92940615D01*
X183270018Y-92691007D01*
X183057743Y-92478732D01*
X182808135Y-92311949D01*
X182530784Y-92197066D01*
X182236351Y-92138500D01*
X181936149Y-92138500D01*
X181641716Y-92197066D01*
X181364365Y-92311949D01*
X181114757Y-92478732D01*
X180902482Y-92691007D01*
X180735699Y-92940615D01*
X180620816Y-93217966D01*
X180562250Y-93512399D01*
X172160000Y-93512399D01*
X172160000Y-87957528D01*
X179147500Y-87957528D01*
X179147500Y-88254972D01*
X179205529Y-88546701D01*
X179319356Y-88821503D01*
X179484607Y-89068819D01*
X179694931Y-89279143D01*
X179942247Y-89444394D01*
X180217049Y-89558221D01*
X180508778Y-89616250D01*
X180806222Y-89616250D01*
X181097951Y-89558221D01*
X181372753Y-89444394D01*
X181620069Y-89279143D01*
X181830393Y-89068819D01*
X181995644Y-88821503D01*
X182109471Y-88546701D01*
X182167500Y-88254972D01*
X182167500Y-87957528D01*
X182109471Y-87665799D01*
X181995644Y-87390997D01*
X181830393Y-87143681D01*
X181620069Y-86933357D01*
X181372753Y-86768106D01*
X181097951Y-86654279D01*
X180806222Y-86596250D01*
X180508778Y-86596250D01*
X180217049Y-86654279D01*
X179942247Y-86768106D01*
X179694931Y-86933357D01*
X179484607Y-87143681D01*
X179319356Y-87390997D01*
X179205529Y-87665799D01*
X179147500Y-87957528D01*
X172160000Y-87957528D01*
X172160000Y-82815971D01*
X181062500Y-82815971D01*
X181062500Y-83236529D01*
X181144547Y-83649006D01*
X181305488Y-84037552D01*
X181539137Y-84387233D01*
X181836517Y-84684613D01*
X182186198Y-84918262D01*
X182574744Y-85079203D01*
X182987221Y-85161250D01*
X183407779Y-85161250D01*
X183820256Y-85079203D01*
X184208802Y-84918262D01*
X184558483Y-84684613D01*
X184855863Y-84387233D01*
X185089512Y-84037552D01*
X185250453Y-83649006D01*
X185332500Y-83236529D01*
X185332500Y-82815971D01*
X185250453Y-82403494D01*
X185089512Y-82014948D01*
X184855863Y-81665267D01*
X184558483Y-81367887D01*
X184208802Y-81134238D01*
X183820256Y-80973297D01*
X183407779Y-80891250D01*
X182987221Y-80891250D01*
X182574744Y-80973297D01*
X182186198Y-81134238D01*
X181836517Y-81367887D01*
X181539137Y-81665267D01*
X181305488Y-82014948D01*
X181144547Y-82403494D01*
X181062500Y-82815971D01*
X172160000Y-82815971D01*
X172160000Y-74462399D01*
X180562250Y-74462399D01*
X180562250Y-74762601D01*
X180620816Y-75057034D01*
X180735699Y-75334385D01*
X180902482Y-75583993D01*
X181114757Y-75796268D01*
X181364365Y-75963051D01*
X181641716Y-76077934D01*
X181936149Y-76136500D01*
X182236351Y-76136500D01*
X182530784Y-76077934D01*
X182808135Y-75963051D01*
X183057743Y-75796268D01*
X183270018Y-75583993D01*
X183436801Y-75334385D01*
X183551684Y-75057034D01*
X183610250Y-74762601D01*
X183610250Y-74462399D01*
X183551684Y-74167966D01*
X183436801Y-73890615D01*
X183325139Y-73723500D01*
X188179178Y-73723500D01*
X188179178Y-75501500D01*
X188191438Y-75625982D01*
X188227748Y-75745680D01*
X188286713Y-75855994D01*
X188366065Y-75952685D01*
X188462756Y-76032037D01*
X188573070Y-76091002D01*
X188692768Y-76127312D01*
X188817250Y-76139572D01*
X190069888Y-76139572D01*
X190033301Y-76323510D01*
X190033301Y-76527388D01*
X190073075Y-76727347D01*
X190151096Y-76915705D01*
X190264364Y-77085223D01*
X190408527Y-77229386D01*
X190578045Y-77342654D01*
X190766403Y-77420675D01*
X190966362Y-77460449D01*
X191170240Y-77460449D01*
X191370199Y-77420675D01*
X191558557Y-77342654D01*
X191728075Y-77229386D01*
X191770012Y-77187449D01*
X199097840Y-77187449D01*
X199139777Y-77229386D01*
X199309295Y-77342654D01*
X199497653Y-77420675D01*
X199697612Y-77460449D01*
X199901490Y-77460449D01*
X200101449Y-77420675D01*
X200289807Y-77342654D01*
X200459325Y-77229386D01*
X200603488Y-77085223D01*
X200716756Y-76915705D01*
X200794777Y-76727347D01*
X200834551Y-76527388D01*
X200834551Y-76323510D01*
X200794777Y-76123551D01*
X200783439Y-76096179D01*
X200986149Y-76136500D01*
X201286351Y-76136500D01*
X201580784Y-76077934D01*
X201858135Y-75963051D01*
X202107743Y-75796268D01*
X202320018Y-75583993D01*
X202486801Y-75334385D01*
X202601684Y-75057034D01*
X202660250Y-74762601D01*
X202660250Y-74462399D01*
X202633987Y-74330367D01*
X203231751Y-74928131D01*
X203231750Y-77085789D01*
X203189813Y-77127726D01*
X203076545Y-77297244D01*
X202998524Y-77485602D01*
X202958750Y-77685561D01*
X202958750Y-77889439D01*
X202998524Y-78089398D01*
X203076545Y-78277756D01*
X203189813Y-78447274D01*
X203333976Y-78591437D01*
X203503494Y-78704705D01*
X203691852Y-78782726D01*
X203891811Y-78822500D01*
X204095689Y-78822500D01*
X204295648Y-78782726D01*
X204484006Y-78704705D01*
X204653524Y-78591437D01*
X204797687Y-78447274D01*
X204910955Y-78277756D01*
X204988976Y-78089398D01*
X205028750Y-77889439D01*
X205028750Y-77685561D01*
X204988976Y-77485602D01*
X204910955Y-77297244D01*
X204797687Y-77127726D01*
X204755750Y-77085789D01*
X204755750Y-74649923D01*
X204759436Y-74612500D01*
X204755750Y-74575074D01*
X204744724Y-74463122D01*
X204701152Y-74319485D01*
X204668215Y-74257864D01*
X204630395Y-74187107D01*
X204579713Y-74125352D01*
X204535172Y-74071078D01*
X204506096Y-74047216D01*
X204182380Y-73723500D01*
X207229178Y-73723500D01*
X207229178Y-75501500D01*
X207241438Y-75625982D01*
X207277748Y-75745680D01*
X207336713Y-75855994D01*
X207416065Y-75952685D01*
X207512756Y-76032037D01*
X207623070Y-76091002D01*
X207742768Y-76127312D01*
X207867250Y-76139572D01*
X209119888Y-76139572D01*
X209083301Y-76323510D01*
X209083301Y-76527388D01*
X209123075Y-76727347D01*
X209201096Y-76915705D01*
X209314364Y-77085223D01*
X209458527Y-77229386D01*
X209628045Y-77342654D01*
X209816403Y-77420675D01*
X210016362Y-77460449D01*
X210220240Y-77460449D01*
X210420199Y-77420675D01*
X210608557Y-77342654D01*
X210778075Y-77229386D01*
X210820012Y-77187449D01*
X218147840Y-77187449D01*
X218189777Y-77229386D01*
X218359295Y-77342654D01*
X218547653Y-77420675D01*
X218747612Y-77460449D01*
X218951490Y-77460449D01*
X219151449Y-77420675D01*
X219339807Y-77342654D01*
X219509325Y-77229386D01*
X219653488Y-77085223D01*
X219766756Y-76915705D01*
X219844777Y-76727347D01*
X219884551Y-76527388D01*
X219884551Y-76323510D01*
X219844777Y-76123551D01*
X219833439Y-76096179D01*
X220036149Y-76136500D01*
X220336351Y-76136500D01*
X220630784Y-76077934D01*
X220908135Y-75963051D01*
X221157743Y-75796268D01*
X221370018Y-75583993D01*
X221536801Y-75334385D01*
X221651684Y-75057034D01*
X221710250Y-74762601D01*
X221710250Y-74462399D01*
X221651684Y-74167966D01*
X221536801Y-73890615D01*
X221425139Y-73723500D01*
X226279178Y-73723500D01*
X226279178Y-75501500D01*
X226291438Y-75625982D01*
X226327748Y-75745680D01*
X226386713Y-75855994D01*
X226466065Y-75952685D01*
X226562756Y-76032037D01*
X226673070Y-76091002D01*
X226792768Y-76127312D01*
X226917250Y-76139572D01*
X228695250Y-76139572D01*
X228819732Y-76127312D01*
X228939430Y-76091002D01*
X229049744Y-76032037D01*
X229146435Y-75952685D01*
X229225787Y-75855994D01*
X229284752Y-75745680D01*
X229321062Y-75625982D01*
X229333322Y-75501500D01*
X229333322Y-73723500D01*
X229321062Y-73599018D01*
X229284752Y-73479320D01*
X229225787Y-73369006D01*
X229146435Y-73272315D01*
X229049744Y-73192963D01*
X228939430Y-73133998D01*
X228819732Y-73097688D01*
X228695250Y-73085428D01*
X226917250Y-73085428D01*
X226792768Y-73097688D01*
X226673070Y-73133998D01*
X226562756Y-73192963D01*
X226466065Y-73272315D01*
X226386713Y-73369006D01*
X226327748Y-73479320D01*
X226291438Y-73599018D01*
X226279178Y-73723500D01*
X221425139Y-73723500D01*
X221370018Y-73641007D01*
X221157743Y-73428732D01*
X220908135Y-73261949D01*
X220630784Y-73147066D01*
X220336351Y-73088500D01*
X220036149Y-73088500D01*
X219741716Y-73147066D01*
X219464365Y-73261949D01*
X219214757Y-73428732D01*
X219002482Y-73641007D01*
X218835699Y-73890615D01*
X218720816Y-74167966D01*
X218662250Y-74462399D01*
X218662250Y-74762601D01*
X218720816Y-75057034D01*
X218835699Y-75334385D01*
X218873160Y-75390449D01*
X218747612Y-75390449D01*
X218547653Y-75430223D01*
X218359295Y-75508244D01*
X218189777Y-75621512D01*
X218147840Y-75663449D01*
X210820012Y-75663449D01*
X210778075Y-75621512D01*
X210608557Y-75508244D01*
X210420199Y-75430223D01*
X210283322Y-75402997D01*
X210283322Y-73723500D01*
X210271062Y-73599018D01*
X210234752Y-73479320D01*
X210175787Y-73369006D01*
X210096435Y-73272315D01*
X209999744Y-73192963D01*
X209889430Y-73133998D01*
X209769732Y-73097688D01*
X209645250Y-73085428D01*
X207867250Y-73085428D01*
X207742768Y-73097688D01*
X207623070Y-73133998D01*
X207512756Y-73192963D01*
X207416065Y-73272315D01*
X207336713Y-73369006D01*
X207277748Y-73479320D01*
X207241438Y-73599018D01*
X207229178Y-73723500D01*
X204182380Y-73723500D01*
X202917285Y-72458405D01*
X202893423Y-72429329D01*
X202777393Y-72334106D01*
X202645016Y-72263349D01*
X202501379Y-72219777D01*
X202389427Y-72208751D01*
X202389424Y-72208751D01*
X202352001Y-72205065D01*
X202314578Y-72208751D01*
X194705131Y-72208751D01*
X194697500Y-72201120D01*
X194697500Y-72141811D01*
X194657726Y-71941852D01*
X194579705Y-71753494D01*
X194466437Y-71583976D01*
X194322274Y-71439813D01*
X194152756Y-71326545D01*
X193964398Y-71248524D01*
X193764439Y-71208750D01*
X193560561Y-71208750D01*
X193360602Y-71248524D01*
X193172244Y-71326545D01*
X193002726Y-71439813D01*
X192858563Y-71583976D01*
X192745295Y-71753494D01*
X192667274Y-71941852D01*
X192627500Y-72141811D01*
X192627500Y-72345689D01*
X192667274Y-72545648D01*
X192745295Y-72734006D01*
X192858563Y-72903524D01*
X193002726Y-73047687D01*
X193172244Y-73160955D01*
X193360602Y-73238976D01*
X193560561Y-73278750D01*
X193619870Y-73278750D01*
X193824217Y-73483097D01*
X193848079Y-73512173D01*
X193921720Y-73572608D01*
X193964108Y-73607396D01*
X194016740Y-73635528D01*
X194096486Y-73678153D01*
X194240123Y-73721725D01*
X194352075Y-73732751D01*
X194352078Y-73732751D01*
X194389501Y-73736437D01*
X194426924Y-73732751D01*
X199891181Y-73732751D01*
X199785699Y-73890615D01*
X199670816Y-74167966D01*
X199612250Y-74462399D01*
X199612250Y-74762601D01*
X199670816Y-75057034D01*
X199785699Y-75334385D01*
X199823160Y-75390449D01*
X199697612Y-75390449D01*
X199497653Y-75430223D01*
X199309295Y-75508244D01*
X199139777Y-75621512D01*
X199097840Y-75663449D01*
X191770012Y-75663449D01*
X191728075Y-75621512D01*
X191558557Y-75508244D01*
X191370199Y-75430223D01*
X191233322Y-75402997D01*
X191233322Y-73723500D01*
X191221062Y-73599018D01*
X191184752Y-73479320D01*
X191125787Y-73369006D01*
X191046435Y-73272315D01*
X190949744Y-73192963D01*
X190839430Y-73133998D01*
X190719732Y-73097688D01*
X190595250Y-73085428D01*
X188817250Y-73085428D01*
X188692768Y-73097688D01*
X188573070Y-73133998D01*
X188462756Y-73192963D01*
X188366065Y-73272315D01*
X188286713Y-73369006D01*
X188227748Y-73479320D01*
X188191438Y-73599018D01*
X188179178Y-73723500D01*
X183325139Y-73723500D01*
X183270018Y-73641007D01*
X183057743Y-73428732D01*
X182808135Y-73261949D01*
X182530784Y-73147066D01*
X182236351Y-73088500D01*
X181936149Y-73088500D01*
X181641716Y-73147066D01*
X181364365Y-73261949D01*
X181114757Y-73428732D01*
X180902482Y-73641007D01*
X180735699Y-73890615D01*
X180620816Y-74167966D01*
X180562250Y-74462399D01*
X172160000Y-74462399D01*
X172160000Y-68907528D01*
X179147500Y-68907528D01*
X179147500Y-69204972D01*
X179205529Y-69496701D01*
X179319356Y-69771503D01*
X179484607Y-70018819D01*
X179694931Y-70229143D01*
X179942247Y-70394394D01*
X180217049Y-70508221D01*
X180508778Y-70566250D01*
X180806222Y-70566250D01*
X181097951Y-70508221D01*
X181372753Y-70394394D01*
X181620069Y-70229143D01*
X181830393Y-70018819D01*
X181995644Y-69771503D01*
X182109471Y-69496701D01*
X182167500Y-69204972D01*
X182167500Y-68907528D01*
X182145580Y-68797326D01*
X183108600Y-68797326D01*
X183108600Y-69315174D01*
X183209627Y-69823072D01*
X183407799Y-70301501D01*
X183695500Y-70732076D01*
X184061674Y-71098250D01*
X184492249Y-71385951D01*
X184970678Y-71584123D01*
X185478576Y-71685150D01*
X185996424Y-71685150D01*
X186504322Y-71584123D01*
X186982751Y-71385951D01*
X187413326Y-71098250D01*
X187779500Y-70732076D01*
X188067201Y-70301501D01*
X188265373Y-69823072D01*
X188366400Y-69315174D01*
X188366400Y-68797326D01*
X188265373Y-68289428D01*
X188229792Y-68203529D01*
X188536198Y-68408262D01*
X188924744Y-68569203D01*
X189337221Y-68651250D01*
X189358477Y-68651250D01*
X189307500Y-68907528D01*
X189307500Y-69204972D01*
X189365529Y-69496701D01*
X189479356Y-69771503D01*
X189644607Y-70018819D01*
X189854931Y-70229143D01*
X190102247Y-70394394D01*
X190377049Y-70508221D01*
X190668778Y-70566250D01*
X190966222Y-70566250D01*
X191257951Y-70508221D01*
X191532753Y-70394394D01*
X191780069Y-70229143D01*
X191990393Y-70018819D01*
X192155644Y-69771503D01*
X192269471Y-69496701D01*
X192327500Y-69204972D01*
X192327500Y-68907528D01*
X198197500Y-68907528D01*
X198197500Y-69204972D01*
X198255529Y-69496701D01*
X198369356Y-69771503D01*
X198534607Y-70018819D01*
X198744931Y-70229143D01*
X198992247Y-70394394D01*
X199267049Y-70508221D01*
X199558778Y-70566250D01*
X199856222Y-70566250D01*
X200147951Y-70508221D01*
X200422753Y-70394394D01*
X200670069Y-70229143D01*
X200880393Y-70018819D01*
X201045644Y-69771503D01*
X201159471Y-69496701D01*
X201217500Y-69204972D01*
X201217500Y-68907528D01*
X201195580Y-68797326D01*
X202158600Y-68797326D01*
X202158600Y-69315174D01*
X202259627Y-69823072D01*
X202457799Y-70301501D01*
X202745500Y-70732076D01*
X203111674Y-71098250D01*
X203542249Y-71385951D01*
X204020678Y-71584123D01*
X204528576Y-71685150D01*
X205046424Y-71685150D01*
X205554322Y-71584123D01*
X206032751Y-71385951D01*
X206463326Y-71098250D01*
X206829500Y-70732076D01*
X207117201Y-70301501D01*
X207315373Y-69823072D01*
X207416400Y-69315174D01*
X207416400Y-68797326D01*
X207315373Y-68289428D01*
X207279792Y-68203529D01*
X207586198Y-68408262D01*
X207974744Y-68569203D01*
X208387221Y-68651250D01*
X208408477Y-68651250D01*
X208357500Y-68907528D01*
X208357500Y-69204972D01*
X208415529Y-69496701D01*
X208529356Y-69771503D01*
X208694607Y-70018819D01*
X208904931Y-70229143D01*
X209152247Y-70394394D01*
X209427049Y-70508221D01*
X209718778Y-70566250D01*
X210016222Y-70566250D01*
X210307951Y-70508221D01*
X210582753Y-70394394D01*
X210830069Y-70229143D01*
X211040393Y-70018819D01*
X211205644Y-69771503D01*
X211319471Y-69496701D01*
X211377500Y-69204972D01*
X211377500Y-68907528D01*
X217247500Y-68907528D01*
X217247500Y-69204972D01*
X217305529Y-69496701D01*
X217419356Y-69771503D01*
X217584607Y-70018819D01*
X217794931Y-70229143D01*
X218042247Y-70394394D01*
X218317049Y-70508221D01*
X218608778Y-70566250D01*
X218906222Y-70566250D01*
X219197951Y-70508221D01*
X219472753Y-70394394D01*
X219720069Y-70229143D01*
X219930393Y-70018819D01*
X220095644Y-69771503D01*
X220209471Y-69496701D01*
X220267500Y-69204972D01*
X220267500Y-68907528D01*
X220245580Y-68797326D01*
X221208600Y-68797326D01*
X221208600Y-69315174D01*
X221309627Y-69823072D01*
X221507799Y-70301501D01*
X221795500Y-70732076D01*
X222161674Y-71098250D01*
X222592249Y-71385951D01*
X223070678Y-71584123D01*
X223578576Y-71685150D01*
X224096424Y-71685150D01*
X224604322Y-71584123D01*
X225082751Y-71385951D01*
X225513326Y-71098250D01*
X225879500Y-70732076D01*
X226167201Y-70301501D01*
X226365373Y-69823072D01*
X226466400Y-69315174D01*
X226466400Y-68797326D01*
X226365373Y-68289428D01*
X226329792Y-68203529D01*
X226636198Y-68408262D01*
X227024744Y-68569203D01*
X227437221Y-68651250D01*
X227458477Y-68651250D01*
X227407500Y-68907528D01*
X227407500Y-69204972D01*
X227465529Y-69496701D01*
X227579356Y-69771503D01*
X227744607Y-70018819D01*
X227954931Y-70229143D01*
X228202247Y-70394394D01*
X228477049Y-70508221D01*
X228768778Y-70566250D01*
X229066222Y-70566250D01*
X229357951Y-70508221D01*
X229632753Y-70394394D01*
X229880069Y-70229143D01*
X230090393Y-70018819D01*
X230255644Y-69771503D01*
X230369471Y-69496701D01*
X230427500Y-69204972D01*
X230427500Y-68907528D01*
X230369471Y-68615799D01*
X230255644Y-68340997D01*
X230090393Y-68093681D01*
X229880069Y-67883357D01*
X229632753Y-67718106D01*
X229460001Y-67646549D01*
X229533706Y-67536241D01*
X233750387Y-67536241D01*
X233792704Y-67830917D01*
X233891698Y-68111677D01*
X233968571Y-68255496D01*
X234220331Y-68336313D01*
X235087895Y-67468750D01*
X234220331Y-66601187D01*
X233968571Y-66682004D01*
X233840043Y-66950529D01*
X233766371Y-67238969D01*
X233750387Y-67536241D01*
X229533706Y-67536241D01*
X229539512Y-67527552D01*
X229700453Y-67139006D01*
X229782500Y-66726529D01*
X229782500Y-66305971D01*
X229716849Y-65975919D01*
X234399937Y-65975919D01*
X234471468Y-66198750D01*
X234399937Y-66421581D01*
X235267500Y-67289145D01*
X236135063Y-66421581D01*
X236063532Y-66198750D01*
X236135063Y-65975919D01*
X235267500Y-65108355D01*
X234399937Y-65975919D01*
X229716849Y-65975919D01*
X229700453Y-65893494D01*
X229539512Y-65504948D01*
X229305863Y-65155267D01*
X229146837Y-64996241D01*
X233750387Y-64996241D01*
X233792704Y-65290917D01*
X233891698Y-65571677D01*
X233968571Y-65715496D01*
X234220331Y-65796313D01*
X235087895Y-64928750D01*
X235447105Y-64928750D01*
X236314669Y-65796313D01*
X236566429Y-65715496D01*
X236694957Y-65446971D01*
X236768629Y-65158531D01*
X236784613Y-64861259D01*
X236742296Y-64566583D01*
X236643302Y-64285823D01*
X236566429Y-64142004D01*
X236314669Y-64061187D01*
X235447105Y-64928750D01*
X235087895Y-64928750D01*
X234220331Y-64061187D01*
X233968571Y-64142004D01*
X233840043Y-64410529D01*
X233766371Y-64698969D01*
X233750387Y-64996241D01*
X229146837Y-64996241D01*
X229008483Y-64857887D01*
X228658802Y-64624238D01*
X228270256Y-64463297D01*
X227857779Y-64381250D01*
X227437221Y-64381250D01*
X227024744Y-64463297D01*
X226636198Y-64624238D01*
X226286517Y-64857887D01*
X225989137Y-65155267D01*
X225755488Y-65504948D01*
X225594547Y-65893494D01*
X225512500Y-66305971D01*
X225512500Y-66726529D01*
X225583737Y-67084661D01*
X225513326Y-67014250D01*
X225082751Y-66726549D01*
X224604322Y-66528377D01*
X224096424Y-66427350D01*
X223578576Y-66427350D01*
X223070678Y-66528377D01*
X222592249Y-66726549D01*
X222161674Y-67014250D01*
X221795500Y-67380424D01*
X221507799Y-67810999D01*
X221309627Y-68289428D01*
X221208600Y-68797326D01*
X220245580Y-68797326D01*
X220209471Y-68615799D01*
X220095644Y-68340997D01*
X219930393Y-68093681D01*
X219720069Y-67883357D01*
X219472753Y-67718106D01*
X219197951Y-67604279D01*
X218906222Y-67546250D01*
X218608778Y-67546250D01*
X218317049Y-67604279D01*
X218042247Y-67718106D01*
X217794931Y-67883357D01*
X217584607Y-68093681D01*
X217419356Y-68340997D01*
X217305529Y-68615799D01*
X217247500Y-68907528D01*
X211377500Y-68907528D01*
X211319471Y-68615799D01*
X211205644Y-68340997D01*
X211040393Y-68093681D01*
X210830069Y-67883357D01*
X210582753Y-67718106D01*
X210410001Y-67646549D01*
X210489512Y-67527552D01*
X210650453Y-67139006D01*
X210732500Y-66726529D01*
X210732500Y-66305971D01*
X210650453Y-65893494D01*
X210489512Y-65504948D01*
X210255863Y-65155267D01*
X209958483Y-64857887D01*
X209608802Y-64624238D01*
X209220256Y-64463297D01*
X208807779Y-64381250D01*
X208387221Y-64381250D01*
X207974744Y-64463297D01*
X207586198Y-64624238D01*
X207236517Y-64857887D01*
X206939137Y-65155267D01*
X206705488Y-65504948D01*
X206544547Y-65893494D01*
X206462500Y-66305971D01*
X206462500Y-66726529D01*
X206533737Y-67084661D01*
X206463326Y-67014250D01*
X206032751Y-66726549D01*
X205554322Y-66528377D01*
X205046424Y-66427350D01*
X204528576Y-66427350D01*
X204020678Y-66528377D01*
X203542249Y-66726549D01*
X203111674Y-67014250D01*
X202745500Y-67380424D01*
X202457799Y-67810999D01*
X202259627Y-68289428D01*
X202158600Y-68797326D01*
X201195580Y-68797326D01*
X201159471Y-68615799D01*
X201045644Y-68340997D01*
X200880393Y-68093681D01*
X200670069Y-67883357D01*
X200422753Y-67718106D01*
X200147951Y-67604279D01*
X199856222Y-67546250D01*
X199558778Y-67546250D01*
X199267049Y-67604279D01*
X198992247Y-67718106D01*
X198744931Y-67883357D01*
X198534607Y-68093681D01*
X198369356Y-68340997D01*
X198255529Y-68615799D01*
X198197500Y-68907528D01*
X192327500Y-68907528D01*
X192269471Y-68615799D01*
X192155644Y-68340997D01*
X191990393Y-68093681D01*
X191780069Y-67883357D01*
X191532753Y-67718106D01*
X191360001Y-67646549D01*
X191439512Y-67527552D01*
X191600453Y-67139006D01*
X191682500Y-66726529D01*
X191682500Y-66305971D01*
X191600453Y-65893494D01*
X191439512Y-65504948D01*
X191205863Y-65155267D01*
X190908483Y-64857887D01*
X190558802Y-64624238D01*
X190170256Y-64463297D01*
X189757779Y-64381250D01*
X189337221Y-64381250D01*
X188924744Y-64463297D01*
X188536198Y-64624238D01*
X188186517Y-64857887D01*
X187889137Y-65155267D01*
X187655488Y-65504948D01*
X187494547Y-65893494D01*
X187412500Y-66305971D01*
X187412500Y-66726529D01*
X187483737Y-67084661D01*
X187413326Y-67014250D01*
X186982751Y-66726549D01*
X186504322Y-66528377D01*
X185996424Y-66427350D01*
X185478576Y-66427350D01*
X184970678Y-66528377D01*
X184492249Y-66726549D01*
X184061674Y-67014250D01*
X183695500Y-67380424D01*
X183407799Y-67810999D01*
X183209627Y-68289428D01*
X183108600Y-68797326D01*
X182145580Y-68797326D01*
X182109471Y-68615799D01*
X181995644Y-68340997D01*
X181830393Y-68093681D01*
X181620069Y-67883357D01*
X181372753Y-67718106D01*
X181097951Y-67604279D01*
X180806222Y-67546250D01*
X180508778Y-67546250D01*
X180217049Y-67604279D01*
X179942247Y-67718106D01*
X179694931Y-67883357D01*
X179484607Y-68093681D01*
X179319356Y-68340997D01*
X179205529Y-68615799D01*
X179147500Y-68907528D01*
X172160000Y-68907528D01*
X172160000Y-63765971D01*
X181062500Y-63765971D01*
X181062500Y-64186529D01*
X181144547Y-64599006D01*
X181305488Y-64987552D01*
X181539137Y-65337233D01*
X181836517Y-65634613D01*
X182186198Y-65868262D01*
X182574744Y-66029203D01*
X182987221Y-66111250D01*
X183407779Y-66111250D01*
X183820256Y-66029203D01*
X184208802Y-65868262D01*
X184558483Y-65634613D01*
X184855863Y-65337233D01*
X185089512Y-64987552D01*
X185250453Y-64599006D01*
X185332500Y-64186529D01*
X185332500Y-63765971D01*
X200112500Y-63765971D01*
X200112500Y-64186529D01*
X200194547Y-64599006D01*
X200355488Y-64987552D01*
X200589137Y-65337233D01*
X200886517Y-65634613D01*
X201236198Y-65868262D01*
X201624744Y-66029203D01*
X202037221Y-66111250D01*
X202457779Y-66111250D01*
X202870256Y-66029203D01*
X203258802Y-65868262D01*
X203608483Y-65634613D01*
X203905863Y-65337233D01*
X204139512Y-64987552D01*
X204300453Y-64599006D01*
X204382500Y-64186529D01*
X204382500Y-63765971D01*
X219162500Y-63765971D01*
X219162500Y-64186529D01*
X219244547Y-64599006D01*
X219405488Y-64987552D01*
X219639137Y-65337233D01*
X219936517Y-65634613D01*
X220286198Y-65868262D01*
X220674744Y-66029203D01*
X221087221Y-66111250D01*
X221507779Y-66111250D01*
X221920256Y-66029203D01*
X222308802Y-65868262D01*
X222658483Y-65634613D01*
X222955863Y-65337233D01*
X223189512Y-64987552D01*
X223350453Y-64599006D01*
X223432500Y-64186529D01*
X223432500Y-63765971D01*
X223350453Y-63353494D01*
X223189512Y-62964948D01*
X222955863Y-62615267D01*
X222658483Y-62317887D01*
X222308802Y-62084238D01*
X221920256Y-61923297D01*
X221507779Y-61841250D01*
X221087221Y-61841250D01*
X220674744Y-61923297D01*
X220286198Y-62084238D01*
X219936517Y-62317887D01*
X219639137Y-62615267D01*
X219405488Y-62964948D01*
X219244547Y-63353494D01*
X219162500Y-63765971D01*
X204382500Y-63765971D01*
X204300453Y-63353494D01*
X204139512Y-62964948D01*
X203905863Y-62615267D01*
X203608483Y-62317887D01*
X203258802Y-62084238D01*
X202870256Y-61923297D01*
X202457779Y-61841250D01*
X202037221Y-61841250D01*
X201624744Y-61923297D01*
X201236198Y-62084238D01*
X200886517Y-62317887D01*
X200589137Y-62615267D01*
X200355488Y-62964948D01*
X200194547Y-63353494D01*
X200112500Y-63765971D01*
X185332500Y-63765971D01*
X185250453Y-63353494D01*
X185089512Y-62964948D01*
X184855863Y-62615267D01*
X184558483Y-62317887D01*
X184208802Y-62084238D01*
X183820256Y-61923297D01*
X183407779Y-61841250D01*
X182987221Y-61841250D01*
X182574744Y-61923297D01*
X182186198Y-62084238D01*
X181836517Y-62317887D01*
X181539137Y-62615267D01*
X181305488Y-62964948D01*
X181144547Y-63353494D01*
X181062500Y-63765971D01*
X172160000Y-63765971D01*
X172160000Y-58435126D01*
X172162925Y-58449831D01*
X172293713Y-58765581D01*
X172483587Y-59049748D01*
X172725252Y-59291413D01*
X173009419Y-59481287D01*
X173325169Y-59612075D01*
X173660367Y-59678750D01*
X174002133Y-59678750D01*
X174337331Y-59612075D01*
X174653081Y-59481287D01*
X174937248Y-59291413D01*
X175178913Y-59049748D01*
X175230561Y-58972450D01*
X233753128Y-58972450D01*
X233753128Y-60725050D01*
X233765388Y-60849532D01*
X233801698Y-60969230D01*
X233860663Y-61079544D01*
X233940015Y-61176235D01*
X234036706Y-61255587D01*
X234147020Y-61314552D01*
X234191042Y-61327906D01*
X234093596Y-61425352D01*
X233928203Y-61672881D01*
X233814278Y-61947920D01*
X233756200Y-62239900D01*
X233756200Y-62537600D01*
X233814278Y-62829580D01*
X233928203Y-63104619D01*
X234093596Y-63352148D01*
X234304102Y-63562654D01*
X234467309Y-63671705D01*
X234399937Y-63881581D01*
X235267500Y-64749145D01*
X236135063Y-63881581D01*
X236067691Y-63671705D01*
X236230898Y-63562654D01*
X236441404Y-63352148D01*
X236606797Y-63104619D01*
X236720722Y-62829580D01*
X236778800Y-62537600D01*
X236778800Y-62456241D01*
X248990387Y-62456241D01*
X249032704Y-62750917D01*
X249131698Y-63031677D01*
X249208571Y-63175496D01*
X249460331Y-63256313D01*
X250327895Y-62388750D01*
X250687105Y-62388750D01*
X251554669Y-63256313D01*
X251806429Y-63175496D01*
X251934957Y-62906971D01*
X252008629Y-62618531D01*
X252024613Y-62321259D01*
X251982296Y-62026583D01*
X251883302Y-61745823D01*
X251806429Y-61602004D01*
X251554669Y-61521187D01*
X250687105Y-62388750D01*
X250327895Y-62388750D01*
X249460331Y-61521187D01*
X249208571Y-61602004D01*
X249080043Y-61870529D01*
X249006371Y-62158969D01*
X248990387Y-62456241D01*
X236778800Y-62456241D01*
X236778800Y-62239900D01*
X236720722Y-61947920D01*
X236606797Y-61672881D01*
X236441404Y-61425352D01*
X236343958Y-61327906D01*
X236387980Y-61314552D01*
X236498294Y-61255587D01*
X236594985Y-61176235D01*
X236674337Y-61079544D01*
X236733302Y-60969230D01*
X236769612Y-60849532D01*
X236781872Y-60725050D01*
X236781872Y-59699900D01*
X248996200Y-59699900D01*
X248996200Y-59997600D01*
X249054278Y-60289580D01*
X249168203Y-60564619D01*
X249333596Y-60812148D01*
X249544102Y-61022654D01*
X249707309Y-61131705D01*
X249639937Y-61341581D01*
X250507500Y-62209145D01*
X251375063Y-61341581D01*
X251307691Y-61131705D01*
X251470898Y-61022654D01*
X251681404Y-60812148D01*
X251846797Y-60564619D01*
X251960722Y-60289580D01*
X252018800Y-59997600D01*
X252018800Y-59699900D01*
X251960722Y-59407920D01*
X251846797Y-59132881D01*
X251681404Y-58885352D01*
X251470898Y-58674846D01*
X251223369Y-58509453D01*
X250948330Y-58395528D01*
X250656350Y-58337450D01*
X250358650Y-58337450D01*
X250066670Y-58395528D01*
X249791631Y-58509453D01*
X249544102Y-58674846D01*
X249333596Y-58885352D01*
X249168203Y-59132881D01*
X249054278Y-59407920D01*
X248996200Y-59699900D01*
X236781872Y-59699900D01*
X236781872Y-58972450D01*
X236769612Y-58847968D01*
X236733302Y-58728270D01*
X236674337Y-58617956D01*
X236594985Y-58521265D01*
X236498294Y-58441913D01*
X236387980Y-58382948D01*
X236268282Y-58346638D01*
X236143800Y-58334378D01*
X234391200Y-58334378D01*
X234266718Y-58346638D01*
X234147020Y-58382948D01*
X234036706Y-58441913D01*
X233940015Y-58521265D01*
X233860663Y-58617956D01*
X233801698Y-58728270D01*
X233765388Y-58847968D01*
X233753128Y-58972450D01*
X175230561Y-58972450D01*
X175368787Y-58765581D01*
X175499575Y-58449831D01*
X175566250Y-58114633D01*
X175566250Y-57772867D01*
X175499575Y-57437669D01*
X175368787Y-57121919D01*
X175178913Y-56837752D01*
X174937248Y-56596087D01*
X174653081Y-56406213D01*
X174337331Y-56275425D01*
X174322626Y-56272500D01*
X253508624Y-56272500D01*
X253493919Y-56275425D01*
M02*
