M48
; DRILL file {KiCad (5.1.6-0-10_14)} date Thursday, July 09, 2020 at 08:29:19 PM
; FORMAT={-:-/ absolute / inch / decimal}
; #@! TF.CreationDate,2020-07-09T20:29:19-05:00
; #@! TF.GenerationSoftware,Kicad,Pcbnew,(5.1.6-0-10_14)
; #@! TF.FileFunction,Plated,1,2,PTH
FMAT,2
INCH
T1C0.0157
T2C0.0390
T3C0.0394
T4C0.0430
T5C0.0433
T6C0.0591
%
G90
G05
T1
X7.5125Y-3.7687
X7.5224Y-3.0089
X7.6245Y-2.8442
X7.6245Y-3.2183
X7.6245Y-3.5942
X7.6245Y-3.9683
X7.6562Y-3.5
X7.7505Y-2.8442
X7.7505Y-3.2183
X7.7505Y-3.5942
X7.7505Y-3.9683
X7.8438Y-4.125
X7.8661Y-3.0089
X7.8875Y-3.7687
X8.0312Y-3.0625
X8.2625Y-3.7687
X8.2724Y-3.0089
X8.375Y-3.2188
X8.3792Y-3.5979
X8.3792Y-3.9646
X8.4995Y-2.8442
X8.501Y-3.2178
X8.5052Y-3.3489
X8.5052Y-3.5989
X8.6161Y-3.0089
X8.6375Y-3.7687
X9.1062Y-3.7687
X9.1161Y-3.0089
X9.2949Y-3.6074
X9.7929Y-3.9259
X9.9062Y-4.125
X9.9688Y-4.0312
X10.0Y-3.5938
T2
X7.9188Y-3.6875
X8.2188Y-3.6875
X7.1688Y-3.6875
X7.4688Y-3.6875
X9.42Y-3.839
X9.72Y-3.839
X8.6687Y-4.4375
X8.9688Y-4.4375
X7.9188Y-4.4375
X8.2188Y-4.4375
X7.1688Y-4.4375
X7.4688Y-4.4375
X8.6687Y-2.9375
X8.9688Y-2.9375
X7.9188Y-2.9375
X8.2188Y-2.9375
X7.1688Y-2.9375
X7.4688Y-2.9375
X8.6687Y-3.6875
X8.9688Y-3.6875
T3
X9.4641Y-3.9432
X9.4641Y-4.514
X9.5625Y-4.514
X9.6609Y-3.9432
X9.6609Y-4.514
X9.4187Y-3.6562
X9.5187Y-3.6562
X9.6188Y-3.6562
X9.7188Y-3.6562
T4
X9.2625Y-2.3562
X9.2625Y-2.4562
X9.2625Y-2.5562
X9.2625Y-2.6562
X9.2625Y-2.7563
X9.2625Y-2.8562
X9.2625Y-2.9562
X9.2625Y-3.0562
X9.2625Y-3.1562
X9.2625Y-3.2563
X9.2625Y-3.3562
X9.2625Y-3.4562
X9.8625Y-2.3562
X9.8625Y-2.4562
X9.8625Y-2.5562
X9.8625Y-2.6562
X9.8625Y-2.7563
X9.8625Y-2.8562
X9.8625Y-2.9562
X9.8625Y-3.0562
X9.8625Y-3.1562
X9.8625Y-3.2563
X9.8625Y-3.3562
X9.8625Y-3.4562
T5
X9.856Y-3.6651
X9.856Y-3.921
X10.0332Y-3.6651
X10.0332Y-3.921
T6
G00X9.342Y-4.2443
M15
G01X9.342Y-4.1932
M16
G05
G00X9.783Y-4.2443
M15
G01X9.783Y-4.1932
M16
G05
T0
M30
