G04 #@! TF.GenerationSoftware,KiCad,Pcbnew,(5.1.6-0-10_14)*
G04 #@! TF.CreationDate,2020-07-09T20:29:13-05:00*
G04 #@! TF.ProjectId,DoMo-pcb,446f4d6f-2d70-4636-922e-6b696361645f,rev?*
G04 #@! TF.SameCoordinates,Original*
G04 #@! TF.FileFunction,Soldermask,Top*
G04 #@! TF.FilePolarity,Negative*
%FSLAX46Y46*%
G04 Gerber Fmt 4.6, Leading zero omitted, Abs format (unit mm)*
G04 Created by KiCad (PCBNEW (5.1.6-0-10_14)) date 2020-07-09 20:29:13*
%MOMM*%
%LPD*%
G01*
G04 APERTURE LIST*
%ADD10C,3.100000*%
%ADD11C,4.087800*%
%ADD12C,1.850000*%
%ADD13R,2.650000X2.600000*%
%ADD14R,1.852600X1.852600*%
%ADD15C,1.852600*%
%ADD16R,2.100000X2.100000*%
%ADD17C,2.100000*%
%ADD18R,2.100000X3.300000*%
%ADD19R,1.100000X1.700000*%
%ADD20O,1.800000X1.800000*%
%ADD21R,1.800000X1.800000*%
%ADD22C,2.300000*%
%ADD23R,1.878000X1.878000*%
%ADD24C,1.878000*%
G04 APERTURE END LIST*
D10*
X202247500Y-83026250D03*
D11*
X204787500Y-88106250D03*
D10*
X208597500Y-85566250D03*
D12*
X209867500Y-88106250D03*
X199707500Y-88106250D03*
D13*
X211872500Y-85566250D03*
X198945500Y-83026250D03*
D14*
X235267500Y-59848750D03*
D15*
X235267500Y-62388750D03*
X235267500Y-64928750D03*
X235267500Y-67468750D03*
X235267500Y-70008750D03*
X235267500Y-72548750D03*
X235267500Y-75088750D03*
X235267500Y-77628750D03*
X235267500Y-80168750D03*
X235267500Y-82708750D03*
X235267500Y-85248750D03*
X250507500Y-87788750D03*
X250507500Y-85248750D03*
X250507500Y-82708750D03*
X250507500Y-80168750D03*
X250507500Y-77628750D03*
X250507500Y-75088750D03*
X250507500Y-72548750D03*
X250507500Y-70008750D03*
X250507500Y-67468750D03*
X250507500Y-64928750D03*
X250507500Y-62388750D03*
X235267500Y-87788750D03*
X250507500Y-59848750D03*
D10*
X183197500Y-102076250D03*
D11*
X185737500Y-107156250D03*
D10*
X189547500Y-104616250D03*
D12*
X190817500Y-107156250D03*
X180657500Y-107156250D03*
D13*
X192822500Y-104616250D03*
X179895500Y-102076250D03*
D10*
X202247500Y-102076250D03*
D11*
X204787500Y-107156250D03*
D10*
X208597500Y-104616250D03*
D12*
X209867500Y-107156250D03*
X199707500Y-107156250D03*
D13*
X211872500Y-104616250D03*
X198945500Y-102076250D03*
D10*
X221297500Y-102076250D03*
D11*
X223837500Y-107156250D03*
D10*
X227647500Y-104616250D03*
D12*
X228917500Y-107156250D03*
X218757500Y-107156250D03*
D13*
X230922500Y-104616250D03*
X217995500Y-102076250D03*
D10*
X183197500Y-83026250D03*
D11*
X185737500Y-88106250D03*
D10*
X189547500Y-85566250D03*
D12*
X190817500Y-88106250D03*
X180657500Y-88106250D03*
D13*
X192822500Y-85566250D03*
X179895500Y-83026250D03*
D10*
X221297500Y-83026250D03*
D11*
X223837500Y-88106250D03*
D10*
X227647500Y-85566250D03*
D12*
X228917500Y-88106250D03*
X218757500Y-88106250D03*
D13*
X230922500Y-85566250D03*
X217995500Y-83026250D03*
D10*
X183197500Y-63976250D03*
D11*
X185737500Y-69056250D03*
D10*
X189547500Y-66516250D03*
D12*
X190817500Y-69056250D03*
X180657500Y-69056250D03*
D13*
X192822500Y-66516250D03*
X179895500Y-63976250D03*
D10*
X202247500Y-63976250D03*
D11*
X204787500Y-69056250D03*
D10*
X208597500Y-66516250D03*
D12*
X209867500Y-69056250D03*
X199707500Y-69056250D03*
D13*
X211872500Y-66516250D03*
X198945500Y-63976250D03*
D10*
X221297500Y-63976250D03*
D11*
X223837500Y-69056250D03*
D10*
X227647500Y-66516250D03*
D12*
X228917500Y-69056250D03*
X218757500Y-69056250D03*
D13*
X230922500Y-66516250D03*
X217995500Y-63976250D03*
D16*
X245387500Y-114656250D03*
D17*
X242887500Y-114656250D03*
X240387500Y-114656250D03*
D18*
X248487500Y-107156250D03*
X237287500Y-107156250D03*
D17*
X245387500Y-100156250D03*
X240387500Y-100156250D03*
X250342400Y-93093400D03*
X254842400Y-93093400D03*
X250342400Y-99593400D03*
X254842400Y-99593400D03*
D19*
X212831250Y-98556250D03*
X216031250Y-98556250D03*
X212831250Y-93556250D03*
X216031250Y-93556250D03*
X193662500Y-98543750D03*
X196862500Y-98543750D03*
X193662500Y-93543750D03*
X196862500Y-93543750D03*
X193662500Y-79493750D03*
X196862500Y-79493750D03*
X193662500Y-74493750D03*
X196862500Y-74493750D03*
X215925000Y-74612500D03*
X212725000Y-74612500D03*
X215925000Y-79612500D03*
X212725000Y-79612500D03*
D20*
X239236250Y-92868750D03*
X241776250Y-92868750D03*
X244316250Y-92868750D03*
D21*
X246856250Y-92868750D03*
D22*
X254000000Y-118268750D03*
X254000000Y-57943750D03*
X173831250Y-57943750D03*
X173831250Y-118268750D03*
D23*
X189706250Y-112712500D03*
D24*
X182086250Y-112712500D03*
D23*
X208756250Y-112712500D03*
D24*
X201136250Y-112712500D03*
D23*
X227806250Y-112712500D03*
D24*
X220186250Y-112712500D03*
X239268000Y-97510600D03*
D23*
X246888000Y-97510600D03*
X189706250Y-93662500D03*
D24*
X182086250Y-93662500D03*
X201136250Y-93662500D03*
D23*
X208756250Y-93662500D03*
D24*
X220186250Y-93662500D03*
D23*
X227806250Y-93662500D03*
X189706250Y-74612500D03*
D24*
X182086250Y-74612500D03*
X201136250Y-74612500D03*
D23*
X208756250Y-74612500D03*
D24*
X220186250Y-74612500D03*
D23*
X227806250Y-74612500D03*
M02*
