G04 #@! TF.GenerationSoftware,KiCad,Pcbnew,(5.1.6-0-10_14)*
G04 #@! TF.CreationDate,2020-07-08T21:12:17-05:00*
G04 #@! TF.ProjectId,DoMo-pcb,446f4d6f-2d70-4636-922e-6b696361645f,rev?*
G04 #@! TF.SameCoordinates,Original*
G04 #@! TF.FileFunction,Legend,Top*
G04 #@! TF.FilePolarity,Positive*
%FSLAX46Y46*%
G04 Gerber Fmt 4.6, Leading zero omitted, Abs format (unit mm)*
G04 Created by KiCad (PCBNEW (5.1.6-0-10_14)) date 2020-07-08 21:12:17*
%MOMM*%
%LPD*%
G01*
G04 APERTURE LIST*
%ADD10C,0.300000*%
%ADD11C,0.381000*%
%ADD12C,0.150000*%
%ADD13C,0.120000*%
%ADD14C,0.254000*%
%ADD15C,3.100000*%
%ADD16C,4.087800*%
%ADD17C,1.850000*%
%ADD18R,2.650000X2.600000*%
%ADD19R,1.852600X1.852600*%
%ADD20C,1.852600*%
%ADD21R,2.100000X2.100000*%
%ADD22C,2.100000*%
%ADD23R,2.100000X3.300000*%
%ADD24R,1.100000X1.700000*%
%ADD25O,1.800000X1.800000*%
%ADD26R,1.800000X1.800000*%
%ADD27C,2.300000*%
%ADD28R,1.878000X1.878000*%
%ADD29C,1.878000*%
G04 APERTURE END LIST*
D10*
X252527678Y-104993750D02*
X254027678Y-104993750D01*
X252956250Y-105493750D01*
X254027678Y-105993750D01*
X252527678Y-105993750D01*
X252527678Y-107350892D02*
X253313392Y-107350892D01*
X253456250Y-107279464D01*
X253527678Y-107136607D01*
X253527678Y-106850892D01*
X253456250Y-106708035D01*
X252599107Y-107350892D02*
X252527678Y-107208035D01*
X252527678Y-106850892D01*
X252599107Y-106708035D01*
X252741964Y-106636607D01*
X252884821Y-106636607D01*
X253027678Y-106708035D01*
X253099107Y-106850892D01*
X253099107Y-107208035D01*
X253170535Y-107350892D01*
X253527678Y-107922321D02*
X252527678Y-108279464D01*
X253527678Y-108636607D02*
X252527678Y-108279464D01*
X252170535Y-108136607D01*
X252099107Y-108065178D01*
X252027678Y-107922321D01*
X252527678Y-110350892D02*
X254027678Y-110350892D01*
X254027678Y-110708035D01*
X253956250Y-110922321D01*
X253813392Y-111065178D01*
X253670535Y-111136607D01*
X253384821Y-111208035D01*
X253170535Y-111208035D01*
X252884821Y-111136607D01*
X252741964Y-111065178D01*
X252599107Y-110922321D01*
X252527678Y-110708035D01*
X252527678Y-110350892D01*
X252527678Y-112065178D02*
X252599107Y-111922321D01*
X252670535Y-111850892D01*
X252813392Y-111779464D01*
X253241964Y-111779464D01*
X253384821Y-111850892D01*
X253456250Y-111922321D01*
X253527678Y-112065178D01*
X253527678Y-112279464D01*
X253456250Y-112422321D01*
X253384821Y-112493750D01*
X253241964Y-112565178D01*
X252813392Y-112565178D01*
X252670535Y-112493750D01*
X252599107Y-112422321D01*
X252527678Y-112279464D01*
X252527678Y-112065178D01*
D11*
X236537500Y-58578750D02*
X233997500Y-58578750D01*
X233997500Y-56038750D02*
X233997500Y-58578750D01*
X251777500Y-56038750D02*
X233997500Y-56038750D01*
X251777500Y-58578750D02*
X251777500Y-56038750D01*
D12*
G36*
X247819068Y-65058110D02*
G01*
X247819068Y-65258110D01*
X247719068Y-65258110D01*
X247719068Y-65058110D01*
X247819068Y-65058110D01*
G37*
X247819068Y-65058110D02*
X247819068Y-65258110D01*
X247719068Y-65258110D01*
X247719068Y-65058110D01*
X247819068Y-65058110D01*
G36*
X247419068Y-64458110D02*
G01*
X247419068Y-65258110D01*
X247319068Y-65258110D01*
X247319068Y-64458110D01*
X247419068Y-64458110D01*
G37*
X247419068Y-64458110D02*
X247419068Y-65258110D01*
X247319068Y-65258110D01*
X247319068Y-64458110D01*
X247419068Y-64458110D01*
G36*
X247819068Y-64458110D02*
G01*
X247819068Y-64558110D01*
X247319068Y-64558110D01*
X247319068Y-64458110D01*
X247819068Y-64458110D01*
G37*
X247819068Y-64458110D02*
X247819068Y-64558110D01*
X247319068Y-64558110D01*
X247319068Y-64458110D01*
X247819068Y-64458110D01*
G36*
X247619068Y-64858110D02*
G01*
X247619068Y-64958110D01*
X247519068Y-64958110D01*
X247519068Y-64858110D01*
X247619068Y-64858110D01*
G37*
X247619068Y-64858110D02*
X247619068Y-64958110D01*
X247519068Y-64958110D01*
X247519068Y-64858110D01*
X247619068Y-64858110D01*
G36*
X247819068Y-64458110D02*
G01*
X247819068Y-64758110D01*
X247719068Y-64758110D01*
X247719068Y-64458110D01*
X247819068Y-64458110D01*
G37*
X247819068Y-64458110D02*
X247819068Y-64758110D01*
X247719068Y-64758110D01*
X247719068Y-64458110D01*
X247819068Y-64458110D01*
D11*
X236537500Y-61118750D02*
X233997500Y-61118750D01*
X236537500Y-58578750D02*
X236537500Y-61118750D01*
X251777500Y-89058750D02*
X251777500Y-58578750D01*
X233997500Y-89058750D02*
X251777500Y-89058750D01*
X233997500Y-58578750D02*
X233997500Y-89058750D01*
D13*
X255842400Y-98593400D02*
X255842400Y-94093400D01*
X251842400Y-99843400D02*
X253342400Y-99843400D01*
X249342400Y-94093400D02*
X249342400Y-98593400D01*
X253342400Y-92843400D02*
X251842400Y-92843400D01*
X211831250Y-99556250D02*
X211831250Y-92556250D01*
X217031250Y-99556250D02*
X217031250Y-92556250D01*
X217031250Y-92556250D02*
X216031250Y-92556250D01*
X192662500Y-99543750D02*
X192662500Y-92543750D01*
X197862500Y-99543750D02*
X197862500Y-92543750D01*
X197862500Y-92543750D02*
X196862500Y-92543750D01*
X192662500Y-80493750D02*
X192662500Y-73493750D01*
X197862500Y-80493750D02*
X197862500Y-73493750D01*
X197862500Y-73493750D02*
X196862500Y-73493750D01*
X216925000Y-73612500D02*
X215925000Y-73612500D01*
X216925000Y-80612500D02*
X216925000Y-73612500D01*
X211725000Y-80612500D02*
X211725000Y-73612500D01*
X237906250Y-91538750D02*
X237906250Y-94198750D01*
X245586250Y-91538750D02*
X237906250Y-91538750D01*
X245586250Y-94198750D02*
X237906250Y-94198750D01*
X245586250Y-91538750D02*
X245586250Y-94198750D01*
X246856250Y-91538750D02*
X248186250Y-91538750D01*
X248186250Y-91538750D02*
X248186250Y-92868750D01*
D12*
X203454166Y-91559011D02*
X203597023Y-91606630D01*
X203835119Y-91606630D01*
X203930357Y-91559011D01*
X203977976Y-91511392D01*
X204025595Y-91416154D01*
X204025595Y-91320916D01*
X203977976Y-91225678D01*
X203930357Y-91178059D01*
X203835119Y-91130440D01*
X203644642Y-91082821D01*
X203549404Y-91035202D01*
X203501785Y-90987583D01*
X203454166Y-90892345D01*
X203454166Y-90797107D01*
X203501785Y-90701869D01*
X203549404Y-90654250D01*
X203644642Y-90606630D01*
X203882738Y-90606630D01*
X204025595Y-90654250D01*
X204358928Y-90606630D02*
X204597023Y-91606630D01*
X204787500Y-90892345D01*
X204977976Y-91606630D01*
X205216071Y-90606630D01*
X206025595Y-90606630D02*
X205835119Y-90606630D01*
X205739880Y-90654250D01*
X205692261Y-90701869D01*
X205597023Y-90844726D01*
X205549404Y-91035202D01*
X205549404Y-91416154D01*
X205597023Y-91511392D01*
X205644642Y-91559011D01*
X205739880Y-91606630D01*
X205930357Y-91606630D01*
X206025595Y-91559011D01*
X206073214Y-91511392D01*
X206120833Y-91416154D01*
X206120833Y-91178059D01*
X206073214Y-91082821D01*
X206025595Y-91035202D01*
X205930357Y-90987583D01*
X205739880Y-90987583D01*
X205644642Y-91035202D01*
X205597023Y-91082821D01*
X205549404Y-91178059D01*
X248024690Y-85191607D02*
X248138976Y-85229702D01*
X248177071Y-85267797D01*
X248215166Y-85343988D01*
X248215166Y-85458273D01*
X248177071Y-85534464D01*
X248138976Y-85572559D01*
X248062785Y-85610654D01*
X247758023Y-85610654D01*
X247758023Y-84810654D01*
X248024690Y-84810654D01*
X248100880Y-84848750D01*
X248138976Y-84886845D01*
X248177071Y-84963035D01*
X248177071Y-85039226D01*
X248138976Y-85115416D01*
X248100880Y-85153511D01*
X248024690Y-85191607D01*
X247758023Y-85191607D01*
X248519928Y-84886845D02*
X248558023Y-84848750D01*
X248634214Y-84810654D01*
X248824690Y-84810654D01*
X248900880Y-84848750D01*
X248938976Y-84886845D01*
X248977071Y-84963035D01*
X248977071Y-85039226D01*
X248938976Y-85153511D01*
X248481833Y-85610654D01*
X248977071Y-85610654D01*
X248081833Y-77571607D02*
X247815166Y-77571607D01*
X247815166Y-77990654D02*
X247815166Y-77190654D01*
X248196119Y-77190654D01*
X248424690Y-77190654D02*
X248958023Y-77190654D01*
X248615166Y-77990654D01*
X248081833Y-75031607D02*
X247815166Y-75031607D01*
X247815166Y-75450654D02*
X247815166Y-74650654D01*
X248196119Y-74650654D01*
X248843738Y-74650654D02*
X248691357Y-74650654D01*
X248615166Y-74688750D01*
X248577071Y-74726845D01*
X248500880Y-74841130D01*
X248462785Y-74993511D01*
X248462785Y-75298273D01*
X248500880Y-75374464D01*
X248538976Y-75412559D01*
X248615166Y-75450654D01*
X248767547Y-75450654D01*
X248843738Y-75412559D01*
X248881833Y-75374464D01*
X248919928Y-75298273D01*
X248919928Y-75107797D01*
X248881833Y-75031607D01*
X248843738Y-74993511D01*
X248767547Y-74955416D01*
X248615166Y-74955416D01*
X248538976Y-74993511D01*
X248500880Y-75031607D01*
X248462785Y-75107797D01*
X248081833Y-72491607D02*
X247815166Y-72491607D01*
X247815166Y-72910654D02*
X247815166Y-72110654D01*
X248196119Y-72110654D01*
X248881833Y-72110654D02*
X248500880Y-72110654D01*
X248462785Y-72491607D01*
X248500880Y-72453511D01*
X248577071Y-72415416D01*
X248767547Y-72415416D01*
X248843738Y-72453511D01*
X248881833Y-72491607D01*
X248919928Y-72567797D01*
X248919928Y-72758273D01*
X248881833Y-72834464D01*
X248843738Y-72872559D01*
X248767547Y-72910654D01*
X248577071Y-72910654D01*
X248500880Y-72872559D01*
X248462785Y-72834464D01*
X247796119Y-60210654D02*
X247529452Y-59829702D01*
X247338976Y-60210654D02*
X247338976Y-59410654D01*
X247643738Y-59410654D01*
X247719928Y-59448750D01*
X247758023Y-59486845D01*
X247796119Y-59563035D01*
X247796119Y-59677321D01*
X247758023Y-59753511D01*
X247719928Y-59791607D01*
X247643738Y-59829702D01*
X247338976Y-59829702D01*
X248100880Y-59982083D02*
X248481833Y-59982083D01*
X248024690Y-60210654D02*
X248291357Y-59410654D01*
X248558023Y-60210654D01*
X248748500Y-59410654D02*
X248938976Y-60210654D01*
X249091357Y-59639226D01*
X249243738Y-60210654D01*
X249434214Y-59410654D01*
X247738976Y-61988750D02*
X247662785Y-61950654D01*
X247548500Y-61950654D01*
X247434214Y-61988750D01*
X247358023Y-62064940D01*
X247319928Y-62141130D01*
X247281833Y-62293511D01*
X247281833Y-62407797D01*
X247319928Y-62560178D01*
X247358023Y-62636369D01*
X247434214Y-62712559D01*
X247548500Y-62750654D01*
X247624690Y-62750654D01*
X247738976Y-62712559D01*
X247777071Y-62674464D01*
X247777071Y-62407797D01*
X247624690Y-62407797D01*
X248119928Y-62750654D02*
X248119928Y-61950654D01*
X248577071Y-62750654D01*
X248577071Y-61950654D01*
X248958023Y-62750654D02*
X248958023Y-61950654D01*
X249148500Y-61950654D01*
X249262785Y-61988750D01*
X249338976Y-62064940D01*
X249377071Y-62141130D01*
X249415166Y-62293511D01*
X249415166Y-62407797D01*
X249377071Y-62560178D01*
X249338976Y-62636369D01*
X249262785Y-62712559D01*
X249148500Y-62750654D01*
X248958023Y-62750654D01*
X248087286Y-65222559D02*
X248201572Y-65260654D01*
X248392048Y-65260654D01*
X248468239Y-65222559D01*
X248506334Y-65184464D01*
X248544429Y-65108273D01*
X248544429Y-65032083D01*
X248506334Y-64955892D01*
X248468239Y-64917797D01*
X248392048Y-64879702D01*
X248239667Y-64841607D01*
X248163477Y-64803511D01*
X248125381Y-64765416D01*
X248087286Y-64689226D01*
X248087286Y-64613035D01*
X248125381Y-64536845D01*
X248163477Y-64498750D01*
X248239667Y-64460654D01*
X248430143Y-64460654D01*
X248544429Y-64498750D01*
X248773000Y-64460654D02*
X249230143Y-64460654D01*
X249001572Y-65260654D02*
X249001572Y-64460654D01*
X247281833Y-67030654D02*
X247548500Y-67830654D01*
X247815166Y-67030654D01*
X248538976Y-67754464D02*
X248500880Y-67792559D01*
X248386595Y-67830654D01*
X248310404Y-67830654D01*
X248196119Y-67792559D01*
X248119928Y-67716369D01*
X248081833Y-67640178D01*
X248043738Y-67487797D01*
X248043738Y-67373511D01*
X248081833Y-67221130D01*
X248119928Y-67144940D01*
X248196119Y-67068750D01*
X248310404Y-67030654D01*
X248386595Y-67030654D01*
X248500880Y-67068750D01*
X248538976Y-67106845D01*
X249338976Y-67754464D02*
X249300880Y-67792559D01*
X249186595Y-67830654D01*
X249110404Y-67830654D01*
X248996119Y-67792559D01*
X248919928Y-67716369D01*
X248881833Y-67640178D01*
X248843738Y-67487797D01*
X248843738Y-67373511D01*
X248881833Y-67221130D01*
X248919928Y-67144940D01*
X248996119Y-67068750D01*
X249110404Y-67030654D01*
X249186595Y-67030654D01*
X249300880Y-67068750D01*
X249338976Y-67106845D01*
X248081833Y-69951607D02*
X247815166Y-69951607D01*
X247815166Y-70370654D02*
X247815166Y-69570654D01*
X248196119Y-69570654D01*
X248843738Y-69837321D02*
X248843738Y-70370654D01*
X248653261Y-69532559D02*
X248462785Y-70103988D01*
X248958023Y-70103988D01*
X248024690Y-80111607D02*
X248138976Y-80149702D01*
X248177071Y-80187797D01*
X248215166Y-80263988D01*
X248215166Y-80378273D01*
X248177071Y-80454464D01*
X248138976Y-80492559D01*
X248062785Y-80530654D01*
X247758023Y-80530654D01*
X247758023Y-79730654D01*
X248024690Y-79730654D01*
X248100880Y-79768750D01*
X248138976Y-79806845D01*
X248177071Y-79883035D01*
X248177071Y-79959226D01*
X248138976Y-80035416D01*
X248100880Y-80073511D01*
X248024690Y-80111607D01*
X247758023Y-80111607D01*
X248977071Y-80530654D02*
X248519928Y-80530654D01*
X248748500Y-80530654D02*
X248748500Y-79730654D01*
X248672309Y-79844940D01*
X248596119Y-79921130D01*
X248519928Y-79959226D01*
X248024690Y-82651607D02*
X248138976Y-82689702D01*
X248177071Y-82727797D01*
X248215166Y-82803988D01*
X248215166Y-82918273D01*
X248177071Y-82994464D01*
X248138976Y-83032559D01*
X248062785Y-83070654D01*
X247758023Y-83070654D01*
X247758023Y-82270654D01*
X248024690Y-82270654D01*
X248100880Y-82308750D01*
X248138976Y-82346845D01*
X248177071Y-82423035D01*
X248177071Y-82499226D01*
X248138976Y-82575416D01*
X248100880Y-82613511D01*
X248024690Y-82651607D01*
X247758023Y-82651607D01*
X248481833Y-82270654D02*
X248977071Y-82270654D01*
X248710404Y-82575416D01*
X248824690Y-82575416D01*
X248900880Y-82613511D01*
X248938976Y-82651607D01*
X248977071Y-82727797D01*
X248977071Y-82918273D01*
X248938976Y-82994464D01*
X248900880Y-83032559D01*
X248824690Y-83070654D01*
X248596119Y-83070654D01*
X248519928Y-83032559D01*
X248481833Y-82994464D01*
X248024690Y-87731607D02*
X248138976Y-87769702D01*
X248177071Y-87807797D01*
X248215166Y-87883988D01*
X248215166Y-87998273D01*
X248177071Y-88074464D01*
X248138976Y-88112559D01*
X248062785Y-88150654D01*
X247758023Y-88150654D01*
X247758023Y-87350654D01*
X248024690Y-87350654D01*
X248100880Y-87388750D01*
X248138976Y-87426845D01*
X248177071Y-87503035D01*
X248177071Y-87579226D01*
X248138976Y-87655416D01*
X248100880Y-87693511D01*
X248024690Y-87731607D01*
X247758023Y-87731607D01*
X248900880Y-87350654D02*
X248748500Y-87350654D01*
X248672309Y-87388750D01*
X248634214Y-87426845D01*
X248558023Y-87541130D01*
X248519928Y-87693511D01*
X248519928Y-87998273D01*
X248558023Y-88074464D01*
X248596119Y-88112559D01*
X248672309Y-88150654D01*
X248824690Y-88150654D01*
X248900880Y-88112559D01*
X248938976Y-88074464D01*
X248977071Y-87998273D01*
X248977071Y-87807797D01*
X248938976Y-87731607D01*
X248900880Y-87693511D01*
X248824690Y-87655416D01*
X248672309Y-87655416D01*
X248596119Y-87693511D01*
X248558023Y-87731607D01*
X248519928Y-87807797D01*
X237102690Y-87731607D02*
X237216976Y-87769702D01*
X237255071Y-87807797D01*
X237293166Y-87883988D01*
X237293166Y-87998273D01*
X237255071Y-88074464D01*
X237216976Y-88112559D01*
X237140785Y-88150654D01*
X236836023Y-88150654D01*
X236836023Y-87350654D01*
X237102690Y-87350654D01*
X237178880Y-87388750D01*
X237216976Y-87426845D01*
X237255071Y-87503035D01*
X237255071Y-87579226D01*
X237216976Y-87655416D01*
X237178880Y-87693511D01*
X237102690Y-87731607D01*
X236836023Y-87731607D01*
X238016976Y-87350654D02*
X237636023Y-87350654D01*
X237597928Y-87731607D01*
X237636023Y-87693511D01*
X237712214Y-87655416D01*
X237902690Y-87655416D01*
X237978880Y-87693511D01*
X238016976Y-87731607D01*
X238055071Y-87807797D01*
X238055071Y-87998273D01*
X238016976Y-88074464D01*
X237978880Y-88112559D01*
X237902690Y-88150654D01*
X237712214Y-88150654D01*
X237636023Y-88112559D01*
X237597928Y-88074464D01*
X237102690Y-85191607D02*
X237216976Y-85229702D01*
X237255071Y-85267797D01*
X237293166Y-85343988D01*
X237293166Y-85458273D01*
X237255071Y-85534464D01*
X237216976Y-85572559D01*
X237140785Y-85610654D01*
X236836023Y-85610654D01*
X236836023Y-84810654D01*
X237102690Y-84810654D01*
X237178880Y-84848750D01*
X237216976Y-84886845D01*
X237255071Y-84963035D01*
X237255071Y-85039226D01*
X237216976Y-85115416D01*
X237178880Y-85153511D01*
X237102690Y-85191607D01*
X236836023Y-85191607D01*
X237978880Y-85077321D02*
X237978880Y-85610654D01*
X237788404Y-84772559D02*
X237597928Y-85343988D01*
X238093166Y-85343988D01*
X236874119Y-82651607D02*
X237140785Y-82651607D01*
X237255071Y-83070654D02*
X236874119Y-83070654D01*
X236874119Y-82270654D01*
X237255071Y-82270654D01*
X237940785Y-82270654D02*
X237788404Y-82270654D01*
X237712214Y-82308750D01*
X237674119Y-82346845D01*
X237597928Y-82461130D01*
X237559833Y-82613511D01*
X237559833Y-82918273D01*
X237597928Y-82994464D01*
X237636023Y-83032559D01*
X237712214Y-83070654D01*
X237864595Y-83070654D01*
X237940785Y-83032559D01*
X237978880Y-82994464D01*
X238016976Y-82918273D01*
X238016976Y-82727797D01*
X237978880Y-82651607D01*
X237940785Y-82613511D01*
X237864595Y-82575416D01*
X237712214Y-82575416D01*
X237636023Y-82613511D01*
X237597928Y-82651607D01*
X237559833Y-82727797D01*
X236836023Y-80530654D02*
X236836023Y-79730654D01*
X237026500Y-79730654D01*
X237140785Y-79768750D01*
X237216976Y-79844940D01*
X237255071Y-79921130D01*
X237293166Y-80073511D01*
X237293166Y-80187797D01*
X237255071Y-80340178D01*
X237216976Y-80416369D01*
X237140785Y-80492559D01*
X237026500Y-80530654D01*
X236836023Y-80530654D01*
X237559833Y-79730654D02*
X238093166Y-79730654D01*
X237750309Y-80530654D01*
X237293166Y-77914464D02*
X237255071Y-77952559D01*
X237140785Y-77990654D01*
X237064595Y-77990654D01*
X236950309Y-77952559D01*
X236874119Y-77876369D01*
X236836023Y-77800178D01*
X236797928Y-77647797D01*
X236797928Y-77533511D01*
X236836023Y-77381130D01*
X236874119Y-77304940D01*
X236950309Y-77228750D01*
X237064595Y-77190654D01*
X237140785Y-77190654D01*
X237255071Y-77228750D01*
X237293166Y-77266845D01*
X237978880Y-77190654D02*
X237826500Y-77190654D01*
X237750309Y-77228750D01*
X237712214Y-77266845D01*
X237636023Y-77381130D01*
X237597928Y-77533511D01*
X237597928Y-77838273D01*
X237636023Y-77914464D01*
X237674119Y-77952559D01*
X237750309Y-77990654D01*
X237902690Y-77990654D01*
X237978880Y-77952559D01*
X238016976Y-77914464D01*
X238055071Y-77838273D01*
X238055071Y-77647797D01*
X238016976Y-77571607D01*
X237978880Y-77533511D01*
X237902690Y-77495416D01*
X237750309Y-77495416D01*
X237674119Y-77533511D01*
X237636023Y-77571607D01*
X237597928Y-77647797D01*
X236836023Y-75450654D02*
X236836023Y-74650654D01*
X237026500Y-74650654D01*
X237140785Y-74688750D01*
X237216976Y-74764940D01*
X237255071Y-74841130D01*
X237293166Y-74993511D01*
X237293166Y-75107797D01*
X237255071Y-75260178D01*
X237216976Y-75336369D01*
X237140785Y-75412559D01*
X237026500Y-75450654D01*
X236836023Y-75450654D01*
X237978880Y-74917321D02*
X237978880Y-75450654D01*
X237788404Y-74612559D02*
X237597928Y-75183988D01*
X238093166Y-75183988D01*
X236816976Y-64528750D02*
X236740785Y-64490654D01*
X236626500Y-64490654D01*
X236512214Y-64528750D01*
X236436023Y-64604940D01*
X236397928Y-64681130D01*
X236359833Y-64833511D01*
X236359833Y-64947797D01*
X236397928Y-65100178D01*
X236436023Y-65176369D01*
X236512214Y-65252559D01*
X236626500Y-65290654D01*
X236702690Y-65290654D01*
X236816976Y-65252559D01*
X236855071Y-65214464D01*
X236855071Y-64947797D01*
X236702690Y-64947797D01*
X237197928Y-65290654D02*
X237197928Y-64490654D01*
X237655071Y-65290654D01*
X237655071Y-64490654D01*
X238036023Y-65290654D02*
X238036023Y-64490654D01*
X238226500Y-64490654D01*
X238340785Y-64528750D01*
X238416976Y-64604940D01*
X238455071Y-64681130D01*
X238493166Y-64833511D01*
X238493166Y-64947797D01*
X238455071Y-65100178D01*
X238416976Y-65176369D01*
X238340785Y-65252559D01*
X238226500Y-65290654D01*
X238036023Y-65290654D01*
X236816976Y-67068750D02*
X236740785Y-67030654D01*
X236626500Y-67030654D01*
X236512214Y-67068750D01*
X236436023Y-67144940D01*
X236397928Y-67221130D01*
X236359833Y-67373511D01*
X236359833Y-67487797D01*
X236397928Y-67640178D01*
X236436023Y-67716369D01*
X236512214Y-67792559D01*
X236626500Y-67830654D01*
X236702690Y-67830654D01*
X236816976Y-67792559D01*
X236855071Y-67754464D01*
X236855071Y-67487797D01*
X236702690Y-67487797D01*
X237197928Y-67830654D02*
X237197928Y-67030654D01*
X237655071Y-67830654D01*
X237655071Y-67030654D01*
X238036023Y-67830654D02*
X238036023Y-67030654D01*
X238226500Y-67030654D01*
X238340785Y-67068750D01*
X238416976Y-67144940D01*
X238455071Y-67221130D01*
X238493166Y-67373511D01*
X238493166Y-67487797D01*
X238455071Y-67640178D01*
X238416976Y-67716369D01*
X238340785Y-67792559D01*
X238226500Y-67830654D01*
X238036023Y-67830654D01*
X236836023Y-70370654D02*
X236836023Y-69570654D01*
X237026500Y-69570654D01*
X237140785Y-69608750D01*
X237216976Y-69684940D01*
X237255071Y-69761130D01*
X237293166Y-69913511D01*
X237293166Y-70027797D01*
X237255071Y-70180178D01*
X237216976Y-70256369D01*
X237140785Y-70332559D01*
X237026500Y-70370654D01*
X236836023Y-70370654D01*
X238055071Y-70370654D02*
X237597928Y-70370654D01*
X237826500Y-70370654D02*
X237826500Y-69570654D01*
X237750309Y-69684940D01*
X237674119Y-69761130D01*
X237597928Y-69799226D01*
X236836023Y-72910654D02*
X236836023Y-72110654D01*
X237026500Y-72110654D01*
X237140785Y-72148750D01*
X237216976Y-72224940D01*
X237255071Y-72301130D01*
X237293166Y-72453511D01*
X237293166Y-72567797D01*
X237255071Y-72720178D01*
X237216976Y-72796369D01*
X237140785Y-72872559D01*
X237026500Y-72910654D01*
X236836023Y-72910654D01*
X237788404Y-72110654D02*
X237864595Y-72110654D01*
X237940785Y-72148750D01*
X237978880Y-72186845D01*
X238016976Y-72263035D01*
X238055071Y-72415416D01*
X238055071Y-72605892D01*
X238016976Y-72758273D01*
X237978880Y-72834464D01*
X237940785Y-72872559D01*
X237864595Y-72910654D01*
X237788404Y-72910654D01*
X237712214Y-72872559D01*
X237674119Y-72834464D01*
X237636023Y-72758273D01*
X237597928Y-72605892D01*
X237597928Y-72415416D01*
X237636023Y-72263035D01*
X237674119Y-72186845D01*
X237712214Y-72148750D01*
X237788404Y-72110654D01*
X236836023Y-62750654D02*
X236836023Y-61950654D01*
X237026500Y-61950654D01*
X237140785Y-61988750D01*
X237216976Y-62064940D01*
X237255071Y-62141130D01*
X237293166Y-62293511D01*
X237293166Y-62407797D01*
X237255071Y-62560178D01*
X237216976Y-62636369D01*
X237140785Y-62712559D01*
X237026500Y-62750654D01*
X236836023Y-62750654D01*
X237597928Y-62026845D02*
X237636023Y-61988750D01*
X237712214Y-61950654D01*
X237902690Y-61950654D01*
X237978880Y-61988750D01*
X238016976Y-62026845D01*
X238055071Y-62103035D01*
X238055071Y-62179226D01*
X238016976Y-62293511D01*
X237559833Y-62750654D01*
X238055071Y-62750654D01*
X237125151Y-59410654D02*
X237582294Y-59410654D01*
X237353723Y-60210654D02*
X237353723Y-59410654D01*
X237772770Y-59410654D02*
X238306104Y-60210654D01*
X238306104Y-59410654D02*
X237772770Y-60210654D01*
X238763247Y-59410654D02*
X238839437Y-59410654D01*
X238915628Y-59448750D01*
X238953723Y-59486845D01*
X238991818Y-59563035D01*
X239029913Y-59715416D01*
X239029913Y-59905892D01*
X238991818Y-60058273D01*
X238953723Y-60134464D01*
X238915628Y-60172559D01*
X238839437Y-60210654D01*
X238763247Y-60210654D01*
X238687056Y-60172559D01*
X238648961Y-60134464D01*
X238610866Y-60058273D01*
X238572770Y-59905892D01*
X238572770Y-59715416D01*
X238610866Y-59563035D01*
X238648961Y-59486845D01*
X238687056Y-59448750D01*
X238763247Y-59410654D01*
X239944199Y-59372559D02*
X239258485Y-60401130D01*
X240210866Y-60210654D02*
X240210866Y-59410654D01*
X240401342Y-59410654D01*
X240515628Y-59448750D01*
X240591818Y-59524940D01*
X240629913Y-59601130D01*
X240668008Y-59753511D01*
X240668008Y-59867797D01*
X240629913Y-60020178D01*
X240591818Y-60096369D01*
X240515628Y-60172559D01*
X240401342Y-60210654D01*
X240210866Y-60210654D01*
X240934675Y-59410654D02*
X241429913Y-59410654D01*
X241163247Y-59715416D01*
X241277532Y-59715416D01*
X241353723Y-59753511D01*
X241391818Y-59791607D01*
X241429913Y-59867797D01*
X241429913Y-60058273D01*
X241391818Y-60134464D01*
X241353723Y-60172559D01*
X241277532Y-60210654D01*
X241048961Y-60210654D01*
X240972770Y-60172559D01*
X240934675Y-60134464D01*
X183927976Y-110609011D02*
X184070833Y-110656630D01*
X184308928Y-110656630D01*
X184404166Y-110609011D01*
X184451785Y-110561392D01*
X184499404Y-110466154D01*
X184499404Y-110370916D01*
X184451785Y-110275678D01*
X184404166Y-110228059D01*
X184308928Y-110180440D01*
X184118452Y-110132821D01*
X184023214Y-110085202D01*
X183975595Y-110037583D01*
X183927976Y-109942345D01*
X183927976Y-109847107D01*
X183975595Y-109751869D01*
X184023214Y-109704250D01*
X184118452Y-109656630D01*
X184356547Y-109656630D01*
X184499404Y-109704250D01*
X184832738Y-109656630D02*
X185070833Y-110656630D01*
X185261309Y-109942345D01*
X185451785Y-110656630D01*
X185689880Y-109656630D01*
X186594642Y-110656630D02*
X186023214Y-110656630D01*
X186308928Y-110656630D02*
X186308928Y-109656630D01*
X186213690Y-109799488D01*
X186118452Y-109894726D01*
X186023214Y-109942345D01*
X187213690Y-109656630D02*
X187308928Y-109656630D01*
X187404166Y-109704250D01*
X187451785Y-109751869D01*
X187499404Y-109847107D01*
X187547023Y-110037583D01*
X187547023Y-110275678D01*
X187499404Y-110466154D01*
X187451785Y-110561392D01*
X187404166Y-110609011D01*
X187308928Y-110656630D01*
X187213690Y-110656630D01*
X187118452Y-110609011D01*
X187070833Y-110561392D01*
X187023214Y-110466154D01*
X186975595Y-110275678D01*
X186975595Y-110037583D01*
X187023214Y-109847107D01*
X187070833Y-109751869D01*
X187118452Y-109704250D01*
X187213690Y-109656630D01*
X203454166Y-110609011D02*
X203597023Y-110656630D01*
X203835119Y-110656630D01*
X203930357Y-110609011D01*
X203977976Y-110561392D01*
X204025595Y-110466154D01*
X204025595Y-110370916D01*
X203977976Y-110275678D01*
X203930357Y-110228059D01*
X203835119Y-110180440D01*
X203644642Y-110132821D01*
X203549404Y-110085202D01*
X203501785Y-110037583D01*
X203454166Y-109942345D01*
X203454166Y-109847107D01*
X203501785Y-109751869D01*
X203549404Y-109704250D01*
X203644642Y-109656630D01*
X203882738Y-109656630D01*
X204025595Y-109704250D01*
X204358928Y-109656630D02*
X204597023Y-110656630D01*
X204787500Y-109942345D01*
X204977976Y-110656630D01*
X205216071Y-109656630D01*
X205644642Y-110656630D02*
X205835119Y-110656630D01*
X205930357Y-110609011D01*
X205977976Y-110561392D01*
X206073214Y-110418535D01*
X206120833Y-110228059D01*
X206120833Y-109847107D01*
X206073214Y-109751869D01*
X206025595Y-109704250D01*
X205930357Y-109656630D01*
X205739880Y-109656630D01*
X205644642Y-109704250D01*
X205597023Y-109751869D01*
X205549404Y-109847107D01*
X205549404Y-110085202D01*
X205597023Y-110180440D01*
X205644642Y-110228059D01*
X205739880Y-110275678D01*
X205930357Y-110275678D01*
X206025595Y-110228059D01*
X206073214Y-110180440D01*
X206120833Y-110085202D01*
X222504166Y-110609011D02*
X222647023Y-110656630D01*
X222885119Y-110656630D01*
X222980357Y-110609011D01*
X223027976Y-110561392D01*
X223075595Y-110466154D01*
X223075595Y-110370916D01*
X223027976Y-110275678D01*
X222980357Y-110228059D01*
X222885119Y-110180440D01*
X222694642Y-110132821D01*
X222599404Y-110085202D01*
X222551785Y-110037583D01*
X222504166Y-109942345D01*
X222504166Y-109847107D01*
X222551785Y-109751869D01*
X222599404Y-109704250D01*
X222694642Y-109656630D01*
X222932738Y-109656630D01*
X223075595Y-109704250D01*
X223408928Y-109656630D02*
X223647023Y-110656630D01*
X223837500Y-109942345D01*
X224027976Y-110656630D01*
X224266071Y-109656630D01*
X224789880Y-110085202D02*
X224694642Y-110037583D01*
X224647023Y-109989964D01*
X224599404Y-109894726D01*
X224599404Y-109847107D01*
X224647023Y-109751869D01*
X224694642Y-109704250D01*
X224789880Y-109656630D01*
X224980357Y-109656630D01*
X225075595Y-109704250D01*
X225123214Y-109751869D01*
X225170833Y-109847107D01*
X225170833Y-109894726D01*
X225123214Y-109989964D01*
X225075595Y-110037583D01*
X224980357Y-110085202D01*
X224789880Y-110085202D01*
X224694642Y-110132821D01*
X224647023Y-110180440D01*
X224599404Y-110275678D01*
X224599404Y-110466154D01*
X224647023Y-110561392D01*
X224694642Y-110609011D01*
X224789880Y-110656630D01*
X224980357Y-110656630D01*
X225075595Y-110609011D01*
X225123214Y-110561392D01*
X225170833Y-110466154D01*
X225170833Y-110275678D01*
X225123214Y-110180440D01*
X225075595Y-110132821D01*
X224980357Y-110085202D01*
X184404166Y-91559011D02*
X184547023Y-91606630D01*
X184785119Y-91606630D01*
X184880357Y-91559011D01*
X184927976Y-91511392D01*
X184975595Y-91416154D01*
X184975595Y-91320916D01*
X184927976Y-91225678D01*
X184880357Y-91178059D01*
X184785119Y-91130440D01*
X184594642Y-91082821D01*
X184499404Y-91035202D01*
X184451785Y-90987583D01*
X184404166Y-90892345D01*
X184404166Y-90797107D01*
X184451785Y-90701869D01*
X184499404Y-90654250D01*
X184594642Y-90606630D01*
X184832738Y-90606630D01*
X184975595Y-90654250D01*
X185308928Y-90606630D02*
X185547023Y-91606630D01*
X185737500Y-90892345D01*
X185927976Y-91606630D01*
X186166071Y-90606630D01*
X186451785Y-90606630D02*
X187118452Y-90606630D01*
X186689880Y-91606630D01*
X222504166Y-91559011D02*
X222647023Y-91606630D01*
X222885119Y-91606630D01*
X222980357Y-91559011D01*
X223027976Y-91511392D01*
X223075595Y-91416154D01*
X223075595Y-91320916D01*
X223027976Y-91225678D01*
X222980357Y-91178059D01*
X222885119Y-91130440D01*
X222694642Y-91082821D01*
X222599404Y-91035202D01*
X222551785Y-90987583D01*
X222504166Y-90892345D01*
X222504166Y-90797107D01*
X222551785Y-90701869D01*
X222599404Y-90654250D01*
X222694642Y-90606630D01*
X222932738Y-90606630D01*
X223075595Y-90654250D01*
X223408928Y-90606630D02*
X223647023Y-91606630D01*
X223837500Y-90892345D01*
X224027976Y-91606630D01*
X224266071Y-90606630D01*
X225123214Y-90606630D02*
X224647023Y-90606630D01*
X224599404Y-91082821D01*
X224647023Y-91035202D01*
X224742261Y-90987583D01*
X224980357Y-90987583D01*
X225075595Y-91035202D01*
X225123214Y-91082821D01*
X225170833Y-91178059D01*
X225170833Y-91416154D01*
X225123214Y-91511392D01*
X225075595Y-91559011D01*
X224980357Y-91606630D01*
X224742261Y-91606630D01*
X224647023Y-91559011D01*
X224599404Y-91511392D01*
X184404166Y-72509011D02*
X184547023Y-72556630D01*
X184785119Y-72556630D01*
X184880357Y-72509011D01*
X184927976Y-72461392D01*
X184975595Y-72366154D01*
X184975595Y-72270916D01*
X184927976Y-72175678D01*
X184880357Y-72128059D01*
X184785119Y-72080440D01*
X184594642Y-72032821D01*
X184499404Y-71985202D01*
X184451785Y-71937583D01*
X184404166Y-71842345D01*
X184404166Y-71747107D01*
X184451785Y-71651869D01*
X184499404Y-71604250D01*
X184594642Y-71556630D01*
X184832738Y-71556630D01*
X184975595Y-71604250D01*
X185308928Y-71556630D02*
X185547023Y-72556630D01*
X185737500Y-71842345D01*
X185927976Y-72556630D01*
X186166071Y-71556630D01*
X186975595Y-71889964D02*
X186975595Y-72556630D01*
X186737500Y-71509011D02*
X186499404Y-72223297D01*
X187118452Y-72223297D01*
X203454166Y-72509011D02*
X203597023Y-72556630D01*
X203835119Y-72556630D01*
X203930357Y-72509011D01*
X203977976Y-72461392D01*
X204025595Y-72366154D01*
X204025595Y-72270916D01*
X203977976Y-72175678D01*
X203930357Y-72128059D01*
X203835119Y-72080440D01*
X203644642Y-72032821D01*
X203549404Y-71985202D01*
X203501785Y-71937583D01*
X203454166Y-71842345D01*
X203454166Y-71747107D01*
X203501785Y-71651869D01*
X203549404Y-71604250D01*
X203644642Y-71556630D01*
X203882738Y-71556630D01*
X204025595Y-71604250D01*
X204358928Y-71556630D02*
X204597023Y-72556630D01*
X204787500Y-71842345D01*
X204977976Y-72556630D01*
X205216071Y-71556630D01*
X205501785Y-71556630D02*
X206120833Y-71556630D01*
X205787500Y-71937583D01*
X205930357Y-71937583D01*
X206025595Y-71985202D01*
X206073214Y-72032821D01*
X206120833Y-72128059D01*
X206120833Y-72366154D01*
X206073214Y-72461392D01*
X206025595Y-72509011D01*
X205930357Y-72556630D01*
X205644642Y-72556630D01*
X205549404Y-72509011D01*
X205501785Y-72461392D01*
X222504166Y-72509011D02*
X222647023Y-72556630D01*
X222885119Y-72556630D01*
X222980357Y-72509011D01*
X223027976Y-72461392D01*
X223075595Y-72366154D01*
X223075595Y-72270916D01*
X223027976Y-72175678D01*
X222980357Y-72128059D01*
X222885119Y-72080440D01*
X222694642Y-72032821D01*
X222599404Y-71985202D01*
X222551785Y-71937583D01*
X222504166Y-71842345D01*
X222504166Y-71747107D01*
X222551785Y-71651869D01*
X222599404Y-71604250D01*
X222694642Y-71556630D01*
X222932738Y-71556630D01*
X223075595Y-71604250D01*
X223408928Y-71556630D02*
X223647023Y-72556630D01*
X223837500Y-71842345D01*
X224027976Y-72556630D01*
X224266071Y-71556630D01*
X224599404Y-71651869D02*
X224647023Y-71604250D01*
X224742261Y-71556630D01*
X224980357Y-71556630D01*
X225075595Y-71604250D01*
X225123214Y-71651869D01*
X225170833Y-71747107D01*
X225170833Y-71842345D01*
X225123214Y-71985202D01*
X224551785Y-72556630D01*
X225170833Y-72556630D01*
X248747161Y-97676733D02*
X248794780Y-97533876D01*
X248794780Y-97295780D01*
X248747161Y-97200542D01*
X248699542Y-97152923D01*
X248604304Y-97105304D01*
X248509066Y-97105304D01*
X248413828Y-97152923D01*
X248366209Y-97200542D01*
X248318590Y-97295780D01*
X248270971Y-97486257D01*
X248223352Y-97581495D01*
X248175733Y-97629114D01*
X248080495Y-97676733D01*
X247985257Y-97676733D01*
X247890019Y-97629114D01*
X247842400Y-97581495D01*
X247794780Y-97486257D01*
X247794780Y-97248161D01*
X247842400Y-97105304D01*
X247794780Y-96771971D02*
X248794780Y-96533876D01*
X248080495Y-96343400D01*
X248794780Y-96152923D01*
X247794780Y-95914828D01*
X247794780Y-95343400D02*
X247794780Y-95248161D01*
X247842400Y-95152923D01*
X247890019Y-95105304D01*
X247985257Y-95057685D01*
X248175733Y-95010066D01*
X248413828Y-95010066D01*
X248604304Y-95057685D01*
X248699542Y-95105304D01*
X248747161Y-95152923D01*
X248794780Y-95248161D01*
X248794780Y-95343400D01*
X248747161Y-95438638D01*
X248699542Y-95486257D01*
X248604304Y-95533876D01*
X248413828Y-95581495D01*
X248175733Y-95581495D01*
X247985257Y-95533876D01*
X247890019Y-95486257D01*
X247842400Y-95438638D01*
X247794780Y-95343400D01*
X211383630Y-97175297D02*
X211383630Y-97651488D01*
X210383630Y-97651488D01*
X210859821Y-96841964D02*
X210859821Y-96508630D01*
X211383630Y-96365773D02*
X211383630Y-96841964D01*
X210383630Y-96841964D01*
X210383630Y-96365773D01*
X211383630Y-95937202D02*
X210383630Y-95937202D01*
X210383630Y-95699107D01*
X210431250Y-95556250D01*
X210526488Y-95461011D01*
X210621726Y-95413392D01*
X210812202Y-95365773D01*
X210955059Y-95365773D01*
X211145535Y-95413392D01*
X211240773Y-95461011D01*
X211336011Y-95556250D01*
X211383630Y-95699107D01*
X211383630Y-95937202D01*
X210383630Y-95032440D02*
X210383630Y-94413392D01*
X210764583Y-94746726D01*
X210764583Y-94603869D01*
X210812202Y-94508630D01*
X210859821Y-94461011D01*
X210955059Y-94413392D01*
X211193154Y-94413392D01*
X211288392Y-94461011D01*
X211336011Y-94508630D01*
X211383630Y-94603869D01*
X211383630Y-94889583D01*
X211336011Y-94984821D01*
X211288392Y-95032440D01*
X192214880Y-97162797D02*
X192214880Y-97638988D01*
X191214880Y-97638988D01*
X191691071Y-96829464D02*
X191691071Y-96496130D01*
X192214880Y-96353273D02*
X192214880Y-96829464D01*
X191214880Y-96829464D01*
X191214880Y-96353273D01*
X192214880Y-95924702D02*
X191214880Y-95924702D01*
X191214880Y-95686607D01*
X191262500Y-95543750D01*
X191357738Y-95448511D01*
X191452976Y-95400892D01*
X191643452Y-95353273D01*
X191786309Y-95353273D01*
X191976785Y-95400892D01*
X192072023Y-95448511D01*
X192167261Y-95543750D01*
X192214880Y-95686607D01*
X192214880Y-95924702D01*
X191310119Y-94972321D02*
X191262500Y-94924702D01*
X191214880Y-94829464D01*
X191214880Y-94591369D01*
X191262500Y-94496130D01*
X191310119Y-94448511D01*
X191405357Y-94400892D01*
X191500595Y-94400892D01*
X191643452Y-94448511D01*
X192214880Y-95019940D01*
X192214880Y-94400892D01*
X192214880Y-78112797D02*
X192214880Y-78588988D01*
X191214880Y-78588988D01*
X191691071Y-77779464D02*
X191691071Y-77446130D01*
X192214880Y-77303273D02*
X192214880Y-77779464D01*
X191214880Y-77779464D01*
X191214880Y-77303273D01*
X192214880Y-76874702D02*
X191214880Y-76874702D01*
X191214880Y-76636607D01*
X191262500Y-76493750D01*
X191357738Y-76398511D01*
X191452976Y-76350892D01*
X191643452Y-76303273D01*
X191786309Y-76303273D01*
X191976785Y-76350892D01*
X192072023Y-76398511D01*
X192167261Y-76493750D01*
X192214880Y-76636607D01*
X192214880Y-76874702D01*
X192214880Y-75350892D02*
X192214880Y-75922321D01*
X192214880Y-75636607D02*
X191214880Y-75636607D01*
X191357738Y-75731845D01*
X191452976Y-75827083D01*
X191500595Y-75922321D01*
X211277380Y-78231547D02*
X211277380Y-78707738D01*
X210277380Y-78707738D01*
X210753571Y-77898214D02*
X210753571Y-77564880D01*
X211277380Y-77422023D02*
X211277380Y-77898214D01*
X210277380Y-77898214D01*
X210277380Y-77422023D01*
X211277380Y-76993452D02*
X210277380Y-76993452D01*
X210277380Y-76755357D01*
X210325000Y-76612500D01*
X210420238Y-76517261D01*
X210515476Y-76469642D01*
X210705952Y-76422023D01*
X210848809Y-76422023D01*
X211039285Y-76469642D01*
X211134523Y-76517261D01*
X211229761Y-76612500D01*
X211277380Y-76755357D01*
X211277380Y-76993452D01*
X210277380Y-75802976D02*
X210277380Y-75707738D01*
X210325000Y-75612500D01*
X210372619Y-75564880D01*
X210467857Y-75517261D01*
X210658333Y-75469642D01*
X210896428Y-75469642D01*
X211086904Y-75517261D01*
X211182142Y-75564880D01*
X211229761Y-75612500D01*
X211277380Y-75707738D01*
X211277380Y-75802976D01*
X211229761Y-75898214D01*
X211182142Y-75945833D01*
X211086904Y-75993452D01*
X210896428Y-76041071D01*
X210658333Y-76041071D01*
X210467857Y-75993452D01*
X210372619Y-75945833D01*
X210325000Y-75898214D01*
X210277380Y-75802976D01*
X248638630Y-95083035D02*
X249352916Y-95083035D01*
X249495773Y-95130654D01*
X249591011Y-95225892D01*
X249638630Y-95368750D01*
X249638630Y-95463988D01*
X248638630Y-94416369D02*
X248638630Y-94225892D01*
X248686250Y-94130654D01*
X248781488Y-94035416D01*
X248971964Y-93987797D01*
X249305297Y-93987797D01*
X249495773Y-94035416D01*
X249591011Y-94130654D01*
X249638630Y-94225892D01*
X249638630Y-94416369D01*
X249591011Y-94511607D01*
X249495773Y-94606845D01*
X249305297Y-94654464D01*
X248971964Y-94654464D01*
X248781488Y-94606845D01*
X248686250Y-94511607D01*
X248638630Y-94416369D01*
X249638630Y-93083035D02*
X249638630Y-93559226D01*
X248638630Y-93559226D01*
X249114821Y-92749702D02*
X249114821Y-92416369D01*
X249638630Y-92273511D02*
X249638630Y-92749702D01*
X248638630Y-92749702D01*
X248638630Y-92273511D01*
X249638630Y-91844940D02*
X248638630Y-91844940D01*
X248638630Y-91606845D01*
X248686250Y-91463988D01*
X248781488Y-91368750D01*
X248876726Y-91321130D01*
X249067202Y-91273511D01*
X249210059Y-91273511D01*
X249400535Y-91321130D01*
X249495773Y-91368750D01*
X249591011Y-91463988D01*
X249638630Y-91606845D01*
X249638630Y-91844940D01*
X248638630Y-90654464D02*
X248638630Y-90559226D01*
X248686250Y-90463988D01*
X248733869Y-90416369D01*
X248829107Y-90368750D01*
X249019583Y-90321130D01*
X249257678Y-90321130D01*
X249448154Y-90368750D01*
X249543392Y-90416369D01*
X249591011Y-90463988D01*
X249638630Y-90559226D01*
X249638630Y-90654464D01*
X249591011Y-90749702D01*
X249543392Y-90797321D01*
X249448154Y-90844940D01*
X249257678Y-90892559D01*
X249019583Y-90892559D01*
X248829107Y-90844940D01*
X248733869Y-90797321D01*
X248686250Y-90749702D01*
X248638630Y-90654464D01*
X253238095Y-115521130D02*
X253238095Y-114521130D01*
X253238095Y-114997321D02*
X253809523Y-114997321D01*
X253809523Y-115521130D02*
X253809523Y-114521130D01*
X254190476Y-114521130D02*
X254809523Y-114521130D01*
X254476190Y-114902083D01*
X254619047Y-114902083D01*
X254714285Y-114949702D01*
X254761904Y-114997321D01*
X254809523Y-115092559D01*
X254809523Y-115330654D01*
X254761904Y-115425892D01*
X254714285Y-115473511D01*
X254619047Y-115521130D01*
X254333333Y-115521130D01*
X254238095Y-115473511D01*
X254190476Y-115425892D01*
X253238095Y-55196130D02*
X253238095Y-54196130D01*
X253238095Y-54672321D02*
X253809523Y-54672321D01*
X253809523Y-55196130D02*
X253809523Y-54196130D01*
X254238095Y-54291369D02*
X254285714Y-54243750D01*
X254380952Y-54196130D01*
X254619047Y-54196130D01*
X254714285Y-54243750D01*
X254761904Y-54291369D01*
X254809523Y-54386607D01*
X254809523Y-54481845D01*
X254761904Y-54624702D01*
X254190476Y-55196130D01*
X254809523Y-55196130D01*
X173069345Y-55196130D02*
X173069345Y-54196130D01*
X173069345Y-54672321D02*
X173640773Y-54672321D01*
X173640773Y-55196130D02*
X173640773Y-54196130D01*
X174640773Y-55196130D02*
X174069345Y-55196130D01*
X174355059Y-55196130D02*
X174355059Y-54196130D01*
X174259821Y-54338988D01*
X174164583Y-54434226D01*
X174069345Y-54481845D01*
X173069345Y-115521130D02*
X173069345Y-114521130D01*
X173069345Y-114997321D02*
X173640773Y-114997321D01*
X173640773Y-115521130D02*
X173640773Y-114521130D01*
X174307440Y-114521130D02*
X174402678Y-114521130D01*
X174497916Y-114568750D01*
X174545535Y-114616369D01*
X174593154Y-114711607D01*
X174640773Y-114902083D01*
X174640773Y-115140178D01*
X174593154Y-115330654D01*
X174545535Y-115425892D01*
X174497916Y-115473511D01*
X174402678Y-115521130D01*
X174307440Y-115521130D01*
X174212202Y-115473511D01*
X174164583Y-115425892D01*
X174116964Y-115330654D01*
X174069345Y-115140178D01*
X174069345Y-114902083D01*
X174116964Y-114711607D01*
X174164583Y-114616369D01*
X174212202Y-114568750D01*
X174307440Y-114521130D01*
D14*
X184771392Y-113401928D02*
X184771392Y-111877928D01*
X185134250Y-111877928D01*
X185351964Y-111950500D01*
X185497107Y-112095642D01*
X185569678Y-112240785D01*
X185642250Y-112531071D01*
X185642250Y-112748785D01*
X185569678Y-113039071D01*
X185497107Y-113184214D01*
X185351964Y-113329357D01*
X185134250Y-113401928D01*
X184771392Y-113401928D01*
X186367964Y-113401928D02*
X186658250Y-113401928D01*
X186803392Y-113329357D01*
X186875964Y-113256785D01*
X187021107Y-113039071D01*
X187093678Y-112748785D01*
X187093678Y-112168214D01*
X187021107Y-112023071D01*
X186948535Y-111950500D01*
X186803392Y-111877928D01*
X186513107Y-111877928D01*
X186367964Y-111950500D01*
X186295392Y-112023071D01*
X186222821Y-112168214D01*
X186222821Y-112531071D01*
X186295392Y-112676214D01*
X186367964Y-112748785D01*
X186513107Y-112821357D01*
X186803392Y-112821357D01*
X186948535Y-112748785D01*
X187021107Y-112676214D01*
X187093678Y-112531071D01*
X203821392Y-113401928D02*
X203821392Y-111877928D01*
X204184250Y-111877928D01*
X204401964Y-111950500D01*
X204547107Y-112095642D01*
X204619678Y-112240785D01*
X204692250Y-112531071D01*
X204692250Y-112748785D01*
X204619678Y-113039071D01*
X204547107Y-113184214D01*
X204401964Y-113329357D01*
X204184250Y-113401928D01*
X203821392Y-113401928D01*
X205563107Y-112531071D02*
X205417964Y-112458500D01*
X205345392Y-112385928D01*
X205272821Y-112240785D01*
X205272821Y-112168214D01*
X205345392Y-112023071D01*
X205417964Y-111950500D01*
X205563107Y-111877928D01*
X205853392Y-111877928D01*
X205998535Y-111950500D01*
X206071107Y-112023071D01*
X206143678Y-112168214D01*
X206143678Y-112240785D01*
X206071107Y-112385928D01*
X205998535Y-112458500D01*
X205853392Y-112531071D01*
X205563107Y-112531071D01*
X205417964Y-112603642D01*
X205345392Y-112676214D01*
X205272821Y-112821357D01*
X205272821Y-113111642D01*
X205345392Y-113256785D01*
X205417964Y-113329357D01*
X205563107Y-113401928D01*
X205853392Y-113401928D01*
X205998535Y-113329357D01*
X206071107Y-113256785D01*
X206143678Y-113111642D01*
X206143678Y-112821357D01*
X206071107Y-112676214D01*
X205998535Y-112603642D01*
X205853392Y-112531071D01*
X222871392Y-113401928D02*
X222871392Y-111877928D01*
X223234250Y-111877928D01*
X223451964Y-111950500D01*
X223597107Y-112095642D01*
X223669678Y-112240785D01*
X223742250Y-112531071D01*
X223742250Y-112748785D01*
X223669678Y-113039071D01*
X223597107Y-113184214D01*
X223451964Y-113329357D01*
X223234250Y-113401928D01*
X222871392Y-113401928D01*
X224250250Y-111877928D02*
X225266250Y-111877928D01*
X224613107Y-113401928D01*
X241953142Y-98200028D02*
X241953142Y-96676028D01*
X242316000Y-96676028D01*
X242533714Y-96748600D01*
X242678857Y-96893742D01*
X242751428Y-97038885D01*
X242824000Y-97329171D01*
X242824000Y-97546885D01*
X242751428Y-97837171D01*
X242678857Y-97982314D01*
X242533714Y-98127457D01*
X242316000Y-98200028D01*
X241953142Y-98200028D01*
X244130285Y-96676028D02*
X243840000Y-96676028D01*
X243694857Y-96748600D01*
X243622285Y-96821171D01*
X243477142Y-97038885D01*
X243404571Y-97329171D01*
X243404571Y-97909742D01*
X243477142Y-98054885D01*
X243549714Y-98127457D01*
X243694857Y-98200028D01*
X243985142Y-98200028D01*
X244130285Y-98127457D01*
X244202857Y-98054885D01*
X244275428Y-97909742D01*
X244275428Y-97546885D01*
X244202857Y-97401742D01*
X244130285Y-97329171D01*
X243985142Y-97256600D01*
X243694857Y-97256600D01*
X243549714Y-97329171D01*
X243477142Y-97401742D01*
X243404571Y-97546885D01*
X184771392Y-94351928D02*
X184771392Y-92827928D01*
X185134250Y-92827928D01*
X185351964Y-92900500D01*
X185497107Y-93045642D01*
X185569678Y-93190785D01*
X185642250Y-93481071D01*
X185642250Y-93698785D01*
X185569678Y-93989071D01*
X185497107Y-94134214D01*
X185351964Y-94279357D01*
X185134250Y-94351928D01*
X184771392Y-94351928D01*
X187021107Y-92827928D02*
X186295392Y-92827928D01*
X186222821Y-93553642D01*
X186295392Y-93481071D01*
X186440535Y-93408500D01*
X186803392Y-93408500D01*
X186948535Y-93481071D01*
X187021107Y-93553642D01*
X187093678Y-93698785D01*
X187093678Y-94061642D01*
X187021107Y-94206785D01*
X186948535Y-94279357D01*
X186803392Y-94351928D01*
X186440535Y-94351928D01*
X186295392Y-94279357D01*
X186222821Y-94206785D01*
X203821392Y-94351928D02*
X203821392Y-92827928D01*
X204184250Y-92827928D01*
X204401964Y-92900500D01*
X204547107Y-93045642D01*
X204619678Y-93190785D01*
X204692250Y-93481071D01*
X204692250Y-93698785D01*
X204619678Y-93989071D01*
X204547107Y-94134214D01*
X204401964Y-94279357D01*
X204184250Y-94351928D01*
X203821392Y-94351928D01*
X205998535Y-93335928D02*
X205998535Y-94351928D01*
X205635678Y-92755357D02*
X205272821Y-93843928D01*
X206216250Y-93843928D01*
X222871392Y-94351928D02*
X222871392Y-92827928D01*
X223234250Y-92827928D01*
X223451964Y-92900500D01*
X223597107Y-93045642D01*
X223669678Y-93190785D01*
X223742250Y-93481071D01*
X223742250Y-93698785D01*
X223669678Y-93989071D01*
X223597107Y-94134214D01*
X223451964Y-94279357D01*
X223234250Y-94351928D01*
X222871392Y-94351928D01*
X224250250Y-92827928D02*
X225193678Y-92827928D01*
X224685678Y-93408500D01*
X224903392Y-93408500D01*
X225048535Y-93481071D01*
X225121107Y-93553642D01*
X225193678Y-93698785D01*
X225193678Y-94061642D01*
X225121107Y-94206785D01*
X225048535Y-94279357D01*
X224903392Y-94351928D01*
X224467964Y-94351928D01*
X224322821Y-94279357D01*
X224250250Y-94206785D01*
X184771392Y-75301928D02*
X184771392Y-73777928D01*
X185134250Y-73777928D01*
X185351964Y-73850500D01*
X185497107Y-73995642D01*
X185569678Y-74140785D01*
X185642250Y-74431071D01*
X185642250Y-74648785D01*
X185569678Y-74939071D01*
X185497107Y-75084214D01*
X185351964Y-75229357D01*
X185134250Y-75301928D01*
X184771392Y-75301928D01*
X186222821Y-73923071D02*
X186295392Y-73850500D01*
X186440535Y-73777928D01*
X186803392Y-73777928D01*
X186948535Y-73850500D01*
X187021107Y-73923071D01*
X187093678Y-74068214D01*
X187093678Y-74213357D01*
X187021107Y-74431071D01*
X186150250Y-75301928D01*
X187093678Y-75301928D01*
X203821392Y-75301928D02*
X203821392Y-73777928D01*
X204184250Y-73777928D01*
X204401964Y-73850500D01*
X204547107Y-73995642D01*
X204619678Y-74140785D01*
X204692250Y-74431071D01*
X204692250Y-74648785D01*
X204619678Y-74939071D01*
X204547107Y-75084214D01*
X204401964Y-75229357D01*
X204184250Y-75301928D01*
X203821392Y-75301928D01*
X206143678Y-75301928D02*
X205272821Y-75301928D01*
X205708250Y-75301928D02*
X205708250Y-73777928D01*
X205563107Y-73995642D01*
X205417964Y-74140785D01*
X205272821Y-74213357D01*
X222871392Y-75301928D02*
X222871392Y-73777928D01*
X223234250Y-73777928D01*
X223451964Y-73850500D01*
X223597107Y-73995642D01*
X223669678Y-74140785D01*
X223742250Y-74431071D01*
X223742250Y-74648785D01*
X223669678Y-74939071D01*
X223597107Y-75084214D01*
X223451964Y-75229357D01*
X223234250Y-75301928D01*
X222871392Y-75301928D01*
X224685678Y-73777928D02*
X224830821Y-73777928D01*
X224975964Y-73850500D01*
X225048535Y-73923071D01*
X225121107Y-74068214D01*
X225193678Y-74358500D01*
X225193678Y-74721357D01*
X225121107Y-75011642D01*
X225048535Y-75156785D01*
X224975964Y-75229357D01*
X224830821Y-75301928D01*
X224685678Y-75301928D01*
X224540535Y-75229357D01*
X224467964Y-75156785D01*
X224395392Y-75011642D01*
X224322821Y-74721357D01*
X224322821Y-74358500D01*
X224395392Y-74068214D01*
X224467964Y-73923071D01*
X224540535Y-73850500D01*
X224685678Y-73777928D01*
%LPC*%
D15*
X202247500Y-83026250D03*
D16*
X204787500Y-88106250D03*
D15*
X208597500Y-85566250D03*
D17*
X209867500Y-88106250D03*
X199707500Y-88106250D03*
D18*
X211872500Y-85566250D03*
X198945500Y-83026250D03*
D19*
X235267500Y-59848750D03*
D20*
X235267500Y-62388750D03*
X235267500Y-64928750D03*
X235267500Y-67468750D03*
X235267500Y-70008750D03*
X235267500Y-72548750D03*
X235267500Y-75088750D03*
X235267500Y-77628750D03*
X235267500Y-80168750D03*
X235267500Y-82708750D03*
X235267500Y-85248750D03*
X250507500Y-87788750D03*
X250507500Y-85248750D03*
X250507500Y-82708750D03*
X250507500Y-80168750D03*
X250507500Y-77628750D03*
X250507500Y-75088750D03*
X250507500Y-72548750D03*
X250507500Y-70008750D03*
X250507500Y-67468750D03*
X250507500Y-64928750D03*
X250507500Y-62388750D03*
X235267500Y-87788750D03*
X250507500Y-59848750D03*
D15*
X183197500Y-102076250D03*
D16*
X185737500Y-107156250D03*
D15*
X189547500Y-104616250D03*
D17*
X190817500Y-107156250D03*
X180657500Y-107156250D03*
D18*
X192822500Y-104616250D03*
X179895500Y-102076250D03*
D15*
X202247500Y-102076250D03*
D16*
X204787500Y-107156250D03*
D15*
X208597500Y-104616250D03*
D17*
X209867500Y-107156250D03*
X199707500Y-107156250D03*
D18*
X211872500Y-104616250D03*
X198945500Y-102076250D03*
D15*
X221297500Y-102076250D03*
D16*
X223837500Y-107156250D03*
D15*
X227647500Y-104616250D03*
D17*
X228917500Y-107156250D03*
X218757500Y-107156250D03*
D18*
X230922500Y-104616250D03*
X217995500Y-102076250D03*
D15*
X183197500Y-83026250D03*
D16*
X185737500Y-88106250D03*
D15*
X189547500Y-85566250D03*
D17*
X190817500Y-88106250D03*
X180657500Y-88106250D03*
D18*
X192822500Y-85566250D03*
X179895500Y-83026250D03*
D15*
X221297500Y-83026250D03*
D16*
X223837500Y-88106250D03*
D15*
X227647500Y-85566250D03*
D17*
X228917500Y-88106250D03*
X218757500Y-88106250D03*
D18*
X230922500Y-85566250D03*
X217995500Y-83026250D03*
D15*
X183197500Y-63976250D03*
D16*
X185737500Y-69056250D03*
D15*
X189547500Y-66516250D03*
D17*
X190817500Y-69056250D03*
X180657500Y-69056250D03*
D18*
X192822500Y-66516250D03*
X179895500Y-63976250D03*
D15*
X202247500Y-63976250D03*
D16*
X204787500Y-69056250D03*
D15*
X208597500Y-66516250D03*
D17*
X209867500Y-69056250D03*
X199707500Y-69056250D03*
D18*
X211872500Y-66516250D03*
X198945500Y-63976250D03*
D15*
X221297500Y-63976250D03*
D16*
X223837500Y-69056250D03*
D15*
X227647500Y-66516250D03*
D17*
X228917500Y-69056250D03*
X218757500Y-69056250D03*
D18*
X230922500Y-66516250D03*
X217995500Y-63976250D03*
D21*
X245387500Y-114656250D03*
D22*
X242887500Y-114656250D03*
X240387500Y-114656250D03*
D23*
X248487500Y-107156250D03*
X237287500Y-107156250D03*
D22*
X245387500Y-100156250D03*
X240387500Y-100156250D03*
X250342400Y-93093400D03*
X254842400Y-93093400D03*
X250342400Y-99593400D03*
X254842400Y-99593400D03*
D24*
X212831250Y-98556250D03*
X216031250Y-98556250D03*
X212831250Y-93556250D03*
X216031250Y-93556250D03*
X193662500Y-98543750D03*
X196862500Y-98543750D03*
X193662500Y-93543750D03*
X196862500Y-93543750D03*
X193662500Y-79493750D03*
X196862500Y-79493750D03*
X193662500Y-74493750D03*
X196862500Y-74493750D03*
X215925000Y-74612500D03*
X212725000Y-74612500D03*
X215925000Y-79612500D03*
X212725000Y-79612500D03*
D25*
X239236250Y-92868750D03*
X241776250Y-92868750D03*
X244316250Y-92868750D03*
D26*
X246856250Y-92868750D03*
D27*
X254000000Y-118268750D03*
X254000000Y-57943750D03*
X173831250Y-57943750D03*
X173831250Y-118268750D03*
D28*
X189706250Y-112712500D03*
D29*
X182086250Y-112712500D03*
D28*
X208756250Y-112712500D03*
D29*
X201136250Y-112712500D03*
D28*
X227806250Y-112712500D03*
D29*
X220186250Y-112712500D03*
X239268000Y-97510600D03*
D28*
X246888000Y-97510600D03*
X189706250Y-93662500D03*
D29*
X182086250Y-93662500D03*
X201136250Y-93662500D03*
D28*
X208756250Y-93662500D03*
D29*
X220186250Y-93662500D03*
D28*
X227806250Y-93662500D03*
X189706250Y-74612500D03*
D29*
X182086250Y-74612500D03*
X201136250Y-74612500D03*
D28*
X208756250Y-74612500D03*
D29*
X220186250Y-74612500D03*
D28*
X227806250Y-74612500D03*
M02*
